{"glyphs":{"0":{"ha":124,"x_min":0,"x_max":0,"o":"m 410 -19 b 757 518 618 -19 757 164 b 410 1047 757 872 618 1047 b 61 518 200 1047 61 874 b 410 -19 61 164 200 -19 z m 410 140 b 254 518 321 140 254 229 b 410 889 254 806 321 889 b 564 518 497 889 564 806 b 410 140 564 229 497 140 z "},"1":{"ha":124,"x_min":0,"x_max":0,"o":"m 114 0 l 732 0 l 732 165 l 539 165 l 539 1028 l 388 1028 b 149 942 322 988 251 961 l 149 815 l 335 815 l 335 165 l 114 165 z "},"2":{"ha":124,"x_min":0,"x_max":0,"o":"m 60 0 l 749 0 l 749 172 l 525 172 b 358 161 478 172 410 167 b 700 731 546 344 700 544 b 376 1047 700 922 571 1047 b 50 892 236 1047 144 992 l 161 781 b 350 886 213 838 275 886 b 504 719 447 886 504 824 b 60 118 504 561 339 368 z "},"3":{"ha":124,"x_min":0,"x_max":0,"o":"m 381 -19 b 742 279 576 -19 742 90 b 536 532 742 414 653 500 l 536 539 b 708 774 646 582 708 663 b 375 1047 708 950 574 1047 b 67 921 254 1047 156 999 l 171 796 b 365 888 232 851 292 886 b 503 758 453 886 503 839 b 253 601 503 667 442 601 l 253 454 b 536 290 476 454 536 392 b 361 147 536 199 465 147 b 132 253 268 147 193 193 l 36 124 b 381 -19 108 42 218 -19 z "},"4":{"ha":124,"x_min":0,"x_max":0,"o":"m 228 422 l 388 678 b 469 844 417 733 444 790 l 475 844 b 467 632 472 785 467 692 l 467 422 z m 779 422 l 657 422 l 657 1028 l 413 1028 l 29 406 l 29 267 l 467 267 l 467 0 l 657 0 l 657 267 l 779 267 z "},"5":{"ha":124,"x_min":0,"x_max":0,"o":"m 383 -19 b 743 342 574 -19 743 113 b 426 668 743 565 599 668 b 303 639 379 668 343 658 l 322 857 l 696 857 l 696 1028 l 146 1028 l 118 529 l 211 468 b 365 522 271 507 304 522 b 539 336 469 522 539 456 b 357 147 539 215 464 147 b 131 251 261 147 189 194 l 36 121 b 383 -19 113 44 221 -19 z "},"6":{"ha":124,"x_min":0,"x_max":0,"o":"m 435 135 b 260 394 349 135 279 207 b 428 503 311 474 372 503 b 574 324 517 503 574 446 b 435 135 574 199 511 135 z m 746 931 b 467 1047 683 994 592 1047 b 69 500 260 1047 69 883 b 439 -19 69 138 243 -19 b 761 324 614 -19 761 113 b 467 647 761 544 639 647 b 256 538 400 647 311 606 b 479 883 264 794 361 883 b 638 808 539 883 601 850 z "},"7":{"ha":124,"x_min":0,"x_max":0,"o":"m 258 0 l 465 0 b 753 904 482 403 514 613 l 753 1028 l 69 1028 l 69 857 l 532 857 b 258 0 336 585 276 357 z "},"8":{"ha":124,"x_min":0,"x_max":0,"o":"m 408 -19 b 754 256 617 -19 754 100 b 582 531 754 396 676 479 l 582 538 b 714 772 650 586 714 671 b 415 1046 714 936 597 1046 b 106 775 236 1046 106 940 b 242 531 106 665 163 588 l 242 524 b 65 256 146 472 65 388 b 408 -19 65 94 213 -19 z m 474 588 b 286 775 365 631 286 678 b 411 903 286 857 342 903 b 547 760 497 903 547 843 b 474 588 547 699 524 640 z m 414 125 b 242 278 318 125 242 185 b 336 468 242 354 281 424 b 564 263 469 414 564 369 b 414 125 564 174 500 125 z "},"9":{"ha":124,"x_min":0,"x_max":0,"o":"m 389 526 b 243 704 300 526 243 583 b 382 893 243 831 306 893 b 558 636 469 893 540 824 b 389 526 508 557 444 526 z m 72 97 b 354 -19 133 35 226 -19 b 749 538 558 -19 749 149 b 379 1047 749 894 574 1047 b 56 704 203 1047 56 915 b 350 381 56 486 179 381 b 561 493 421 381 508 424 b 342 147 553 235 457 147 b 179 219 281 147 217 179 z "}," ":{"ha":-379,"x_min":0,"x_max":0,"o":""},"!":{"ha":-181,"x_min":0,"x_max":0,"o":"m 190 350 l 324 350 l 353 863 l 360 1056 l 154 1056 l 161 863 z m 257 -19 b 385 114 329 -19 385 39 b 257 247 385 189 329 247 b 131 114 185 247 131 189 b 257 -19 131 39 185 -19 z "},"\"":{"ha":104,"x_min":0,"x_max":0,"o":"m 168 592 l 282 592 l 322 890 l 329 1083 l 121 1083 l 128 890 z m 515 592 l 629 592 l 669 890 l 676 1083 l 468 1083 l 475 890 z "},"#":{"ha":124,"x_min":0,"x_max":0,"o":"m 138 0 l 258 0 l 296 301 l 469 301 l 433 0 l 556 0 l 592 301 l 739 301 l 739 433 l 607 433 l 631 624 l 771 624 l 771 757 l 647 757 l 678 1024 l 560 1024 l 525 757 l 350 757 l 382 1024 l 264 1024 l 229 757 l 86 757 l 86 624 l 213 624 l 189 433 l 54 433 l 54 301 l 174 301 z m 310 433 l 333 624 l 508 624 l 485 433 z "},"$":{"ha":124,"x_min":0,"x_max":0,"o":"m 710 890 b 479 1017 650 953 579 1003 l 479 1175 l 342 1175 l 342 1014 b 106 731 196 986 106 882 b 528 269 106 440 528 457 b 386 147 528 190 483 147 b 157 242 307 147 233 182 l 67 104 b 342 -17 140 38 247 -6 l 342 -172 l 479 -172 l 479 -11 b 724 283 639 19 724 132 b 301 740 724 594 301 568 b 429 856 301 817 347 856 b 607 774 500 856 550 826 z "},"%":{"ha":642,"x_min":0,"x_max":0,"o":"m 294 396 b 546 724 442 396 546 517 b 294 1047 546 929 442 1047 b 44 724 147 1047 44 929 b 294 396 44 517 147 396 z m 294 511 b 189 724 235 511 189 572 b 294 932 189 875 235 932 b 401 724 354 932 401 875 b 294 511 401 572 354 511 z m 329 -19 l 449 -19 l 1008 1047 l 888 1047 z m 1042 -19 b 1293 308 1188 -19 1293 103 b 1042 633 1293 515 1188 633 b 792 308 896 633 792 515 b 1042 -19 792 103 896 -19 z m 1042 97 b 935 308 982 97 935 157 b 1042 518 935 460 982 518 b 1149 308 1101 518 1149 460 b 1042 97 1149 157 1101 97 z "},"&":{"ha":332,"x_min":0,"x_max":0,"o":"m 236 285 b 321 429 236 340 271 386 b 553 189 386 343 465 261 b 403 138 504 157 453 138 b 236 285 304 138 236 197 z m 339 786 b 442 911 339 863 382 911 b 519 822 496 911 519 874 b 376 649 519 747 457 697 b 339 786 353 697 339 743 z m 999 147 b 817 221 946 157 883 183 b 990 574 896 328 953 447 l 806 574 b 679 313 778 472 733 385 b 457 526 597 375 518 450 b 678 824 567 603 678 688 b 439 1047 678 958 585 1047 b 169 786 274 1047 169 929 b 235 564 169 718 193 642 b 42 272 132 499 42 415 b 378 -19 42 113 163 -19 b 693 89 504 -19 608 22 b 949 -19 779 35 868 -1 z "},"'":{"ha":-243,"x_min":0,"x_max":0,"o":"m 168 592 l 282 592 l 322 890 l 329 1083 l 121 1083 l 128 890 z "},"(":{"ha":-169,"x_min":0,"x_max":0,"o":"m 325 -281 l 453 -226 b 283 439 336 -24 283 210 b 453 1103 283 665 336 900 l 325 1157 b 118 439 194 943 118 715 b 325 -281 118 160 194 -65 z "},")":{"ha":-169,"x_min":0,"x_max":0,"o":"m 199 -281 b 407 439 331 -65 407 160 b 199 1157 407 715 331 943 l 72 1103 b 242 439 189 900 242 665 b 72 -226 242 210 189 -24 z "},"*":{"ha":8,"x_min":0,"x_max":0,"o":"m 229 581 l 351 719 l 474 581 l 561 644 l 468 803 l 635 876 l 601 979 l 424 939 l 407 1122 l 297 1122 l 279 939 l 101 979 l 68 876 l 233 803 l 142 644 z "},"+":{"ha":124,"x_min":0,"x_max":0,"o":"m 333 151 l 485 151 l 485 447 l 765 447 l 765 592 l 485 592 l 485 888 l 333 888 l 333 592 l 53 592 l 53 447 l 333 447 z "},",":{"ha":-243,"x_min":0,"x_max":0,"o":"m 117 -296 b 379 46 283 -240 379 -117 b 232 247 379 172 326 247 b 100 126 160 247 100 200 b 228 6 100 49 161 6 b 240 6 232 6 236 6 b 74 -185 240 -75 181 -144 z "},"-":{"ha":-181,"x_min":0,"x_max":0,"o":"m 68 325 l 447 325 l 447 471 l 68 471 z "},".":{"ha":-243,"x_min":0,"x_max":0,"o":"m 225 -19 b 353 114 299 -19 353 39 b 225 247 353 189 299 247 b 99 114 153 247 99 189 b 225 -19 99 39 153 -19 z "},"/":{"ha":-156,"x_min":0,"x_max":0,"o":"m 19 -253 l 156 -253 l 500 1118 l 364 1118 z "},":":{"ha":-243,"x_min":0,"x_max":0,"o":"m 225 508 b 353 640 299 508 353 565 b 225 774 353 717 299 774 b 99 640 153 774 99 717 b 225 508 99 565 153 508 z m 225 -19 b 353 114 299 -19 353 39 b 225 247 353 189 299 247 b 99 114 153 247 99 189 b 225 -19 99 39 153 -19 z "},";":{"ha":-243,"x_min":0,"x_max":0,"o":"m 225 508 b 353 640 299 508 353 565 b 225 774 353 717 299 774 b 99 640 153 774 99 717 b 225 508 99 565 153 508 z m 117 -296 b 379 46 283 -240 379 -117 b 232 247 379 172 326 247 b 100 126 160 247 100 200 b 228 6 100 49 161 6 b 240 6 232 6 236 6 b 74 -185 240 -75 181 -144 z "},"<":{"ha":124,"x_min":0,"x_max":0,"o":"m 765 175 l 765 344 l 474 444 l 261 519 l 261 526 l 474 601 l 765 701 l 765 869 l 53 594 l 53 450 z "},"=":{"ha":124,"x_min":0,"x_max":0,"o":"m 53 626 l 765 626 l 765 772 l 53 772 z m 53 267 l 765 267 l 765 413 l 53 413 z "},">":{"ha":124,"x_min":0,"x_max":0,"o":"m 53 175 l 765 450 l 765 594 l 53 869 l 53 701 l 346 601 l 558 526 l 558 519 l 346 444 l 53 344 z "},"?":{"ha":19,"x_min":0,"x_max":0,"o":"m 246 350 l 424 350 b 644 810 403 546 644 613 b 356 1074 644 988 522 1074 b 64 935 235 1074 136 1017 l 176 832 b 331 910 221 878 269 910 b 449 796 403 910 449 865 b 246 350 449 663 213 574 z m 335 -19 b 463 114 408 -19 463 39 b 335 247 463 189 408 247 b 208 114 263 247 208 189 b 335 -19 208 39 263 -19 z "},"@":{"ha":704,"x_min":0,"x_max":0,"o":"m 664 -264 b 969 -187 775 -264 875 -240 l 924 -74 b 681 -137 857 -111 765 -137 b 217 328 428 -137 217 18 b 757 918 217 686 485 918 b 1189 488 1060 918 1189 722 b 994 193 1189 307 1090 193 b 919 342 919 193 894 240 l 988 681 l 861 681 l 839 615 l 836 615 b 715 693 810 669 768 693 b 401 313 535 693 401 497 b 604 79 401 168 485 79 b 794 185 669 79 749 122 l 797 185 b 974 65 813 107 885 65 b 1321 494 1133 65 1321 210 b 774 1044 1321 818 1108 1044 b 78 322 397 1044 78 757 b 664 -264 78 -71 350 -264 z m 647 208 b 556 324 593 208 556 246 b 721 560 556 425 619 560 b 803 508 756 560 782 543 l 763 286 b 647 208 718 231 683 208 z "},"A":{"ha":196,"x_min":0,"x_max":0,"o":"m 319 424 l 350 536 b 438 872 381 643 411 760 l 443 872 b 533 536 474 761 501 643 l 564 424 z m 681 0 l 896 0 l 565 1028 l 324 1028 l -6 0 l 203 0 l 275 264 l 608 264 z "},"B":{"ha":251,"x_min":0,"x_max":0,"o":"m 126 0 l 493 0 b 892 303 719 0 892 96 b 699 546 892 442 810 519 l 699 553 b 839 775 786 583 839 681 b 467 1028 839 967 678 1028 l 126 1028 z m 332 610 l 332 871 l 454 871 b 639 744 578 871 639 835 b 451 610 639 663 582 610 z m 332 158 l 332 457 l 475 457 b 692 315 617 457 692 415 b 475 158 692 208 615 158 z "},"C":{"ha":218,"x_min":0,"x_max":0,"o":"m 546 -19 b 874 132 679 -19 789 33 l 765 260 b 553 158 710 200 640 158 b 285 517 390 158 285 293 b 557 871 285 738 401 871 b 746 785 635 871 694 835 l 854 915 b 553 1047 788 985 683 1047 b 75 510 293 1047 75 849 b 546 -19 75 167 286 -19 z "},"D":{"ha":297,"x_min":0,"x_max":0,"o":"m 126 0 l 419 0 b 917 518 722 0 917 172 b 408 1028 917 865 722 1028 l 126 1028 z m 332 165 l 332 864 l 396 864 b 707 518 588 864 707 769 b 396 165 707 268 588 165 z "},"E":{"ha":160,"x_min":0,"x_max":0,"o":"m 126 0 l 772 0 l 772 172 l 332 172 l 332 447 l 693 447 l 693 619 l 332 619 l 332 857 l 757 857 l 757 1028 l 126 1028 z "},"F":{"ha":118,"x_min":0,"x_max":0,"o":"m 126 0 l 332 0 l 332 417 l 697 417 l 697 589 l 332 589 l 332 857 l 760 857 l 760 1028 l 126 1028 z "},"G":{"ha":301,"x_min":0,"x_max":0,"o":"m 568 -19 b 901 104 711 -19 832 36 l 901 568 l 536 568 l 536 400 l 718 400 l 718 197 b 589 158 689 172 639 158 b 285 517 388 158 285 293 b 575 871 285 738 404 871 b 776 785 668 871 726 833 l 886 915 b 568 1047 819 983 717 1047 b 75 510 294 1047 75 849 b 568 -19 75 167 288 -19 z "},"H":{"ha":357,"x_min":0,"x_max":0,"o":"m 126 0 l 332 0 l 332 444 l 721 444 l 721 0 l 925 0 l 925 1028 l 721 1028 l 721 624 l 332 624 l 332 1028 l 126 1028 z "},"I":{"ha":-236,"x_min":0,"x_max":0,"o":"m 126 0 l 332 0 l 332 1028 l 126 1028 z "},"J":{"ha":94,"x_min":0,"x_max":0,"o":"m 350 -19 b 668 332 571 -19 668 139 l 668 1028 l 463 1028 l 463 349 b 325 158 463 207 415 158 b 172 265 267 158 213 190 l 31 161 b 350 -19 100 42 200 -19 z "},"K":{"ha":258,"x_min":0,"x_max":0,"o":"m 126 0 l 332 0 l 332 289 l 467 461 l 732 0 l 958 0 l 589 624 l 903 1028 l 676 1028 l 336 582 l 332 582 l 332 1028 l 126 1028 z "},"L":{"ha":107,"x_min":0,"x_max":0,"o":"m 126 0 l 749 0 l 749 172 l 332 172 l 332 1028 l 126 1028 z "},"M":{"ha":492,"x_min":0,"x_max":0,"o":"m 126 0 l 311 0 l 311 429 b 285 767 311 526 294 669 l 290 767 l 372 525 l 532 93 l 650 93 l 808 525 l 892 767 l 897 767 b 872 429 888 669 872 526 l 872 0 l 1060 0 l 1060 1028 l 832 1028 l 661 547 b 599 349 639 483 621 415 l 592 349 b 529 547 571 415 551 483 l 354 1028 l 126 1028 z "},"N":{"ha":346,"x_min":0,"x_max":0,"o":"m 126 0 l 321 0 l 321 413 b 296 771 321 531 306 660 l 303 771 l 407 550 l 704 0 l 913 0 l 913 1028 l 718 1028 l 718 618 b 744 258 718 501 733 365 l 738 258 l 635 481 l 336 1028 l 126 1028 z "},"O":{"ha":375,"x_min":0,"x_max":0,"o":"m 535 -19 b 994 518 807 -19 994 185 b 535 1047 994 851 807 1047 b 75 518 263 1047 75 853 b 535 -19 75 185 263 -19 z m 535 158 b 285 518 382 158 285 299 b 535 871 285 739 382 871 b 785 518 688 871 785 739 b 535 158 785 299 688 158 z "},"P":{"ha":232,"x_min":0,"x_max":0,"o":"m 126 0 l 332 0 l 332 365 l 469 365 b 867 706 690 365 867 471 b 464 1028 867 949 692 1028 l 126 1028 z m 332 528 l 332 865 l 449 865 b 665 706 590 865 665 825 b 456 528 665 588 597 528 z "},"Q":{"ha":375,"x_min":0,"x_max":0,"o":"m 285 518 b 535 871 285 739 382 871 b 785 518 688 871 785 739 b 535 149 785 288 688 149 b 285 518 382 149 285 288 z m 1003 -97 b 890 -114 974 -107 935 -114 b 657 -4 797 -114 704 -82 b 994 518 861 49 994 238 b 535 1047 994 851 807 1047 b 75 518 263 1047 75 853 b 440 -11 75 225 221 31 b 867 -279 511 -167 657 -279 b 1039 -249 942 -279 1004 -265 z "},"R":{"ha":253,"x_min":0,"x_max":0,"o":"m 332 865 l 465 865 b 669 717 597 865 669 828 b 465 551 669 607 597 551 l 332 551 z m 915 0 l 675 421 b 871 717 793 467 871 563 b 485 1028 871 953 700 1028 l 126 1028 l 126 0 l 332 0 l 332 389 l 475 389 l 686 0 z "},"S":{"ha":172,"x_min":0,"x_max":0,"o":"m 433 -19 b 811 292 671 -19 811 124 b 604 571 811 440 729 519 l 469 628 b 308 763 382 663 308 689 b 457 871 308 831 367 871 b 675 786 542 871 610 840 l 779 915 b 457 1047 696 1000 576 1047 b 101 750 249 1047 101 918 b 310 474 101 600 206 517 l 447 415 b 601 276 539 376 601 353 b 438 158 601 204 544 158 b 176 272 347 158 250 204 l 58 131 b 433 -19 158 35 296 -19 z "},"T":{"ha":174,"x_min":0,"x_max":0,"o":"m 331 0 l 536 0 l 536 857 l 828 857 l 828 1028 l 42 1028 l 42 857 l 331 857 z "},"U":{"ha":344,"x_min":0,"x_max":0,"o":"m 521 -19 b 918 463 772 -19 918 121 l 918 1028 l 721 1028 l 721 444 b 521 158 721 231 643 158 b 326 444 400 158 326 231 l 326 1028 l 121 1028 l 121 463 b 521 -19 121 121 271 -19 z "},"V":{"ha":164,"x_min":0,"x_max":0,"o":"m 307 0 l 551 0 l 867 1028 l 658 1028 l 525 528 b 438 196 493 414 469 311 l 431 196 b 344 528 397 311 376 414 l 208 1028 l -7 1028 z "},"W":{"ha":576,"x_min":0,"x_max":0,"o":"m 224 0 l 475 0 l 588 508 b 632 746 604 589 618 668 l 638 746 b 682 508 650 668 665 589 l 797 0 l 1053 0 l 1243 1028 l 1047 1028 l 967 526 b 921 199 951 419 936 310 l 914 199 b 849 526 892 310 871 421 l 729 1028 l 554 1028 l 435 526 b 369 199 413 419 390 308 l 364 199 b 317 526 349 308 332 418 l 235 1028 l 25 1028 z "},"X":{"ha":176,"x_min":0,"x_max":0,"o":"m 19 0 l 238 0 l 347 228 b 422 397 372 281 396 335 l 428 397 b 508 228 458 335 482 281 l 624 0 l 851 0 l 563 521 l 833 1028 l 617 1028 l 519 817 b 451 654 497 768 476 718 l 444 654 b 368 817 414 718 392 768 l 265 1028 l 38 1028 l 308 531 z "},"Y":{"ha":113,"x_min":0,"x_max":0,"o":"m 300 0 l 506 0 l 506 376 l 815 1028 l 601 1028 l 499 778 b 407 550 469 701 439 629 l 401 550 b 313 778 369 629 342 701 l 210 1028 l -8 1028 l 300 376 z "},"Z":{"ha":157,"x_min":0,"x_max":0,"o":"m 60 0 l 796 0 l 796 172 l 313 172 l 790 906 l 790 1028 l 106 1028 l 106 857 l 539 857 l 60 124 z "},"[":{"ha":-169,"x_min":0,"x_max":0,"o":"m 140 -240 l 458 -240 l 458 -129 l 293 -129 l 293 1007 l 458 1007 l 458 1115 l 140 1115 z "},"\\":{"ha":-156,"x_min":0,"x_max":0,"o":"m 383 -253 l 519 -253 l 174 1118 l 39 1118 z "},"]":{"ha":-169,"x_min":0,"x_max":0,"o":"m 67 -240 l 385 -240 l 385 1115 l 67 1115 l 67 1007 l 232 1007 l 232 -129 l 67 -129 z "},"^":{"ha":124,"x_min":0,"x_max":0,"o":"m 83 435 l 253 435 l 333 658 l 406 871 l 413 871 l 485 658 l 567 435 l 736 435 l 493 1056 l 325 1056 z "},"_":{"ha":93,"x_min":0,"x_max":0,"o":"m 19 -215 l 769 -215 l 769 -96 l 19 -96 z "},"`":{"ha":175,"x_min":0,"x_max":0,"o":"m 429 903 l 531 1001 l 293 1283 l 153 1147 z "},"a":{"ha":126,"x_min":0,"x_max":0,"o":"m 301 -19 b 536 83 390 -19 468 25 l 540 83 l 556 0 l 722 0 l 722 454 b 424 797 722 679 621 797 b 99 694 301 797 190 751 l 172 560 b 386 633 244 601 314 633 b 518 499 482 633 515 575 b 71 211 206 465 71 378 b 301 -19 71 79 163 -19 z m 368 140 b 265 228 308 140 265 167 b 518 374 265 297 329 349 l 518 217 b 368 140 469 168 426 140 z "},"b":{"ha":200,"x_min":0,"x_max":0,"o":"m 500 -19 b 831 403 671 -19 831 135 b 524 797 831 640 715 797 b 308 704 447 797 369 760 l 313 829 l 313 1108 l 110 1108 l 110 0 l 269 0 l 288 82 l 292 82 b 500 -19 356 17 431 -19 z m 454 149 b 313 207 413 149 361 164 l 313 549 b 467 629 367 603 414 629 b 621 399 574 629 621 547 b 454 149 621 229 549 149 z "},"c":{"ha":38,"x_min":0,"x_max":0,"o":"m 440 -19 b 694 75 526 -19 621 10 l 614 210 b 463 147 571 174 518 147 b 269 388 350 147 269 242 b 468 631 269 535 350 631 b 588 579 513 631 549 613 l 685 711 b 458 797 628 760 554 797 b 61 388 247 797 61 647 b 440 -19 61 131 225 -19 z "},"d":{"ha":200,"x_min":0,"x_max":0,"o":"m 383 -19 b 599 81 464 -19 542 25 l 603 81 l 619 0 l 785 0 l 785 1108 l 581 1108 l 581 835 l 589 713 b 392 797 533 764 479 797 b 65 388 224 797 65 642 b 383 -19 65 133 190 -19 z m 436 149 b 275 390 333 149 275 229 b 436 629 275 546 349 629 b 581 571 485 629 533 614 l 581 229 b 436 149 536 171 490 149 z "},"e":{"ha":113,"x_min":0,"x_max":0,"o":"m 447 -19 b 719 67 544 -19 643 14 l 650 192 b 475 138 594 157 539 138 b 260 332 360 138 276 204 l 739 332 b 749 425 744 350 749 388 b 424 797 749 640 638 797 b 61 388 238 797 61 640 b 447 -19 61 132 231 -19 z m 257 467 b 426 639 272 581 344 639 b 574 467 526 639 574 572 z "},"f":{"ha":-178,"x_min":0,"x_max":0,"o":"m 563 1100 b 415 1128 528 1114 475 1128 b 144 840 219 1128 144 1003 l 144 776 l 40 768 l 40 617 l 144 617 l 144 0 l 349 0 l 349 617 l 494 617 l 494 778 l 349 778 l 349 844 b 443 967 349 931 382 967 b 525 950 468 967 499 960 z "},"g":{"ha":135,"x_min":0,"x_max":0,"o":"m 383 -337 b 806 -61 643 -337 806 -218 b 517 133 806 75 704 133 l 385 133 b 263 197 293 133 263 156 b 296 264 263 228 274 246 b 396 246 329 253 365 246 b 696 510 563 246 696 335 b 660 628 696 558 681 601 l 793 628 l 793 778 l 513 778 b 396 797 481 789 439 797 b 82 515 231 797 82 699 b 185 313 82 425 132 351 l 185 307 b 99 161 139 274 99 219 b 169 31 99 97 129 57 l 169 24 b 58 -137 99 -17 58 -72 b 383 -337 58 -275 200 -337 z m 396 372 b 274 515 328 372 274 424 b 396 658 274 607 326 658 b 517 515 465 658 517 607 b 396 372 517 424 464 372 z m 414 -208 b 228 -106 300 -208 228 -171 b 279 -15 228 -74 244 -43 b 388 -26 307 -22 340 -26 l 482 -26 b 611 -96 565 -26 611 -40 b 414 -208 611 -157 531 -208 z "},"h":{"ha":194,"x_min":0,"x_max":0,"o":"m 110 0 l 313 0 l 313 535 b 475 622 371 592 411 622 b 585 460 551 622 585 579 l 585 0 l 789 0 l 789 485 b 549 797 789 681 717 797 b 304 683 443 797 367 742 l 313 829 l 313 1108 l 110 1108 z "},"i":{"ha":-272,"x_min":0,"x_max":0,"o":"m 110 0 l 313 0 l 313 778 l 110 778 z m 213 903 b 333 1014 282 903 333 950 b 213 1125 333 1081 282 1125 b 90 1014 142 1125 90 1081 b 213 903 90 950 142 903 z "},"j":{"ha":-271,"x_min":0,"x_max":0,"o":"m 56 -318 b 315 -19 251 -318 315 -186 l 315 778 l 111 778 l 111 -25 b 25 -157 111 -112 92 -157 b -39 -146 3 -157 -18 -153 l -75 -297 b 56 -318 -44 -308 -4 -318 z m 214 903 b 336 1014 283 903 336 950 b 214 1125 336 1081 283 1125 b 92 1014 143 1125 92 1081 b 214 903 92 950 143 903 z "},"k":{"ha":146,"x_min":0,"x_max":0,"o":"m 110 0 l 308 0 l 308 194 l 421 322 l 610 0 l 831 0 l 536 460 l 806 778 l 583 778 l 314 442 l 308 442 l 308 1108 l 110 1108 z "},"l":{"ha":-257,"x_min":0,"x_max":0,"o":"m 301 -19 b 407 -1 349 -19 383 -11 l 382 150 b 354 147 368 147 363 147 b 313 208 335 147 313 163 l 313 1108 l 110 1108 l 110 218 b 301 -19 110 74 160 -19 z "},"m":{"ha":644,"x_min":0,"x_max":0,"o":"m 110 0 l 313 0 l 313 535 b 463 622 368 593 418 622 b 571 460 536 622 571 579 l 571 0 l 775 0 l 775 535 b 925 622 831 593 881 622 b 1033 460 999 622 1033 579 l 1033 0 l 1238 0 l 1238 485 b 996 797 1238 681 1161 797 b 749 661 894 797 819 736 b 535 797 711 747 646 797 b 296 674 433 797 361 742 l 290 674 l 276 778 l 110 778 z "},"n":{"ha":196,"x_min":0,"x_max":0,"o":"m 110 0 l 313 0 l 313 535 b 475 622 371 592 411 622 b 585 460 551 622 585 579 l 585 0 l 789 0 l 789 485 b 549 797 789 681 717 797 b 296 675 443 797 364 742 l 290 675 l 276 778 l 110 778 z "},"o":{"ha":175,"x_min":0,"x_max":0,"o":"m 435 -19 b 808 388 629 -19 808 131 b 435 797 808 647 629 797 b 61 388 240 797 61 647 b 435 -19 61 131 240 -19 z m 435 147 b 269 388 329 147 269 242 b 435 631 269 535 329 631 b 600 388 540 631 600 535 b 435 147 600 242 540 147 z "},"p":{"ha":200,"x_min":0,"x_max":0,"o":"m 110 -299 l 313 -299 l 313 -62 l 307 65 b 500 -19 367 11 432 -19 b 831 401 671 -19 831 135 b 525 797 831 640 717 797 b 296 697 442 797 361 753 l 290 697 l 276 778 l 110 778 z m 454 149 b 313 207 413 149 363 164 l 313 549 b 467 629 367 603 414 629 b 621 399 574 629 621 547 b 454 149 621 229 549 149 z "},"q":{"ha":200,"x_min":0,"x_max":0,"o":"m 581 -299 l 785 -299 l 785 778 l 625 778 l 608 701 l 603 701 b 392 797 540 767 478 797 b 65 388 224 797 65 642 b 383 -19 65 133 190 -19 b 589 74 460 -19 536 19 l 581 -51 z m 436 149 b 275 390 333 149 275 229 b 436 629 275 546 349 629 b 581 571 485 629 533 614 l 581 229 b 436 149 536 171 490 149 z "},"r":{"ha":-89,"x_min":0,"x_max":0,"o":"m 110 0 l 313 0 l 313 464 b 492 617 357 576 431 617 b 572 604 524 617 546 613 l 608 781 b 517 797 585 790 560 797 b 296 640 436 797 353 742 l 290 640 l 276 778 l 110 778 z "},"s":{"ha":-7,"x_min":0,"x_max":0,"o":"m 332 -19 b 642 226 535 -19 642 90 b 425 461 642 371 528 422 b 267 569 343 492 267 513 b 369 644 267 614 300 644 b 538 578 428 644 482 617 l 629 701 b 364 797 564 750 478 797 b 75 558 189 797 75 699 b 288 332 75 429 189 369 b 450 215 369 300 450 274 b 338 133 450 167 415 133 b 129 218 265 133 199 164 l 36 90 b 332 -19 113 26 228 -19 z "},"t":{"ha":-111,"x_min":0,"x_max":0,"o":"m 394 -19 b 558 10 463 -19 517 -4 l 525 158 b 449 142 504 150 474 142 b 343 272 379 142 343 183 l 343 617 l 535 617 l 535 778 l 343 778 l 343 986 l 172 986 l 149 778 l 29 768 l 29 617 l 139 617 l 139 272 b 394 -19 139 97 210 -19 z "},"u":{"ha":190,"x_min":0,"x_max":0,"o":"m 340 -19 b 589 111 447 -19 522 32 l 594 111 l 610 0 l 776 0 l 776 778 l 572 778 l 572 253 b 414 156 519 183 478 156 b 306 318 339 156 306 197 l 306 778 l 101 778 l 101 292 b 340 -19 101 97 174 -19 z "},"v":{"ha":106,"x_min":0,"x_max":0,"o":"m 285 0 l 521 0 l 781 778 l 585 778 l 471 390 b 408 154 450 314 428 233 l 401 154 b 339 390 381 233 358 314 l 225 778 l 19 778 z "},"w":{"ha":504,"x_min":0,"x_max":0,"o":"m 239 0 l 472 0 l 551 339 b 594 565 568 411 579 483 l 601 565 b 646 339 617 483 629 413 l 728 0 l 968 0 l 1160 778 l 971 778 l 886 393 b 847 167 871 318 861 243 l 840 167 b 792 393 824 243 810 318 l 694 778 l 513 778 l 419 393 b 371 167 400 319 386 243 l 365 167 b 326 393 351 243 342 318 l 242 778 l 38 778 z "},"x":{"ha":86,"x_min":0,"x_max":0,"o":"m 22 0 l 233 0 l 306 142 b 371 279 328 189 349 235 l 378 279 b 453 142 403 235 428 188 l 539 0 l 758 0 l 515 382 l 743 778 l 532 778 l 467 639 b 410 508 449 596 428 551 l 404 508 b 335 639 381 551 357 596 l 257 778 l 38 778 l 265 406 z "},"y":{"ha":103,"x_min":0,"x_max":0,"o":"m 178 -312 b 503 -24 351 -312 435 -207 l 779 778 l 583 778 l 476 417 b 421 197 458 344 439 269 l 414 197 b 349 417 392 272 372 347 l 225 778 l 19 778 l 322 14 l 308 -32 b 163 -150 286 -100 242 -150 b 108 -140 144 -150 122 -144 l 71 -297 b 178 -312 101 -307 132 -312 z "},"z":{"ha":15,"x_min":0,"x_max":0,"o":"m 57 0 l 671 0 l 671 161 l 311 161 l 660 668 l 660 778 l 96 778 l 96 617 l 404 617 l 57 110 z "},"{":{"ha":-169,"x_min":0,"x_max":0,"o":"m 368 -240 l 458 -240 l 458 -129 l 426 -129 b 336 -10 354 -129 336 -101 b 343 254 336 78 343 156 b 232 435 343 368 308 417 l 232 442 b 343 622 308 460 343 507 b 336 886 343 721 336 799 b 426 1007 336 978 354 1007 l 458 1007 l 458 1115 l 368 1115 b 171 894 232 1115 171 1064 b 185 617 171 783 185 718 b 50 499 185 560 154 500 l 50 378 b 185 258 154 375 185 317 b 171 -19 185 157 171 93 b 368 -240 171 -187 232 -240 z "},"|":{"ha":-283,"x_min":0,"x_max":0,"o":"m 139 -393 l 272 -393 l 272 1182 l 139 1182 z "},"}":{"ha":-169,"x_min":0,"x_max":0,"o":"m 67 -240 l 157 -240 b 354 -19 293 -240 354 -187 b 339 258 354 93 339 157 b 474 378 339 317 371 375 l 474 499 b 339 617 371 500 339 560 b 354 894 339 718 354 783 b 157 1115 354 1064 293 1115 l 67 1115 l 67 1007 l 99 1007 b 189 886 169 1007 189 978 b 182 622 189 799 182 721 b 293 442 182 507 217 460 l 293 435 b 182 254 217 417 182 368 b 189 -10 182 156 189 78 b 99 -129 189 -101 169 -129 l 67 -129 z "},"~":{"ha":124,"x_min":0,"x_max":0,"o":"m 544 386 b 769 542 619 386 699 429 l 663 622 b 547 532 629 563 592 532 b 275 654 461 532 403 654 b 49 497 199 654 121 611 l 156 417 b 271 508 189 478 228 508 b 544 386 358 508 415 386 z "},"¡":{"ha":-181,"x_min":0,"x_max":0,"o":"m 154 -278 l 360 -278 l 353 -86 l 324 426 l 190 426 l 161 -86 z m 257 531 b 385 664 329 531 385 588 b 257 797 385 739 329 797 b 131 664 185 797 131 739 b 257 531 131 588 185 531 z "},"¤":{"ha":124,"x_min":0,"x_max":0,"o":"m 136 139 l 246 250 b 410 207 296 221 351 207 b 572 250 465 207 522 221 l 682 139 l 785 243 l 686 342 b 742 518 719 390 742 449 b 686 696 742 589 722 649 l 785 794 l 682 897 l 572 789 b 410 833 524 817 467 833 b 246 789 351 833 294 817 l 136 897 l 35 794 l 131 696 b 78 518 96 649 78 589 b 132 342 78 449 96 390 l 35 243 z m 410 350 b 260 518 326 350 260 417 b 410 689 260 621 326 689 b 560 518 493 689 560 621 b 410 350 560 417 493 350 z "},"§":{"ha":0,"x_min":0,"x_max":0,"o":"m 979 1036 b 732 1089 913 1069 828 1089 b 400 847 539 1089 400 997 b 461 707 400 792 428 735 b 340 517 379 660 340 582 b 643 253 340 369 469 306 b 826 122 778 211 826 178 b 669 22 826 61 765 22 b 431 89 567 22 476 61 l 388 -40 b 671 -110 464 -92 571 -110 b 1010 142 829 -110 1010 -35 b 944 286 1010 210 974 263 b 1047 481 1006 331 1047 399 b 757 747 1047 632 928 697 b 576 868 642 781 576 810 b 726 957 576 917 631 957 b 943 907 825 957 897 932 z m 558 647 b 888 449 668 592 888 564 b 839 354 888 411 869 374 b 653 424 807 371 740 393 b 500 553 535 463 500 503 b 558 647 500 590 522 624 z "},"¨":{"ha":175,"x_min":0,"x_max":0,"o":"m 268 904 b 372 1007 329 904 372 950 b 268 1111 372 1065 329 1111 b 165 1007 208 1111 165 1065 b 268 904 165 950 208 904 z m 601 904 b 704 1007 661 904 704 950 b 601 1111 704 1065 661 1111 b 497 1007 540 1111 497 1065 b 601 904 497 950 540 904 z "},"ª":{"ha":-135,"x_min":0,"x_max":0,"o":"m 207 588 b 358 654 268 588 318 615 l 364 654 l 378 600 l 494 600 l 494 900 b 292 1128 494 1051 422 1128 b 67 1060 210 1128 132 1099 l 119 964 b 267 1013 168 992 219 1013 b 349 931 324 1013 346 982 b 50 742 139 910 50 853 b 207 588 50 654 111 588 z m 256 699 b 189 754 213 699 189 717 b 349 844 189 796 228 832 l 349 744 b 256 699 317 715 289 699 z "},"­":{"ha":124,"x_min":0,"x_max":0,"o":"m 53 447 l 765 447 l 765 592 l 53 592 z "},"®":{"ha":17,"x_min":0,"x_max":0,"o":"m 356 494 b 663 810 525 494 663 625 b 356 1126 663 994 525 1126 b 47 810 186 1126 47 994 b 356 494 47 625 186 494 z m 356 565 b 126 810 222 565 126 663 b 356 1054 126 957 222 1054 b 583 810 488 1054 583 957 b 356 565 583 663 488 565 z m 231 656 l 315 656 l 315 756 l 365 756 l 415 656 l 503 656 l 436 779 b 492 867 472 796 492 829 b 367 968 492 938 436 968 l 231 968 z m 315 814 l 315 904 l 350 904 b 403 860 388 904 403 886 b 349 814 403 833 385 814 z "},"±":{"ha":0,"x_min":0,"x_max":0,"o":"m 1188 776 l 765 776 l 765 1128 l 624 1128 l 624 776 l 201 776 l 201 636 l 624 636 l 624 285 l 765 285 l 765 636 l 1188 636 z m 201 154 l 201 13 l 1199 13 l 1199 154 z "},"²":{"ha":-106,"x_min":0,"x_max":0,"o":"m 74 600 l 521 600 l 521 726 l 315 726 b 496 1028 414 833 496 924 b 275 1232 496 1160 407 1232 b 47 1108 183 1232 107 1189 l 135 1031 b 251 1108 169 1076 207 1108 b 349 1003 313 1108 349 1068 b 74 682 349 921 240 824 z "},"³":{"ha":-106,"x_min":0,"x_max":0,"o":"m 290 581 b 524 769 415 581 524 656 b 406 919 524 844 471 896 b 500 1064 464 951 500 996 b 290 1232 500 1168 403 1232 b 72 1129 197 1232 135 1197 l 158 1051 b 265 1117 188 1089 225 1117 b 351 1043 318 1117 351 1089 b 215 957 351 988 300 957 l 215 869 b 374 781 321 869 374 839 b 276 696 374 728 331 696 b 140 776 221 696 176 722 l 47 704 b 290 581 99 626 186 581 z "},"´":{"ha":175,"x_min":0,"x_max":0,"o":"m 440 903 l 715 1147 l 576 1283 l 339 1001 z "},"¶":{"ha":0,"x_min":0,"x_max":0,"o":"m 614 -78 l 744 -78 l 744 946 l 857 946 l 857 -78 l 988 -78 l 988 1060 b 779 1075 942 1069 874 1075 b 328 715 417 1075 325 885 b 604 417 332 506 508 417 l 614 417 z "},"·":{"ha":128,"x_min":0,"x_max":0,"o":"m 408 383 b 535 515 481 383 535 442 b 408 650 535 592 481 650 b 281 515 336 650 281 592 b 408 383 281 442 336 383 z "},"¸":{"ha":175,"x_min":0,"x_max":0,"o":"m 285 -372 b 582 -212 474 -364 582 -317 b 464 -97 582 -147 540 -115 l 508 6 l 386 6 l 313 -144 b 433 -214 407 -158 433 -181 b 269 -286 433 -260 394 -279 z "},"¹":{"ha":-106,"x_min":0,"x_max":0,"o":"m 263 600 l 415 600 l 415 1214 l 294 1214 b 125 1147 244 1179 206 1160 l 125 1054 l 263 1054 z "},"º":{"ha":-111,"x_min":0,"x_max":0,"o":"m 292 588 b 543 857 424 588 543 688 b 292 1128 543 1028 424 1128 b 40 857 158 1128 40 1028 b 292 588 40 688 158 588 z m 292 703 b 189 857 222 703 189 765 b 292 1013 189 950 222 1013 b 394 857 360 1013 394 950 b 292 703 394 765 360 703 z "},"¼":{"ha":568,"x_min":0,"x_max":0,"o":"m 369 414 l 369 1028 l 250 1028 b 81 963 200 994 161 975 l 81 868 l 218 868 l 218 414 z m 849 1047 l 290 -19 l 413 -19 l 971 1047 z m 875 244 l 949 379 l 1015 503 l 1022 503 l 1014 322 l 1014 244 z m 1239 244 l 1147 244 l 1147 614 l 964 614 l 732 219 l 732 144 l 1014 144 l 1014 0 l 1147 0 l 1147 144 l 1239 144 z "},"½":{"ha":622,"x_min":0,"x_max":0,"o":"m 218 414 l 369 414 l 369 1028 l 250 1028 b 81 963 200 994 161 975 l 81 868 l 218 868 z m 264 -19 l 385 -19 l 943 1047 l 822 1047 z m 800 0 l 1247 0 l 1247 128 l 1042 128 b 1222 428 1140 233 1222 324 b 1001 633 1222 560 1133 633 b 775 508 911 633 833 589 l 861 429 b 979 508 896 478 935 508 b 1076 403 1039 508 1076 469 b 800 82 1076 322 967 224 z "},"¾":{"ha":585,"x_min":0,"x_max":0,"o":"m 154 867 b 261 932 183 904 219 932 b 347 857 313 932 347 903 b 211 772 347 803 296 772 l 211 683 b 371 594 317 683 371 653 b 271 511 371 542 326 511 b 135 592 217 511 174 538 l 42 518 b 286 396 93 440 181 396 b 518 583 411 396 518 471 b 401 735 518 658 467 710 b 496 879 460 767 496 811 b 286 1047 496 983 399 1047 b 67 943 193 1047 129 1013 z m 892 1047 l 332 -19 l 453 -19 l 1011 1047 z m 889 244 l 964 379 l 1032 503 l 1039 503 l 1029 322 l 1029 244 z m 1256 244 l 1164 244 l 1164 614 l 979 614 l 749 219 l 749 144 l 1029 144 l 1029 0 l 1164 0 l 1164 144 l 1256 144 z "},"¿":{"ha":19,"x_min":0,"x_max":0,"o":"m 358 -297 b 650 -157 479 -297 576 -240 l 536 -54 b 383 -132 492 -100 444 -132 b 265 -18 310 -132 265 -87 b 468 426 265 114 500 204 l 289 426 b 68 -32 310 232 68 165 b 358 -297 68 -210 192 -297 z m 378 531 b 506 664 450 531 506 588 b 378 797 506 739 450 797 b 251 664 306 797 251 739 b 378 531 251 588 306 531 z "},"Å":{"ha":196,"x_min":0,"x_max":0,"o":"m 440 1325 b 510 1251 478 1325 510 1296 b 440 1178 510 1204 478 1178 b 369 1251 401 1178 369 1204 b 440 1325 369 1296 401 1325 z m 440 1099 b 613 1251 542 1099 613 1158 b 440 1403 613 1343 542 1403 b 268 1251 339 1403 268 1343 b 440 1099 268 1158 339 1099 z m 319 424 l 350 536 b 438 872 381 643 411 760 l 443 872 b 533 536 474 761 501 643 l 564 424 z m 681 0 l 896 0 l 565 1028 l 324 1028 l -6 0 l 203 0 l 275 264 l 608 264 z "},"×":{"ha":0,"x_min":0,"x_max":0,"o":"m 1153 171 l 796 528 l 1153 885 l 1053 985 l 696 628 l 339 985 l 239 885 l 596 528 l 239 171 l 339 71 l 696 428 l 1053 71 z "},"÷":{"ha":0,"x_min":0,"x_max":0,"o":"m 574 876 b 694 756 574 810 628 756 b 815 876 761 756 815 810 b 694 997 815 942 761 997 b 574 876 628 997 574 942 z m 201 597 l 201 456 l 1188 456 l 1188 597 z m 574 176 b 694 56 574 111 628 56 b 815 176 761 56 815 111 b 694 297 815 243 761 297 b 574 176 628 297 574 243 z "},"ˇ":{"ha":0,"x_min":0,"x_max":0,"o":"m 1103 772 l 696 174 l 286 774 l 496 774 l 694 460 l 883 772 z "},"˙":{"ha":0,"x_min":0,"x_max":0,"o":"m 694 390 b 553 529 613 390 553 456 b 694 676 551 607 607 676 b 833 529 782 676 833 608 b 694 389 833 454 782 390 z "},"Ω":{"ha":413,"x_min":0,"x_max":0,"o":"m 71 0 l 476 0 l 476 149 b 303 542 367 244 303 365 b 553 871 303 733 397 871 b 803 542 710 871 803 733 b 631 149 803 365 740 244 l 631 0 l 1036 0 l 1036 165 l 854 165 l 854 171 b 1014 561 928 246 1014 381 b 553 1047 1014 847 829 1047 b 93 561 276 1047 93 847 b 253 171 93 381 179 246 l 253 165 l 71 165 z "},"―":{"ha":0,"x_min":0,"x_max":0,"o":"m 103 560 l 103 496 l 1286 496 l 1286 560 z "},"‘":{"ha":-243,"x_min":0,"x_max":0,"o":"m 296 1082 b 88 760 157 1010 88 903 b 222 572 88 642 133 572 b 333 689 286 572 333 617 b 222 796 333 756 282 796 b 207 794 217 796 213 796 b 343 992 208 885 254 943 z "},"’":{"ha":-243,"x_min":0,"x_max":0,"o":"m 154 589 b 364 910 294 660 364 767 b 229 1099 364 1029 317 1099 b 118 982 164 1099 118 1053 b 229 875 118 915 169 875 b 243 876 233 875 239 875 b 108 678 242 785 197 728 z "},"“":{"ha":104,"x_min":0,"x_max":0,"o":"m 296 1082 b 88 760 157 1010 88 903 b 222 572 88 642 133 572 b 333 689 286 572 333 617 b 222 796 333 756 282 796 b 207 794 217 796 213 796 b 343 992 208 885 254 943 z m 643 1082 b 435 760 504 1010 435 903 b 569 572 435 642 481 572 b 681 689 633 572 681 617 b 569 796 681 756 629 796 b 554 794 564 796 560 796 b 690 992 556 885 601 943 z "},"”":{"ha":104,"x_min":0,"x_max":0,"o":"m 154 589 b 364 910 294 660 364 767 b 229 1099 364 1029 317 1099 b 118 982 164 1099 118 1053 b 229 875 118 915 169 875 b 243 876 233 875 239 875 b 108 678 242 785 197 728 z m 501 589 b 711 910 642 660 711 767 b 576 1099 711 1029 664 1099 b 465 982 511 1099 465 1053 b 576 875 465 915 517 875 b 590 876 581 875 586 875 b 456 678 589 785 544 728 z "},"†":{"ha":0,"x_min":0,"x_max":0,"o":"m 788 1072 l 601 1072 l 617 749 l 350 763 l 350 600 l 617 614 l 601 -79 l 788 -79 l 772 614 l 1039 600 l 1039 763 l 772 749 z "},"‡":{"ha":0,"x_min":0,"x_max":0,"o":"m 788 1072 l 601 1072 l 617 771 l 350 783 l 350 621 l 617 635 l 617 363 l 350 376 l 350 214 l 617 228 l 601 -79 l 788 -79 l 772 228 l 1039 214 l 1039 376 l 774 363 l 772 635 l 1039 621 l 1039 783 l 772 771 z "},"‥":{"ha":0,"x_min":0,"x_max":0,"o":"m 235 528 b 347 415 235 465 285 415 b 460 528 410 415 460 465 b 347 640 460 590 410 640 b 235 528 285 640 235 590 z m 929 528 b 1042 415 929 465 979 415 b 1154 528 1104 415 1154 465 b 1042 640 1154 590 1104 640 b 929 528 979 640 929 590 z "},"…":{"ha":0,"x_min":0,"x_max":0,"o":"m 119 528 b 232 415 119 465 169 415 b 344 528 294 415 344 465 b 232 640 344 590 294 640 b 119 528 169 640 119 590 z m 582 528 b 694 415 582 465 632 415 b 807 528 757 415 807 465 b 694 640 807 590 757 640 b 582 528 632 640 582 590 z m 1044 528 b 1157 415 1044 465 1094 415 b 1269 528 1219 415 1269 465 b 1157 640 1269 590 1219 640 b 1044 528 1094 640 1044 590 z "},"‰":{"ha":0,"x_min":0,"x_max":0,"o":"m 161 -19 l 254 -19 l 799 1049 l 706 1049 z m 42 728 b 226 417 42 575 93 417 b 404 732 317 417 404 513 b 228 1046 404 878 363 1046 b 42 728 108 1047 42 900 z m 289 728 b 225 511 289 603 278 511 b 157 732 172 511 157 596 b 222 951 157 861 176 951 b 289 728 278 953 289 851 z m 557 303 b 742 -8 557 151 608 -8 b 919 307 832 -8 919 89 b 743 621 919 453 878 621 b 557 303 624 622 557 476 z m 985 303 b 1169 -8 985 151 1036 -8 b 1347 307 1260 -8 1347 89 b 1171 621 1347 453 1306 621 b 985 303 1051 622 985 476 z m 804 304 b 740 86 804 178 793 86 b 672 307 688 86 672 172 b 738 526 672 438 692 526 b 804 304 793 528 804 428 z m 1232 304 b 1168 86 1232 178 1221 86 b 1100 307 1114 86 1100 174 b 1165 526 1100 438 1118 526 b 1232 304 1221 528 1232 426 z "},"′":{"ha":-243,"x_min":0,"x_max":0,"o":"m 129 639 l 263 638 l 331 899 l 364 1082 l 161 1083 z "},"″":{"ha":104,"x_min":0,"x_max":0,"o":"m 129 639 l 263 638 l 331 899 l 364 1082 l 161 1083 z m 476 639 l 610 638 l 678 899 l 711 1082 l 507 1083 z "},"※":{"ha":0,"x_min":0,"x_max":0,"o":"m 799 924 b 694 1028 799 981 751 1028 b 590 924 638 1028 590 981 b 694 819 590 867 638 819 b 799 924 751 819 799 867 z m 236 1026 l 196 986 l 654 528 l 194 68 l 235 28 l 694 488 l 1153 29 l 1193 69 l 735 528 l 1193 986 l 1153 1026 l 694 568 z m 299 632 b 194 528 242 632 194 585 b 299 424 194 471 242 424 b 403 528 356 424 403 471 b 299 632 403 585 356 632 z m 1090 424 b 1194 528 1147 424 1194 471 b 1090 632 1194 585 1147 632 b 986 528 1033 632 986 585 b 1090 424 986 471 1033 424 z m 590 132 b 694 28 590 75 638 28 b 799 132 751 28 799 75 b 694 236 799 189 751 236 b 590 132 638 236 590 189 z "},"€":{"ha":124,"x_min":0,"x_max":0,"o":"m 692 232 b 535 140 649 174 600 140 b 342 347 436 140 369 215 l 629 347 l 629 454 l 328 454 b 326 503 326 469 326 486 b 326 539 326 515 326 528 l 693 539 l 693 646 l 339 646 b 535 861 365 782 432 861 b 678 786 593 861 638 832 l 792 897 b 542 1021 728 974 636 1021 b 133 644 333 1021 178 883 l 33 638 l 33 539 l 122 539 b 121 496 121 525 121 511 b 122 451 121 481 121 467 l 33 444 l 33 347 l 133 347 b 524 -19 176 110 328 -19 b 806 126 638 -19 732 33 z "},"℃":{"ha":0,"x_min":0,"x_max":0,"o":"m 260 642 b 479 863 381 642 479 733 b 260 1083 479 992 381 1083 b 39 863 138 1083 39 992 b 260 642 39 733 138 642 z m 260 743 b 150 863 194 743 150 792 b 260 982 150 932 194 982 b 369 863 325 982 369 932 b 260 743 369 792 325 743 z m 1035 -19 b 1358 132 1164 -19 1274 32 l 1243 257 b 1038 160 1189 199 1126 160 b 769 518 875 160 769 294 b 1043 871 769 738 885 871 b 1226 790 1119 871 1175 842 l 1340 918 b 1040 1050 1274 988 1168 1050 b 558 510 775 1050 558 851 b 1035 -19 558 167 768 -19 z "},"℉":{"ha":0,"x_min":0,"x_max":0,"o":"m 288 642 b 507 863 408 642 507 733 b 288 1083 507 992 408 1083 b 67 863 165 1083 67 992 b 288 642 67 733 165 642 z m 288 743 b 178 863 222 743 178 792 b 288 982 178 932 222 982 b 397 863 353 982 397 932 b 288 743 397 792 353 743 z m 694 0 l 900 0 l 900 418 l 1267 418 l 1267 590 l 900 590 l 900 858 l 1331 858 l 1331 1032 l 694 1032 z "},"ℓ":{"ha":21,"x_min":0,"x_max":0,"o":"m 368 786 b 454 979 368 925 408 979 b 522 868 493 979 522 944 b 368 549 522 747 469 647 z m 642 219 b 496 150 604 188 557 150 b 368 311 425 150 368 196 l 368 354 b 689 868 588 521 689 674 b 447 1128 689 1032 592 1128 b 169 756 288 1128 169 1015 l 169 394 b 21 300 124 364 75 332 l 97 175 b 175 222 124 192 150 207 b 464 -19 201 63 324 -19 b 718 96 568 -19 651 39 z "},"№":{"ha":797,"x_min":0,"x_max":0,"o":"m 151 -19 b 319 174 269 -19 319 47 l 319 353 b 290 778 319 468 311 585 l 297 778 l 353 643 b 608 0 433 426 521 214 l 832 0 l 832 788 b 893 856 832 842 849 856 l 878 1013 b 818 1021 857 1019 849 1021 b 650 828 701 1021 650 954 l 650 649 b 679 224 650 533 658 418 l 672 224 l 617 360 b 361 1001 536 575 449 789 l 138 1001 l 138 214 b 78 147 138 160 121 147 l 93 -11 b 151 -19 113 -17 121 -19 z m 1211 426 b 1467 686 1349 426 1467 521 b 1211 949 1467 854 1349 949 b 956 686 1075 949 956 854 b 1211 426 956 521 1075 426 z m 1211 553 b 1115 686 1153 553 1115 597 b 1211 822 1115 778 1153 822 b 1307 686 1271 822 1307 778 b 1211 553 1307 597 1271 553 z m 1006 211 l 1417 211 l 1417 322 l 1006 322 z "},"℡":{"ha":0,"x_min":0,"x_max":0,"o":"m 178 0 l 340 0 l 340 882 l 483 882 l 483 1032 l 35 1032 l 35 882 l 178 882 z m 544 0 l 922 0 l 922 138 l 707 138 l 707 361 l 854 361 l 854 489 l 707 489 l 707 692 l 907 692 l 907 829 l 544 829 z m 1003 0 l 1361 0 l 1361 146 l 1165 146 l 1165 829 l 1003 829 z "},"™":{"ha":361,"x_min":0,"x_max":0,"o":"m 147 572 l 283 572 l 283 942 l 426 942 l 426 1065 l 6 1065 l 6 942 l 147 942 z m 496 572 l 621 572 l 621 740 l 604 918 l 611 918 l 707 646 l 804 646 l 901 918 l 907 918 l 892 740 l 892 572 l 1017 572 l 1017 1065 l 860 1065 l 797 903 l 760 792 l 753 792 l 715 903 l 650 1065 l 496 1065 z "},"Ⅰ":{"ha":0,"x_min":0,"x_max":0,"o":"m 590 0 l 799 0 l 799 1032 l 590 1032 z "},"Ⅱ":{"ha":0,"x_min":0,"x_max":0,"o":"m 361 0 l 568 0 l 568 1032 l 361 1032 z m 821 0 l 1028 0 l 1028 1032 l 821 1032 z "},"Ⅲ":{"ha":0,"x_min":0,"x_max":0,"o":"m 131 0 l 339 0 l 339 1032 l 131 1032 z m 590 0 l 799 0 l 799 1032 l 590 1032 z m 1051 0 l 1258 0 l 1258 1032 l 1051 1032 z "},"Ⅳ":{"ha":0,"x_min":0,"x_max":0,"o":"m 160 0 l 368 0 l 368 1032 l 160 1032 z m 801 0 l 1047 0 l 1363 1032 l 1153 1032 l 1019 531 b 932 197 988 415 965 314 l 925 197 b 839 531 892 314 871 415 l 703 1032 l 485 1032 z "},"Ⅴ":{"ha":0,"x_min":0,"x_max":0,"o":"m 571 0 l 818 0 l 1133 1032 l 924 1032 l 790 531 b 703 197 758 415 736 314 l 696 197 b 610 531 663 314 640 415 l 474 1032 l 256 1032 z "},"Ⅵ":{"ha":0,"x_min":0,"x_max":0,"o":"m 340 0 l 588 0 l 903 1032 l 693 1032 l 560 531 b 472 197 528 415 506 314 l 465 197 b 379 531 432 314 410 415 l 243 1032 l 25 1032 z m 1021 0 l 1228 0 l 1228 1032 l 1021 1032 z "},"Ⅶ":{"ha":0,"x_min":0,"x_max":0,"o":"m 244 0 l 511 0 l 736 1032 l 526 1032 l 446 531 b 386 197 428 414 411 314 l 379 197 b 318 531 354 314 338 414 l 236 1032 l 19 1032 z m 792 0 l 1000 0 l 1000 1032 l 792 1032 z m 1124 0 l 1332 0 l 1332 1032 l 1124 1032 z "},"Ⅷ":{"ha":0,"x_min":0,"x_max":0,"o":"m 207 0 l 406 0 l 585 1032 l 418 1032 l 356 531 b 310 197 342 415 326 314 l 303 197 b 257 531 286 314 274 415 l 193 1032 l 17 1032 z m 651 0 l 817 0 l 817 1032 l 651 1032 z m 904 0 l 1071 0 l 1071 1032 l 904 1032 z m 1158 0 l 1324 0 l 1324 1032 l 1158 1032 z "},"Ⅸ":{"ha":0,"x_min":0,"x_max":0,"o":"m 154 0 l 361 0 l 361 1032 l 154 1032 z m 508 0 l 728 0 l 838 229 b 913 396 861 281 885 333 l 918 396 b 996 229 946 333 971 281 l 1113 0 l 1342 0 l 1053 522 l 1324 1032 l 1104 1032 l 1007 818 b 940 657 986 769 965 721 l 933 657 b 857 818 903 721 881 769 l 754 1032 l 524 1032 l 796 532 z "},"ⅰ":{"ha":0,"x_min":0,"x_max":0,"o":"m 592 0 l 799 0 l 799 779 l 592 779 z m 694 906 b 818 1017 765 906 818 953 b 694 1129 818 1083 765 1129 b 572 1017 624 1129 572 1083 b 694 906 572 953 624 906 z "},"ⅱ":{"ha":0,"x_min":0,"x_max":0,"o":"m 381 0 l 586 0 l 586 779 l 381 779 z m 483 906 b 606 1017 554 906 606 953 b 483 1129 606 1083 554 1129 b 361 1017 413 1129 361 1083 b 483 906 361 953 413 906 z m 804 0 l 1010 0 l 1010 779 l 804 779 z m 907 906 b 1029 1017 978 906 1029 953 b 907 1129 1029 1083 978 1129 b 785 1017 836 1129 785 1083 b 907 906 785 953 836 906 z "},"ⅲ":{"ha":0,"x_min":0,"x_max":0,"o":"m 168 0 l 374 0 l 374 779 l 168 779 z m 271 906 b 393 1017 342 906 393 953 b 271 1129 393 1083 342 1129 b 149 1017 200 1129 149 1083 b 271 906 149 953 200 906 z m 592 0 l 799 0 l 799 779 l 592 779 z m 694 906 b 818 1017 765 906 818 953 b 694 1129 818 1083 765 1129 b 572 1017 624 1129 572 1083 b 694 906 572 953 624 906 z m 1015 0 l 1222 0 l 1222 779 l 1015 779 z m 1119 906 b 1242 1017 1190 906 1242 953 b 1119 1129 1242 1083 1190 1129 b 996 1017 1047 1129 996 1083 b 1119 906 996 953 1047 906 z "},"ⅳ":{"ha":0,"x_min":0,"x_max":0,"o":"m 190 0 l 397 0 l 397 779 l 190 779 z m 294 906 b 417 1017 365 906 417 953 b 294 1129 417 1083 365 1129 b 172 1017 224 1129 172 1083 b 294 906 172 953 224 906 z m 792 0 l 1031 0 l 1289 779 l 1090 779 l 978 392 b 914 156 958 315 935 235 l 908 156 b 846 392 888 235 865 315 l 732 779 l 525 779 z "},"ⅴ":{"ha":0,"x_min":0,"x_max":0,"o":"m 581 0 l 818 0 l 1078 779 l 879 779 l 767 392 b 703 156 746 315 724 235 l 697 156 b 633 392 675 235 654 315 l 519 779 l 313 779 z "},"ⅵ":{"ha":0,"x_min":0,"x_max":0,"o":"m 368 0 l 606 0 l 865 779 l 667 779 l 554 392 b 490 156 533 315 511 235 l 485 156 b 421 392 464 235 442 315 l 307 779 l 101 779 z m 993 0 l 1199 0 l 1199 779 l 993 779 z m 1096 906 b 1218 1017 1167 906 1218 953 b 1096 1129 1218 1083 1167 1129 b 974 1017 1025 1129 974 1083 b 1096 906 974 953 1025 906 z "},"ⅶ":{"ha":0,"x_min":0,"x_max":0,"o":"m 239 0 l 478 0 l 694 779 l 497 779 l 413 392 b 361 156 399 314 381 235 l 356 156 b 303 392 338 235 318 314 l 221 779 l 14 779 z m 760 0 l 967 0 l 967 779 l 760 779 z m 863 906 b 986 1017 933 906 986 953 b 863 1129 986 1083 933 1129 b 740 1017 792 1129 740 1083 b 863 906 740 953 792 906 z m 1100 0 l 1307 0 l 1307 779 l 1100 779 z m 1204 906 b 1326 1017 1275 906 1326 953 b 1204 1129 1326 1083 1275 1129 b 1082 1017 1132 1129 1082 1083 b 1204 906 1082 953 1132 906 z "},"ⅷ":{"ha":0,"x_min":0,"x_max":0,"o":"m 204 0 l 404 0 l 579 779 l 401 779 l 343 392 b 307 156 329 314 321 235 l 301 156 b 264 392 289 235 279 314 l 207 779 l 21 779 z m 644 0 l 810 0 l 810 779 l 644 779 z m 726 906 b 829 1017 786 906 829 953 b 726 1129 829 1083 786 1129 b 625 1017 668 1129 625 1083 b 726 906 625 953 668 906 z m 904 0 l 1068 0 l 1068 779 l 904 779 z m 986 906 b 1088 1017 1046 906 1088 953 b 986 1129 1088 1083 1046 1129 b 885 1017 928 1129 885 1083 b 986 906 885 953 928 906 z m 1164 0 l 1328 0 l 1328 779 l 1164 779 z m 1246 906 b 1347 1017 1304 906 1347 953 b 1246 1129 1347 1083 1304 1129 b 1144 1017 1188 1129 1144 1083 b 1246 906 1144 953 1188 906 z "},"ⅸ":{"ha":0,"x_min":0,"x_max":0,"o":"m 200 0 l 406 0 l 406 779 l 200 779 z m 303 906 b 425 1017 374 906 425 953 b 303 1129 425 1083 374 1129 b 181 1017 232 1129 181 1083 b 303 906 181 953 232 906 z m 536 0 l 749 0 l 822 143 b 888 279 843 189 865 235 l 894 279 b 968 143 919 235 944 188 l 1056 0 l 1276 0 l 1033 383 l 1261 779 l 1049 779 l 983 642 b 926 510 965 600 946 553 l 921 510 b 850 642 897 553 874 600 l 772 779 l 553 779 l 781 406 z "},"ⅹ":{"ha":0,"x_min":0,"x_max":0,"o":"m 325 0 l 538 0 l 610 143 b 675 279 632 189 653 235 l 682 279 b 757 143 708 235 732 188 l 843 0 l 1064 0 l 822 383 l 1050 779 l 836 779 l 772 642 b 714 510 754 600 733 553 l 708 510 b 639 642 685 553 663 600 l 561 779 l 340 779 l 569 406 z "},"←":{"ha":0,"x_min":0,"x_max":0,"o":"m 1333 457 l 1333 599 l 351 599 b 536 789 411 642 485 718 l 411 858 b 49 528 315 736 174 610 b 411 197 174 446 315 319 l 536 267 b 351 457 485 338 411 414 z "},"↑":{"ha":0,"x_min":0,"x_max":0,"o":"m 624 -111 l 765 -111 l 765 871 b 956 686 808 811 885 738 l 1025 811 b 694 1174 903 907 776 1049 b 364 811 613 1049 486 907 l 433 686 b 624 871 504 738 581 811 z "},"→":{"ha":0,"x_min":0,"x_max":0,"o":"m 56 457 l 1038 457 b 853 267 978 414 904 338 l 978 197 b 1340 528 1074 319 1215 446 b 978 858 1215 610 1074 736 l 853 789 b 1038 599 904 718 978 642 l 56 599 z "},"↓":{"ha":0,"x_min":0,"x_max":0,"o":"m 765 1167 l 624 1167 l 624 185 b 433 369 581 244 504 318 l 364 244 b 694 -118 486 149 613 7 b 1025 244 776 7 903 149 l 956 369 b 765 185 885 318 808 244 z "},"↔":{"ha":0,"x_min":0,"x_max":0,"o":"m 1038 457 b 853 267 978 414 904 338 l 978 197 b 1340 528 1074 319 1215 446 b 978 858 1215 610 1074 736 l 853 789 b 1038 599 904 718 978 642 l 351 599 b 536 789 411 642 485 718 l 411 858 b 49 528 315 736 174 610 b 411 197 174 446 315 319 l 536 267 b 351 457 485 338 411 414 z "},"↕":{"ha":0,"x_min":0,"x_max":0,"o":"m 765 871 b 956 686 808 811 885 738 l 1025 811 b 694 1174 903 907 776 1049 b 364 811 613 1049 486 907 l 433 686 b 624 871 504 738 581 811 l 624 185 b 433 369 581 244 504 318 l 364 244 b 694 -118 486 149 613 7 b 1025 244 776 7 903 149 l 956 369 b 765 185 885 318 808 244 z "},"↖":{"ha":0,"x_min":0,"x_max":0,"o":"m 1097 26 l 1196 125 l 503 819 b 767 825 574 808 681 811 l 728 963 b 238 985 574 943 385 954 b 260 494 268 838 279 649 l 397 456 b 403 719 411 542 414 649 z "},"↗":{"ha":0,"x_min":0,"x_max":0,"o":"m 193 125 l 292 26 l 986 719 b 992 456 975 649 978 542 l 1129 494 b 1151 985 1110 649 1121 838 b 661 963 1004 954 815 943 l 622 825 b 886 819 708 811 815 808 z "},"↘":{"ha":0,"x_min":0,"x_max":0,"o":"m 292 1029 l 193 931 l 886 236 b 622 231 815 247 708 244 l 661 93 b 1151 71 815 113 1004 101 b 1129 561 1121 218 1110 407 l 992 600 b 986 336 978 514 975 407 z "},"↙":{"ha":0,"x_min":0,"x_max":0,"o":"m 1196 931 l 1097 1029 l 403 336 b 397 600 414 407 411 514 l 260 561 b 238 71 279 407 268 218 b 728 93 385 101 574 113 l 767 231 b 503 236 681 244 574 247 z "},"⇒":{"ha":0,"x_min":0,"x_max":0,"o":"m 994 404 l 56 404 l 56 264 l 874 264 b 769 115 833 215 796 161 l 890 46 b 1358 526 1003 231 1192 419 b 890 1007 1192 633 1003 822 l 769 938 b 874 789 796 892 833 838 l 56 789 l 56 649 l 994 649 b 1128 526 1040 599 1086 557 b 994 404 1086 496 1040 454 z "},"⇔":{"ha":0,"x_min":0,"x_max":0,"o":"m 436 1007 b 31 526 338 822 175 633 b 436 46 175 419 338 231 l 558 115 b 464 264 535 161 501 215 l 925 264 b 831 115 888 215 854 161 l 953 46 b 1358 526 1051 231 1214 419 b 953 1007 1214 633 1051 822 l 831 938 b 925 789 854 892 888 838 l 464 789 b 558 938 501 838 535 892 z m 1031 649 b 1149 526 1071 599 1111 557 b 1031 404 1111 496 1071 454 l 358 404 b 240 526 318 454 278 496 b 358 649 278 557 318 599 z "},"∀":{"ha":0,"x_min":0,"x_max":0,"o":"m 1111 1072 l 943 750 l 446 750 l 278 1072 l 153 1007 l 692 -22 l 697 -22 l 1236 1007 z m 519 608 l 869 608 l 697 276 l 692 276 z "},"∂":{"ha":0,"x_min":0,"x_max":0,"o":"m 953 663 b 939 533 953 625 949 579 l 936 533 b 639 686 867 631 769 686 b 271 315 454 686 271 538 b 615 -15 271 128 389 -15 b 1126 657 978 -15 1126 383 b 758 1068 1126 925 958 1068 b 417 940 624 1068 519 1025 l 517 821 b 736 924 564 871 640 924 b 953 663 869 924 953 828 z m 439 325 b 654 546 439 465 549 546 b 879 361 750 546 844 486 b 618 139 835 229 751 139 b 439 325 515 139 439 210 z "},"∃":{"ha":0,"x_min":0,"x_max":0,"o":"m 263 1038 l 263 897 l 981 897 l 981 599 l 263 599 l 263 457 l 981 457 l 981 156 l 263 156 l 263 15 l 1122 15 l 1122 1038 z "},"∇":{"ha":0,"x_min":0,"x_max":0,"o":"m 568 -18 l 821 -18 l 1194 886 l 1194 1010 l 194 1010 l 194 886 z m 808 456 l 693 143 l 686 143 l 571 456 l 422 838 l 961 838 z "},"∈":{"ha":0,"x_min":0,"x_max":0,"o":"m 1210 832 l 1210 972 l 631 972 b 168 526 371 972 168 781 b 631 81 168 272 371 81 l 1210 81 l 1210 221 l 631 221 b 319 456 475 221 350 318 l 1210 456 l 1210 597 l 319 597 b 631 832 350 735 475 832 z "},"∋":{"ha":0,"x_min":0,"x_max":0,"o":"m 758 832 b 1069 597 914 832 1039 735 l 179 597 l 179 456 l 1069 456 b 758 221 1039 318 914 221 l 179 221 l 179 81 l 758 81 b 1221 526 1018 81 1221 272 b 758 972 1221 781 1018 972 l 179 972 l 179 832 z "},"∏":{"ha":0,"x_min":0,"x_max":0,"o":"m 256 -189 l 461 -189 l 461 824 l 928 824 l 928 -189 l 1135 -189 l 1135 1001 l 256 1001 z "},"∑":{"ha":0,"x_min":0,"x_max":0,"o":"m 543 172 l 842 517 l 564 850 l 564 854 l 1071 854 l 1071 1019 l 293 1019 l 293 897 l 621 510 l 276 113 l 276 0 l 1113 0 l 1113 167 l 543 167 z "},"√":{"ha":0,"x_min":0,"x_max":0,"o":"m 768 1222 l 375 93 l 240 438 l 39 156 l 78 126 l 172 258 l 324 -128 l 368 -128 l 815 1157 l 1389 1157 l 1389 1222 z "},"∝":{"ha":0,"x_min":0,"x_max":0,"o":"m 788 526 b 1061 676 858 611 942 676 b 1139 664 1089 676 1115 672 l 1192 794 b 1058 818 1151 810 1107 818 b 694 635 899 818 786 736 b 331 818 604 736 490 818 b 39 526 193 818 39 719 b 331 236 39 333 193 236 b 694 418 490 236 604 317 b 1058 236 786 317 899 236 b 1192 258 1107 236 1151 243 l 1139 389 b 1061 376 1115 381 1089 376 b 788 526 942 376 858 442 z m 181 526 b 328 676 181 618 246 676 b 603 526 447 676 531 611 b 328 376 531 442 447 376 b 181 526 246 376 181 435 z "},"∞":{"ha":0,"x_min":0,"x_max":0,"o":"m 694 635 b 331 818 604 736 490 818 b 39 526 193 818 39 719 b 331 236 39 333 193 236 b 694 418 490 236 604 317 b 1058 236 786 317 899 236 b 1349 526 1196 236 1349 333 b 1058 818 1349 719 1196 818 b 694 635 899 818 786 736 z m 181 526 b 328 676 181 618 246 676 b 603 526 447 676 531 611 b 328 376 531 442 447 376 b 181 526 246 376 181 435 z m 788 526 b 1061 676 858 611 942 676 b 1208 526 1143 676 1208 618 b 1061 376 1208 435 1143 376 b 788 526 942 376 858 442 z "},"∠":{"ha":0,"x_min":0,"x_max":0,"o":"m 467 185 l 1144 861 l 1044 961 l 133 46 l 133 40 l 1232 40 l 1232 181 l 467 181 z "},"∥":{"ha":0,"x_min":0,"x_max":0,"o":"m 264 190 l 392 128 l 832 1010 l 707 1074 z m 682 -18 l 1125 864 l 997 926 l 557 46 z "},"∧":{"ha":0,"x_min":0,"x_max":0,"o":"m 153 53 l 278 -14 l 692 782 l 697 782 l 1111 -14 l 1236 53 l 697 1081 l 692 1081 z "},"∨":{"ha":0,"x_min":0,"x_max":0,"o":"m 1236 1000 l 1111 1067 l 697 271 l 692 271 l 278 1067 l 153 1000 l 692 -28 l 697 -28 z "},"∩":{"ha":0,"x_min":0,"x_max":0,"o":"m 249 590 l 249 11 l 389 11 l 389 590 b 694 913 389 772 519 913 b 1000 590 869 913 1000 772 l 1000 11 l 1140 11 l 1140 590 b 694 1053 1140 850 949 1053 b 249 590 440 1053 249 850 z "},"∪":{"ha":0,"x_min":0,"x_max":0,"o":"m 1140 463 l 1140 1042 l 1000 1042 l 1000 463 b 694 142 1000 281 869 142 b 389 463 519 142 389 281 l 389 1042 l 249 1042 l 249 463 b 694 0 249 203 440 0 b 1140 463 949 0 1140 203 z "},"∫":{"ha":0,"x_min":0,"x_max":0,"o":"m 608 261 b 496 36 608 81 571 36 b 439 42 478 36 460 38 l 424 -118 b 513 -128 451 -124 482 -128 b 781 229 644 -128 781 -61 l 781 794 b 893 1019 781 975 818 1019 b 950 1014 911 1019 929 1018 l 965 1174 b 876 1183 938 1179 907 1183 b 608 826 744 1183 608 1117 z "},"∬":{"ha":0,"x_min":0,"x_max":0,"o":"m 333 261 b 222 36 333 81 296 36 b 164 42 203 36 185 38 l 149 -118 b 238 -128 176 -124 207 -128 b 507 229 369 -128 507 -61 l 507 794 b 618 1019 507 975 543 1019 b 675 1014 636 1019 654 1018 l 690 1174 b 601 1183 663 1179 632 1183 b 333 826 469 1183 333 1117 z m 882 261 b 771 36 882 81 846 36 b 714 42 753 36 735 38 l 699 -118 b 788 -128 726 -124 757 -128 b 1056 229 919 -128 1056 -61 l 1056 794 b 1167 1019 1056 975 1093 1019 b 1225 1014 1186 1019 1204 1018 l 1240 1174 b 1151 1183 1213 1179 1182 1183 b 882 826 1019 1183 882 1117 z "},"∮":{"ha":0,"x_min":0,"x_max":0,"o":"m 608 288 l 608 244 b 496 36 607 76 568 36 b 439 42 478 36 460 38 l 424 -118 b 513 -128 451 -124 482 -128 b 781 229 644 -128 781 -61 l 781 288 b 951 528 881 321 951 417 b 781 768 951 639 881 735 l 781 811 b 893 1019 782 979 821 1019 b 950 1014 911 1019 929 1018 l 965 1174 b 876 1183 938 1179 907 1183 b 608 826 744 1183 608 1117 l 608 768 b 438 528 508 735 438 639 b 608 288 438 417 508 321 z m 608 688 l 608 368 b 510 528 550 397 510 458 b 608 688 510 597 550 658 z m 781 368 l 781 688 b 879 528 839 658 879 597 b 781 368 879 458 839 397 z "},"∴":{"ha":0,"x_min":0,"x_max":0,"o":"m 574 839 b 694 718 574 774 628 718 b 815 839 761 718 815 774 b 694 960 815 906 761 960 b 574 839 628 960 574 906 z m 235 214 b 356 93 235 147 289 93 b 476 214 421 93 476 147 b 356 335 476 279 421 335 b 235 214 289 335 235 279 z m 914 214 b 1033 93 914 147 968 93 b 1154 214 1100 93 1154 147 b 1033 335 1154 279 1100 335 b 914 214 968 335 914 279 z "},"∵":{"ha":0,"x_min":0,"x_max":0,"o":"m 235 839 b 356 718 235 774 289 718 b 476 839 421 718 476 774 b 356 960 476 906 421 960 b 235 839 289 960 235 906 z m 914 839 b 1033 718 914 774 968 718 b 1154 839 1100 718 1154 774 b 1033 960 1154 906 1100 960 b 914 839 968 960 914 906 z m 574 214 b 694 93 574 147 628 93 b 815 214 761 93 815 147 b 694 335 815 279 761 335 b 574 214 628 335 574 279 z "},"∽":{"ha":0,"x_min":0,"x_max":0,"o":"m 644 576 b 328 376 563 471 472 376 b 181 526 246 376 181 435 b 333 676 181 619 244 676 b 417 664 367 676 393 672 l 469 794 b 336 818 429 810 385 818 b 39 526 192 818 39 721 b 331 236 39 333 193 236 b 743 475 519 236 643 347 b 1061 676 826 581 917 676 b 1208 526 1143 676 1208 618 b 1056 376 1208 433 1144 376 b 972 389 1022 376 996 381 l 919 258 b 1053 236 958 243 1003 236 b 1349 526 1197 236 1349 332 b 1058 818 1349 719 1196 818 b 644 576 869 818 746 704 z "},"≒":{"ha":0,"x_min":0,"x_max":0,"o":"m 328 935 b 449 815 328 869 382 815 b 568 935 514 815 568 869 b 449 1056 568 1001 514 1056 b 328 935 382 1056 328 1001 z m 201 721 l 201 601 l 1188 601 l 1188 721 z m 201 451 l 201 332 l 1188 332 l 1188 451 z m 821 118 b 940 -3 821 51 875 -3 b 1061 118 1007 -3 1061 51 b 940 238 1061 183 1007 238 b 821 118 875 238 821 183 z "},"≠":{"ha":0,"x_min":0,"x_max":0,"o":"m 1188 615 l 1188 756 l 853 756 l 929 965 l 796 1014 l 703 756 l 201 756 l 201 615 l 651 615 l 586 436 l 201 436 l 201 294 l 536 294 l 460 88 l 593 39 l 685 294 l 1188 294 l 1188 436 l 736 436 l 801 615 z "},"≡":{"ha":0,"x_min":0,"x_max":0,"o":"m 201 896 l 201 765 l 1188 765 l 1188 896 z m 201 592 l 201 461 l 1188 461 l 1188 592 z m 201 288 l 201 157 l 1188 157 l 1188 288 z "},"≤":{"ha":0,"x_min":0,"x_max":0,"o":"m 179 118 l 179 -12 l 1210 -12 l 1210 118 z m 507 663 l 1218 949 l 1165 1081 l 133 663 l 133 658 l 1165 240 l 1218 372 l 507 658 z "},"≥":{"ha":0,"x_min":0,"x_max":0,"o":"m 179 -12 l 1210 -12 l 1210 118 l 179 118 z m 171 372 l 225 240 l 1256 658 l 1256 663 l 225 1081 l 171 949 l 882 663 l 882 658 z "},"≪":{"ha":0,"x_min":0,"x_max":0,"o":"m 815 1068 l 44 529 l 44 524 l 815 -15 l 883 83 l 250 524 l 250 529 l 883 969 z m 1275 1068 l 504 529 l 504 524 l 1275 -15 l 1343 83 l 711 524 l 711 529 l 1343 969 z "},"≫":{"ha":0,"x_min":0,"x_max":0,"o":"m 114 1068 l 46 969 l 678 529 l 678 524 l 46 83 l 114 -15 l 885 524 l 885 529 z m 574 1068 l 506 969 l 1139 529 l 1139 524 l 506 83 l 574 -15 l 1344 524 l 1344 529 z "},"⊂":{"ha":0,"x_min":0,"x_max":0,"o":"m 631 81 l 1210 81 l 1210 221 l 631 221 b 310 526 449 221 310 351 b 631 832 310 701 449 832 l 1210 832 l 1210 972 l 631 972 b 168 526 371 972 168 781 b 631 81 168 272 371 81 z "},"⊃":{"ha":0,"x_min":0,"x_max":0,"o":"m 758 972 l 179 972 l 179 832 l 758 832 b 1081 526 940 832 1081 701 b 758 221 1081 351 940 221 l 179 221 l 179 81 l 758 81 b 1221 526 1018 81 1221 272 b 758 972 1221 781 1018 972 z "},"⊆":{"ha":0,"x_min":0,"x_max":0,"o":"m 565 926 l 1210 926 l 1210 1068 l 564 1068 b 168 690 333 1068 168 899 b 564 314 168 483 333 314 l 1210 314 l 1210 454 l 565 454 b 310 690 411 454 310 561 b 565 926 310 821 411 926 z m 179 126 l 179 -15 l 1210 -15 l 1210 126 z "},"⊇":{"ha":0,"x_min":0,"x_max":0,"o":"m 825 454 l 179 454 l 179 314 l 825 314 b 1221 690 1056 314 1221 483 b 825 1068 1221 899 1056 1068 l 179 1068 l 179 926 l 825 926 b 1081 690 978 926 1081 821 b 825 454 1081 561 978 454 z m 179 126 l 179 -15 l 1210 -15 l 1210 126 z "},"⊙":{"ha":0,"x_min":0,"x_max":0,"o":"m 694 14 b 1208 528 978 14 1208 244 b 694 1042 1208 811 978 1042 b 181 528 411 1042 181 811 b 694 14 181 244 411 14 z m 322 528 b 694 900 322 733 489 900 b 1067 528 900 900 1067 733 b 694 156 1067 322 900 156 b 322 528 489 156 322 322 z m 786 528 b 694 619 786 578 744 619 b 603 528 644 619 603 578 b 694 436 603 476 644 436 b 786 528 744 436 786 476 z "},"⊥":{"ha":0,"x_min":0,"x_max":0,"o":"m 765 183 l 765 1024 l 624 1024 l 624 183 l 132 183 l 132 42 l 1257 42 l 1257 183 z "},"⌒":{"ha":0,"x_min":0,"x_max":0,"o":"m 28 908 l 86 775 b 694 1025 236 915 428 1025 b 1303 775 961 1025 1153 915 l 1361 908 b 694 1182 1214 1057 992 1182 b 28 908 397 1182 175 1057 z "},"①":{"ha":0,"x_min":0,"x_max":0,"o":"m 694 -128 b 1350 528 1053 -128 1350 164 b 694 1183 1350 889 1056 1183 b 39 528 333 1183 39 889 b 694 -128 39 167 333 -128 z m 694 -76 b 90 528 361 -76 90 194 b 694 1132 90 858 358 1132 b 1299 528 1028 1132 1299 861 b 694 -76 1299 194 1028 -76 z m 638 169 l 815 169 l 815 899 l 682 899 b 486 831 628 867 569 847 l 486 719 l 638 719 z "},"②":{"ha":0,"x_min":0,"x_max":0,"o":"m 694 -128 b 1350 528 1053 -128 1350 164 b 694 1183 1350 889 1056 1183 b 39 528 333 1183 39 889 b 694 -128 39 167 333 -128 z m 694 -76 b 90 528 361 -76 90 194 b 694 1132 90 858 358 1132 b 1299 528 1028 1132 1299 861 b 694 -76 1299 194 1028 -76 z m 440 169 l 981 169 l 981 318 l 832 318 b 693 311 790 318 733 315 b 953 686 825 428 953 560 b 693 915 953 824 850 915 b 425 799 590 915 503 878 l 522 704 b 672 778 563 740 611 778 b 782 669 744 778 782 740 b 440 272 782 567 644 443 z "},"③":{"ha":0,"x_min":0,"x_max":0,"o":"m 694 -128 b 1350 528 1053 -128 1350 164 b 694 1183 1350 889 1056 1183 b 39 528 333 1183 39 889 b 694 -128 39 167 333 -128 z m 694 -76 b 90 528 361 -76 90 194 b 694 1132 90 858 358 1132 b 1299 528 1028 1132 1299 861 b 694 -76 1299 194 1028 -76 z m 679 153 b 976 367 842 153 976 231 b 814 547 976 463 907 522 l 814 551 b 949 711 900 585 949 638 b 675 915 949 843 840 915 b 428 821 581 915 497 881 l 515 714 b 671 781 564 757 615 781 b 772 700 738 781 772 751 b 578 604 772 642 724 604 l 578 481 b 797 381 754 481 797 443 b 676 292 797 325 746 292 b 485 369 596 292 532 326 l 403 258 b 679 153 460 194 561 153 z "},"④":{"ha":0,"x_min":0,"x_max":0,"o":"m 531 472 l 646 639 b 708 749 671 683 683 703 l 714 749 b 708 586 711 700 708 633 l 708 472 z m 874 899 l 658 899 l 363 464 l 363 342 l 708 342 l 708 169 l 874 169 l 874 342 l 967 342 l 967 472 l 874 472 z m 694 -76 b 90 528 361 -76 90 194 b 694 1132 90 858 358 1132 b 1299 528 1028 1132 1299 861 b 694 -76 1299 194 1028 -76 z m 694 1183 b 39 528 333 1183 39 889 b 694 -128 39 167 333 -128 b 1350 528 1053 -128 1350 164 b 694 1183 1350 889 1056 1183 z "},"⑤":{"ha":0,"x_min":0,"x_max":0,"o":"m 694 -128 b 1350 528 1053 -128 1350 164 b 694 1183 1350 889 1056 1183 b 39 528 333 1183 39 889 b 694 -128 39 167 333 -128 z m 694 -76 b 90 528 361 -76 90 194 b 694 1132 90 858 358 1132 b 1299 528 1028 1132 1299 861 b 694 -76 1299 194 1028 -76 z m 689 154 b 982 410 846 154 982 249 b 729 638 982 565 867 638 b 633 618 696 638 664 631 l 644 753 l 946 753 l 946 899 l 499 899 l 476 528 l 556 476 b 681 519 603 506 629 519 b 806 407 753 519 806 476 b 675 292 806 335 754 292 b 492 369 600 292 540 331 l 413 257 b 689 154 475 199 561 154 z "},"⑥":{"ha":0,"x_min":0,"x_max":0,"o":"m 697 285 b 560 433 633 285 578 318 b 688 504 600 485 646 504 b 801 394 754 504 801 465 b 697 285 801 325 753 285 z m 950 828 b 719 915 899 875 825 915 b 393 519 549 915 393 792 b 696 153 393 260 538 153 b 964 401 843 153 964 246 b 733 628 964 557 863 628 b 554 549 671 628 600 599 b 728 774 563 718 639 774 b 857 722 776 774 828 750 z m 694 -76 b 90 528 361 -76 90 194 b 694 1132 90 858 358 1132 b 1299 528 1028 1132 1299 861 b 694 -76 1299 194 1028 -76 z m 694 1183 b 39 528 333 1183 39 889 b 694 -128 39 167 333 -128 b 1350 528 1053 -128 1350 164 b 694 1183 1350 889 1056 1183 z "},"⑦":{"ha":0,"x_min":0,"x_max":0,"o":"m 694 -128 b 1350 528 1053 -128 1350 164 b 694 1183 1350 889 1056 1183 b 39 528 333 1183 39 889 b 694 -128 39 167 333 -128 z m 694 -76 b 90 528 361 -76 90 194 b 694 1132 90 858 358 1132 b 1299 528 1028 1132 1299 861 b 694 -76 1299 194 1028 -76 z m 567 169 l 746 169 b 969 792 761 454 786 589 l 969 899 l 432 899 l 432 753 l 778 753 b 567 169 628 563 582 410 z "},"⑧":{"ha":0,"x_min":0,"x_max":0,"o":"m 694 -128 b 1350 528 1053 -128 1350 164 b 694 1183 1350 889 1056 1183 b 39 528 333 1183 39 889 b 694 -128 39 167 333 -128 z m 694 -76 b 90 528 361 -76 90 194 b 694 1132 90 858 358 1132 b 1299 528 1028 1132 1299 861 b 694 -76 1299 194 1028 -76 z m 690 153 b 978 360 863 153 978 242 b 838 551 978 457 914 513 l 838 556 b 943 721 892 589 943 644 b 692 915 943 835 846 915 b 440 713 550 915 440 839 b 551 539 440 636 486 581 l 551 535 b 410 350 475 497 410 443 b 690 153 410 235 529 153 z m 739 594 b 593 713 654 621 593 654 b 689 796 593 768 635 796 b 796 703 756 796 796 758 b 739 594 796 665 775 625 z m 699 275 b 567 376 628 275 567 314 b 644 493 567 428 604 467 b 818 365 750 456 818 428 b 699 275 818 303 767 275 z "},"⑨":{"ha":0,"x_min":0,"x_max":0,"o":"m 699 564 b 589 672 635 564 589 596 b 692 785 589 749 639 785 b 826 638 753 785 808 750 b 699 564 789 586 739 564 z m 438 242 b 669 153 488 194 564 153 b 994 551 839 153 994 278 b 690 917 994 811 849 917 b 425 669 544 917 425 822 b 663 443 425 513 529 443 b 831 519 721 443 788 471 b 664 293 824 353 751 293 b 531 347 610 293 560 319 z m 694 -76 b 90 528 361 -76 90 194 b 694 1132 90 858 358 1132 b 1299 528 1028 1132 1299 861 b 694 -76 1299 194 1028 -76 z m 694 1183 b 39 528 333 1183 39 889 b 694 -128 39 167 333 -128 b 1350 528 1053 -128 1350 164 b 694 1183 1350 889 1056 1183 z "},"⑩":{"ha":0,"x_min":0,"x_max":0,"o":"m 694 -128 b 1350 528 1053 -128 1350 164 b 694 1183 1350 889 1056 1183 b 39 528 333 1183 39 889 b 694 -128 39 167 333 -128 z m 694 -76 b 90 528 361 -76 90 194 b 694 1132 90 858 358 1132 b 1299 528 1028 1132 1299 861 b 694 -76 1299 194 1028 -76 z m 376 169 l 540 169 l 540 899 l 418 899 b 254 831 371 867 324 847 l 254 719 l 376 719 z m 892 153 b 1133 539 1036 153 1133 300 b 892 917 1133 776 1036 917 b 650 539 749 917 650 778 b 892 153 650 300 749 153 z m 892 294 b 814 539 846 294 814 357 b 892 778 814 721 846 778 b 971 539 938 778 971 721 b 892 294 971 357 938 294 z "},"⑪":{"ha":0,"x_min":0,"x_max":0,"o":"m 694 -128 b 1350 528 1053 -128 1350 164 b 694 1183 1350 889 1056 1183 b 39 528 333 1183 39 889 b 694 -128 39 167 333 -128 z m 694 -76 b 90 528 361 -76 90 194 b 694 1132 90 858 358 1132 b 1299 528 1028 1132 1299 861 b 694 -76 1299 194 1028 -76 z m 433 169 l 597 169 l 597 899 l 475 899 b 311 831 428 867 381 847 l 311 719 l 433 719 z m 836 169 l 1000 169 l 1000 899 l 876 899 b 714 831 831 867 783 847 l 714 719 l 836 719 z "},"⑫":{"ha":0,"x_min":0,"x_max":0,"o":"m 694 -128 b 1350 528 1053 -128 1350 164 b 694 1183 1350 889 1056 1183 b 39 528 333 1183 39 889 b 694 -128 39 167 333 -128 z m 694 -76 b 90 528 361 -76 90 194 b 694 1132 90 858 358 1132 b 1299 528 1028 1132 1299 861 b 694 -76 1299 194 1028 -76 z m 375 169 l 538 169 l 538 899 l 415 899 b 251 831 368 867 322 847 l 251 719 l 375 719 z m 663 169 l 1085 169 l 1085 318 l 985 318 b 876 311 953 318 908 315 b 1064 686 965 428 1064 560 b 861 915 1064 824 983 915 b 650 813 781 915 711 883 l 738 718 b 833 778 765 749 797 778 b 908 669 883 778 908 740 b 663 272 908 567 806 443 z "},"⑬":{"ha":0,"x_min":0,"x_max":0,"o":"m 694 -128 b 1350 528 1053 -128 1350 164 b 694 1183 1350 889 1056 1183 b 39 528 333 1183 39 889 b 694 -128 39 167 333 -128 z m 694 -76 b 90 528 361 -76 90 194 b 694 1132 90 858 358 1132 b 1299 528 1028 1132 1299 861 b 694 -76 1299 194 1028 -76 z m 381 169 l 544 169 l 544 899 l 421 899 b 258 831 375 867 328 847 l 258 719 l 381 719 z m 856 153 b 1093 367 985 153 1093 231 b 967 547 1093 463 1040 522 l 967 551 b 1072 711 1035 585 1072 638 b 853 915 1072 843 986 915 b 658 835 781 915 715 889 l 740 729 b 840 781 776 765 803 781 b 908 700 881 781 908 751 b 774 604 908 642 875 604 l 774 481 b 929 381 901 481 929 443 b 847 292 929 325 896 292 b 718 353 793 292 754 317 l 642 243 b 856 153 686 186 767 153 z "},"⑭":{"ha":0,"x_min":0,"x_max":0,"o":"m 251 719 l 375 719 l 375 169 l 538 169 l 538 899 l 415 899 b 251 831 368 867 322 847 z m 779 472 l 854 639 b 900 749 872 683 879 703 l 904 749 b 899 586 903 700 899 633 l 899 472 z m 1047 899 l 854 899 l 635 464 l 635 342 l 899 342 l 899 169 l 1047 169 l 1047 342 l 1118 342 l 1118 472 l 1047 472 z m 694 -76 b 90 528 361 -76 90 194 b 694 1132 90 858 358 1132 b 1299 528 1028 1132 1299 861 b 694 -76 1299 194 1028 -76 z m 694 1183 b 39 528 333 1183 39 889 b 694 -128 39 167 333 -128 b 1350 528 1053 -128 1350 164 b 694 1183 1350 889 1056 1183 z "},"⑮":{"ha":0,"x_min":0,"x_max":0,"o":"m 694 -128 b 1350 528 1053 -128 1350 164 b 694 1183 1350 889 1056 1183 b 39 528 333 1183 39 889 b 694 -128 39 167 333 -128 z m 694 -76 b 90 528 361 -76 90 194 b 694 1132 90 858 358 1132 b 1299 528 1028 1132 1299 861 b 694 -76 1299 194 1028 -76 z m 375 169 l 538 169 l 538 899 l 415 899 b 251 831 368 867 322 847 l 251 719 l 375 719 z m 854 154 b 1096 410 985 154 1096 249 b 901 638 1096 565 1007 638 b 835 618 879 638 857 631 l 840 753 l 1068 753 l 1068 899 l 704 899 l 689 528 l 760 476 b 849 519 789 506 815 519 b 933 407 899 519 933 476 b 842 292 933 335 899 292 b 710 360 790 292 744 325 l 638 247 b 854 154 688 194 757 154 z "},"⑴":{"ha":0,"x_min":0,"x_max":0,"o":"m 210 -125 l 300 -103 b 156 528 185 89 157 290 b 300 1158 156 765 185 967 l 210 1181 b 39 528 82 986 39 778 b 210 -125 39 276 82 69 z m 431 6 l 1008 6 l 1008 172 l 835 172 l 835 1013 l 685 1013 b 463 925 622 969 560 943 l 463 799 l 631 799 l 631 172 l 431 172 z m 1179 -125 b 1350 528 1307 69 1350 276 b 1179 1181 1350 778 1307 986 l 1089 1158 b 1233 528 1204 967 1233 765 b 1089 -103 1232 290 1204 89 z "},"⑵":{"ha":0,"x_min":0,"x_max":0,"o":"m 210 -125 l 300 -103 b 156 528 185 89 157 290 b 300 1158 156 765 185 967 l 210 1181 b 39 528 82 986 39 778 b 210 -125 39 276 82 69 z m 376 6 l 1024 6 l 1024 178 l 829 178 b 671 168 785 178 721 172 b 985 717 838 357 985 543 b 678 1031 985 907 867 1031 b 360 874 543 1031 450 976 l 472 763 b 651 869 519 821 581 869 b 789 706 743 869 789 808 b 376 124 789 557 625 381 z m 1179 -125 b 1350 528 1307 69 1350 276 b 1179 1181 1350 778 1307 986 l 1089 1158 b 1233 528 1204 967 1233 765 b 1089 -103 1232 290 1204 89 z "},"⑶":{"ha":0,"x_min":0,"x_max":0,"o":"m 210 -125 l 300 -103 b 156 528 185 89 157 290 b 300 1158 156 765 185 967 l 210 1181 b 39 528 82 986 39 778 b 210 -125 39 276 82 69 z m 669 -12 b 1018 278 860 -12 1018 93 b 814 526 1018 411 935 494 l 814 533 b 986 761 925 578 986 653 b 664 1031 986 935 858 1031 b 368 903 549 1031 451 981 l 474 778 b 656 869 529 836 586 869 b 782 744 735 869 782 824 b 543 596 782 660 721 596 l 543 449 b 814 292 757 449 814 389 b 649 154 814 204 747 154 b 432 258 564 154 489 199 l 336 131 b 669 -12 404 49 514 -12 z m 1179 -125 b 1350 528 1307 69 1350 276 b 1179 1181 1350 778 1307 986 l 1089 1158 b 1233 528 1204 967 1233 765 b 1089 -103 1232 290 1204 89 z "},"⑷":{"ha":0,"x_min":0,"x_max":0,"o":"m 210 1181 b 39 528 82 986 39 778 b 210 -125 39 276 82 69 l 300 -103 b 156 528 185 89 157 290 b 300 1158 156 765 185 967 z m 515 414 l 663 667 b 738 832 693 724 711 775 l 744 832 b 738 621 740 765 738 682 l 738 414 z m 928 1013 l 690 1013 l 322 397 l 322 257 l 738 257 l 738 6 l 928 6 l 928 257 l 1049 257 l 1049 414 l 928 414 z m 1089 1158 b 1233 528 1204 967 1233 765 b 1089 -103 1232 290 1204 89 l 1179 -125 b 1350 528 1307 69 1350 276 b 1179 1181 1350 778 1307 986 z "},"⑸":{"ha":0,"x_min":0,"x_max":0,"o":"m 210 -125 l 300 -103 b 156 528 185 89 157 290 b 300 1158 156 765 185 967 l 210 1181 b 39 528 82 986 39 778 b 210 -125 39 276 82 69 z m 669 -14 b 1021 336 854 -14 1021 113 b 725 649 1021 550 886 649 b 601 619 678 649 642 640 l 621 840 l 974 840 l 974 1013 l 444 1013 l 415 510 l 508 450 b 653 504 564 489 596 504 b 815 331 747 504 815 440 b 642 153 815 218 743 153 b 429 257 553 153 483 199 l 333 128 b 669 -14 407 50 514 -14 z m 1179 -125 b 1350 528 1307 69 1350 276 b 1179 1181 1350 778 1307 986 l 1089 1158 b 1233 528 1204 967 1233 765 b 1089 -103 1232 290 1204 89 z "},"⑹":{"ha":0,"x_min":0,"x_max":0,"o":"m 210 1181 b 39 528 82 986 39 778 b 210 -125 39 276 82 69 l 300 -103 b 156 528 185 89 157 290 b 300 1158 156 765 185 967 z m 718 143 b 557 378 639 143 575 207 b 713 485 604 457 664 485 b 849 319 794 485 849 436 b 718 143 849 201 790 143 z m 1021 914 b 747 1031 961 978 871 1031 b 364 482 547 1031 364 867 b 722 -12 364 138 535 -12 b 1038 319 893 -12 1038 114 b 753 631 1038 532 917 631 b 551 521 689 631 606 592 b 761 864 560 778 651 864 b 913 792 818 864 879 833 z m 1089 1158 b 1233 528 1204 967 1233 765 b 1089 -103 1232 289 1204 89 l 1179 -125 b 1350 528 1307 69 1350 276 b 1179 1181 1350 778 1307 986 z "},"⑺":{"ha":0,"x_min":0,"x_max":0,"o":"m 210 -125 l 300 -103 b 156 528 185 89 157 290 b 300 1158 156 765 185 967 l 210 1181 b 39 528 82 986 39 778 b 210 -125 39 276 82 69 z m 538 6 l 742 6 b 1013 886 758 399 796 597 l 1013 1013 l 374 1013 l 374 840 l 794 840 b 538 6 615 569 554 354 z m 1179 -125 b 1350 528 1307 69 1350 276 b 1179 1181 1350 778 1307 986 l 1089 1158 b 1233 528 1204 967 1233 765 b 1089 -103 1232 290 1204 89 z "},"⑻":{"ha":0,"x_min":0,"x_max":0,"o":"m 210 -125 l 300 -103 b 156 528 185 89 157 290 b 300 1158 156 765 185 967 l 210 1181 b 39 528 82 986 39 778 b 210 -125 39 276 82 69 z m 694 -12 b 1039 263 903 -12 1039 106 b 864 525 1039 397 963 469 l 864 531 b 999 760 933 585 999 664 b 699 1031 999 922 881 1031 b 389 760 519 1031 389 926 b 525 524 389 656 446 583 l 525 517 b 350 263 431 465 350 390 b 694 -12 350 101 494 -12 z m 757 581 b 569 760 644 626 569 669 b 694 888 569 843 625 888 b 831 746 781 888 831 828 b 757 581 831 686 803 635 z m 697 131 b 528 285 603 131 528 190 b 622 463 528 360 569 418 b 847 268 756 406 847 369 b 697 131 847 179 786 131 z m 1179 -125 b 1350 528 1307 69 1350 276 b 1179 1181 1350 778 1307 986 l 1089 1158 b 1233 528 1204 967 1233 765 b 1089 -103 1232 290 1204 89 z "},"⑼":{"ha":0,"x_min":0,"x_max":0,"o":"m 210 1181 b 39 528 82 986 39 778 b 210 -125 39 276 82 69 l 300 -103 b 156 528 185 89 157 290 b 300 1158 156 765 185 967 z m 683 533 b 549 699 604 533 549 582 b 681 876 549 817 607 876 b 840 642 758 876 822 811 b 683 533 794 561 735 533 z m 375 106 b 650 -12 435 40 528 -12 b 1033 538 850 -12 1033 153 b 675 1031 1033 881 863 1031 b 361 699 504 1031 361 903 b 646 388 361 488 481 388 b 846 499 710 388 792 428 b 636 154 838 240 747 154 b 486 228 581 154 519 185 z m 1089 1158 b 1233 528 1204 967 1233 765 b 1089 -103 1232 290 1204 89 l 1179 -125 b 1350 528 1307 69 1350 276 b 1179 1181 1350 778 1307 986 z "},"⑽":{"ha":0,"x_min":0,"x_max":0,"o":"m 1179 -125 b 1350 528 1307 69 1350 276 b 1179 1181 1350 778 1307 986 l 1089 1158 b 1233 528 1204 967 1233 765 b 1089 -103 1232 290 1204 89 z m 892 132 b 800 514 839 132 800 221 b 892 886 800 807 839 886 b 985 514 947 886 985 807 b 892 132 985 221 947 132 z m 892 -12 b 1135 514 1035 -12 1135 132 b 892 1031 1135 894 1035 1031 b 647 514 749 1031 647 894 b 892 -12 647 132 749 -12 z m 408 6 l 560 6 l 560 1013 l 474 1013 b 276 925 417 972 363 943 l 276 819 l 408 819 z m 300 -103 b 156 528 185 89 157 290 b 300 1158 156 765 185 967 l 210 1181 b 39 528 82 986 39 778 b 210 -125 39 276 82 69 z "},"⑾":{"ha":0,"x_min":0,"x_max":0,"o":"m 1179 -125 b 1350 528 1307 69 1350 276 b 1179 1181 1350 778 1307 986 l 1089 1158 b 1233 528 1204 967 1233 765 b 1089 -103 1232 290 1204 89 z m 861 6 l 1011 6 l 1011 1013 l 926 1013 b 728 925 868 972 814 943 l 728 819 l 861 819 z m 460 6 l 610 6 l 610 1013 l 525 1013 b 326 925 467 972 413 943 l 326 819 l 460 819 z m 300 -103 b 156 528 185 89 157 290 b 300 1158 156 765 185 967 l 210 1181 b 39 528 82 986 39 778 b 210 -125 39 276 82 69 z "},"⑿":{"ha":0,"x_min":0,"x_max":0,"o":"m 1179 -125 b 1350 528 1307 69 1350 276 b 1179 1181 1350 778 1307 986 l 1089 1158 b 1233 528 1204 967 1233 765 b 1089 -103 1232 290 1204 89 z m 644 6 l 1117 6 l 1117 156 l 978 156 b 843 146 942 156 885 151 b 1090 742 982 357 1090 574 b 858 1031 1090 917 1000 1031 b 628 896 758 1031 699 978 l 717 806 b 847 890 753 854 799 890 b 949 738 914 890 949 843 b 644 124 949 594 839 388 z m 408 6 l 560 6 l 560 1013 l 474 1013 b 276 925 417 972 363 943 l 276 819 l 408 819 z m 300 -103 b 156 528 185 89 157 290 b 300 1158 156 765 185 967 l 210 1181 b 39 528 82 986 39 778 b 210 -125 39 276 82 69 z "},"⒀":{"ha":0,"x_min":0,"x_max":0,"o":"m 1179 -125 b 1350 528 1307 69 1350 276 b 1179 1181 1350 778 1307 986 l 1089 1158 b 1233 528 1204 967 1233 765 b 1089 -103 1232 290 1204 89 z m 950 533 b 1097 761 1044 576 1097 653 b 849 1031 1097 935 1000 1031 b 644 940 769 1031 706 997 l 738 832 b 844 890 771 871 803 890 b 946 760 908 890 946 842 b 760 589 946 660 894 589 l 760 456 b 971 278 913 456 971 388 b 844 132 971 185 915 132 b 704 204 785 132 740 164 l 619 93 b 854 -12 668 32 744 -12 b 1121 278 1000 -12 1121 93 b 950 526 1121 411 1050 494 z m 408 6 l 560 6 l 560 1013 l 474 1013 b 276 925 417 972 363 943 l 276 819 l 408 819 z m 300 -103 b 156 528 185 89 157 290 b 300 1158 156 765 185 967 l 210 1181 b 39 528 82 986 39 778 b 210 -125 39 276 82 69 z "},"⒁":{"ha":0,"x_min":0,"x_max":0,"o":"m 210 1181 b 39 528 82 986 39 778 b 210 -125 39 276 82 69 l 300 -103 b 156 528 185 89 157 290 b 300 1158 156 765 185 967 z m 276 819 l 408 819 l 408 6 l 560 6 l 560 1013 l 474 1013 b 276 925 417 972 363 943 z m 757 414 l 863 665 b 919 832 883 724 901 775 l 924 832 b 918 614 921 769 918 674 l 918 414 z m 1144 278 l 1144 414 l 1054 414 l 1054 1013 l 897 1013 l 625 397 l 625 278 l 918 278 l 918 6 l 1054 6 l 1054 278 z m 1089 1158 b 1233 528 1204 967 1233 765 b 1089 -103 1232 290 1204 89 l 1179 -125 b 1350 528 1307 69 1350 276 b 1179 1181 1350 778 1307 986 z "},"⒂":{"ha":0,"x_min":0,"x_max":0,"o":"m 1179 -125 b 1350 528 1307 69 1350 276 b 1179 1181 1350 778 1307 986 l 1089 1158 b 1233 528 1204 967 1233 765 b 1089 -103 1232 290 1204 89 z m 817 863 l 1069 863 l 1069 1013 l 694 1013 l 672 517 l 761 465 b 856 515 794 499 818 515 b 963 331 917 515 963 447 b 833 132 963 204 913 132 b 700 203 779 132 736 163 l 615 93 b 864 -14 671 35 749 -14 b 1114 336 996 -14 1114 113 b 893 638 1114 543 1011 638 b 804 608 860 638 836 628 z m 408 6 l 560 6 l 560 1013 l 474 1013 b 276 925 417 972 363 943 l 276 819 l 408 819 z m 300 -103 b 156 528 185 89 157 290 b 300 1158 156 765 185 967 l 210 1181 b 39 528 82 986 39 778 b 210 -125 39 276 82 69 z "},"⒜":{"ha":0,"x_min":0,"x_max":0,"o":"m 210 -125 l 300 -103 b 156 528 185 89 157 290 b 300 1158 156 765 185 967 l 210 1181 b 39 528 82 986 39 778 b 210 -125 39 276 82 69 z m 589 114 b 813 215 674 114 747 157 l 818 215 l 833 133 l 1001 133 l 1001 586 b 713 931 1001 815 901 931 b 396 829 593 931 485 886 l 471 692 b 672 767 538 736 604 767 b 794 632 763 767 793 708 b 367 346 496 599 367 510 b 589 114 367 211 456 114 z m 656 275 b 564 361 601 275 564 301 b 794 507 564 432 622 483 l 794 350 b 656 275 750 301 710 275 z m 1179 -125 b 1350 528 1307 69 1350 276 b 1179 1181 1350 778 1307 986 l 1089 1158 b 1233 528 1204 967 1233 765 b 1089 -103 1232 290 1204 89 z "},"⒝":{"ha":0,"x_min":0,"x_max":0,"o":"m 210 -125 l 300 -103 b 156 528 185 89 157 290 b 300 1158 156 765 185 967 l 210 1181 b 39 528 82 986 39 778 b 210 -125 39 276 82 69 z m 769 -3 b 1079 419 931 -3 1079 151 b 792 814 1079 658 972 814 b 597 721 724 814 654 776 l 604 847 l 604 1128 l 397 1128 l 397 15 l 560 15 l 575 97 l 581 97 b 769 -3 639 31 707 -3 z m 724 165 b 604 224 688 165 644 181 l 604 567 b 736 646 650 619 690 646 b 868 415 828 646 868 564 b 724 165 868 246 804 165 z m 1179 -125 b 1350 528 1307 69 1350 276 b 1179 1181 1350 778 1307 986 l 1089 1158 b 1233 528 1204 967 1233 765 b 1089 -103 1232 290 1204 89 z "},"⒞":{"ha":0,"x_min":0,"x_max":0,"o":"m 210 -125 l 300 -103 b 156 528 185 89 157 290 b 300 1158 156 765 185 967 l 210 1181 b 39 528 82 986 39 778 b 210 -125 39 276 82 69 z m 753 114 b 1011 213 839 114 936 146 l 926 343 b 775 281 886 310 836 281 b 583 522 664 281 583 376 b 782 765 583 668 663 765 b 901 714 825 765 863 746 l 999 842 b 771 931 946 892 869 931 b 372 522 561 931 372 782 b 753 114 372 265 538 114 z m 1179 -125 b 1350 528 1307 69 1350 276 b 1179 1181 1350 778 1307 986 l 1089 1158 b 1233 528 1204 967 1233 765 b 1089 -103 1232 290 1204 89 z "},"⒟":{"ha":0,"x_min":0,"x_max":0,"o":"m 210 -125 l 300 -103 b 156 528 185 89 157 290 b 300 1158 156 765 185 967 l 210 1181 b 39 528 82 986 39 778 b 210 -125 39 276 82 69 z m 610 -3 b 806 96 682 -3 756 40 l 810 96 l 825 15 l 994 15 l 994 1128 l 789 1128 l 789 853 l 794 731 b 617 814 746 782 694 814 b 313 406 461 814 313 660 b 610 -3 313 150 429 -3 z m 663 165 b 524 407 574 165 524 244 b 664 646 524 564 586 646 b 789 589 706 646 747 629 l 789 244 b 663 165 749 189 710 165 z m 1179 -125 b 1350 528 1307 69 1350 276 b 1179 1181 1350 778 1307 986 l 1089 1158 b 1233 528 1204 967 1233 765 b 1089 -103 1232 290 1204 89 z "},"⒠":{"ha":0,"x_min":0,"x_max":0,"o":"m 210 -125 l 300 -103 b 156 528 185 89 157 290 b 300 1158 156 765 185 967 l 210 1181 b 39 528 82 986 39 778 b 210 -125 39 276 82 69 z m 740 114 b 992 201 831 114 921 146 l 922 325 b 767 272 872 292 825 272 b 572 469 663 272 589 338 l 1013 469 b 1021 558 1015 488 1021 521 b 715 931 1021 775 915 931 b 372 522 539 931 372 775 b 740 114 372 265 535 114 z m 569 596 b 719 775 583 715 646 775 b 844 596 806 775 844 706 z m 1179 -125 b 1350 528 1307 69 1350 276 b 1179 1181 1350 778 1307 986 l 1089 1158 b 1233 528 1204 967 1233 765 b 1089 -103 1232 290 1204 89 z "},"⒡":{"ha":0,"x_min":0,"x_max":0,"o":"m 210 1181 b 39 528 82 986 39 778 b 210 -125 39 276 82 69 l 300 -103 b 156 528 185 89 157 290 b 300 1158 156 765 185 967 z m 504 794 l 400 788 l 400 633 l 504 633 l 504 15 l 710 15 l 710 633 l 857 633 l 857 796 l 710 796 l 710 863 b 806 983 710 949 744 983 b 886 967 831 983 860 978 l 925 1118 b 776 1147 890 1132 838 1147 b 504 858 579 1147 504 1019 z m 1089 1158 b 1233 528 1204 967 1233 765 b 1089 -103 1232 290 1204 89 l 1179 -125 b 1350 528 1307 69 1350 276 b 1179 1181 1350 778 1307 986 z "},"⒢":{"ha":0,"x_min":0,"x_max":0,"o":"m 210 -125 l 300 -103 b 156 528 185 89 157 290 b 300 1158 156 765 185 967 l 210 1181 b 39 528 82 986 39 778 b 210 -125 39 276 82 69 z m 663 -60 b 1026 207 888 -60 1026 56 b 750 396 1026 339 931 396 l 664 396 b 585 451 603 396 585 415 b 615 508 585 478 599 490 b 683 494 640 499 669 494 b 951 753 832 494 951 579 b 915 863 951 797 933 838 l 1028 863 l 1028 1013 l 769 1013 b 683 1031 744 1025 714 1031 b 403 758 536 1031 403 936 b 507 561 403 669 453 600 l 507 556 b 421 414 460 521 421 469 b 490 290 421 354 451 318 l 490 285 b 393 131 428 244 393 193 b 663 -60 393 -1 510 -60 z m 683 619 b 586 758 629 619 586 669 b 683 892 586 844 628 892 b 782 758 740 892 782 844 b 683 619 782 669 740 619 z m 694 69 b 564 158 614 69 564 103 b 603 246 564 190 575 219 b 667 235 621 238 642 235 l 715 235 b 831 168 789 235 831 222 b 694 69 831 115 774 69 z m 1179 -125 b 1350 528 1307 69 1350 276 b 1179 1181 1350 778 1307 986 l 1089 1158 b 1233 528 1204 967 1233 765 b 1089 -103 1232 290 1204 89 z "},"⒣":{"ha":0,"x_min":0,"x_max":0,"o":"m 210 -125 l 300 -103 b 156 528 185 89 157 290 b 300 1158 156 765 185 967 l 210 1181 b 39 528 82 986 39 778 b 210 -125 39 276 82 69 z m 382 15 l 588 15 l 588 553 b 739 640 642 606 679 640 b 838 475 808 640 838 597 l 838 15 l 1043 15 l 1043 503 b 813 814 1043 699 974 814 b 576 700 710 814 639 758 l 588 847 l 588 1128 l 382 1128 z m 1179 -125 b 1350 528 1307 69 1350 276 b 1179 1181 1350 778 1307 986 l 1089 1158 b 1233 528 1204 967 1233 765 b 1089 -103 1232 290 1204 89 z "},"⒤":{"ha":0,"x_min":0,"x_max":0,"o":"m 210 -125 l 300 -103 b 156 528 185 89 157 290 b 300 1158 156 765 185 967 l 210 1181 b 39 528 82 986 39 778 b 210 -125 39 276 82 69 z m 592 15 l 799 15 l 799 796 l 592 796 z m 694 922 b 818 1033 765 922 818 968 b 694 1144 818 1099 765 1144 b 572 1033 624 1144 572 1099 b 694 922 572 968 624 922 z m 1179 -125 b 1350 528 1307 69 1350 276 b 1179 1181 1350 778 1307 986 l 1089 1158 b 1233 528 1204 967 1233 765 b 1089 -103 1232 290 1204 89 z "},"⒥":{"ha":0,"x_min":0,"x_max":0,"o":"m 210 -125 l 300 -103 b 156 528 185 89 157 290 b 300 1158 156 765 185 967 l 210 1181 b 39 528 82 986 39 778 b 210 -125 39 276 82 69 z m 565 -218 b 825 82 763 -218 825 -86 l 825 881 l 621 881 l 621 78 b 533 -56 621 -11 600 -56 b 468 -44 511 -56 490 -51 l 432 -197 b 565 -218 463 -208 504 -218 z m 724 1007 b 844 1118 793 1007 844 1053 b 724 1229 844 1183 793 1229 b 600 1118 651 1229 600 1183 b 724 1007 600 1053 651 1007 z m 1179 -125 b 1350 528 1307 69 1350 276 b 1179 1181 1350 778 1307 986 l 1089 1158 b 1233 528 1204 967 1233 765 b 1089 -103 1232 290 1204 89 z "},"⒦":{"ha":0,"x_min":0,"x_max":0,"o":"m 210 -125 l 300 -103 b 156 528 185 89 157 290 b 300 1158 156 765 185 967 l 210 1181 b 39 528 82 986 39 778 b 210 -125 39 276 82 69 z m 378 15 l 579 15 l 579 210 l 679 339 l 836 15 l 1060 15 l 797 476 l 1036 796 l 813 796 l 585 460 l 579 460 l 579 1128 l 378 1128 z m 1179 -125 b 1350 528 1307 69 1350 276 b 1179 1181 1350 778 1307 986 l 1089 1158 b 1233 528 1204 967 1233 765 b 1089 -103 1232 290 1204 89 z "},"⒧":{"ha":0,"x_min":0,"x_max":0,"o":"m 210 -125 l 300 -103 b 156 528 185 89 157 290 b 300 1158 156 765 185 967 l 210 1181 b 39 528 82 986 39 778 b 210 -125 39 276 82 69 z m 779 -3 b 885 14 828 -3 861 6 l 860 167 b 832 164 846 164 839 164 b 792 226 813 164 792 179 l 792 1128 l 585 1128 l 585 236 b 779 -3 585 90 636 -3 z m 1179 -125 b 1350 528 1307 69 1350 276 b 1179 1181 1350 778 1307 986 l 1089 1158 b 1233 528 1204 967 1233 765 b 1089 -103 1232 290 1204 89 z "},"⒨":{"ha":0,"x_min":0,"x_max":0,"o":"m 210 -125 l 300 -103 b 156 528 185 89 157 290 b 300 1158 156 765 185 967 l 210 1181 b 39 528 82 986 39 778 b 210 -125 39 276 82 69 z m 275 133 l 450 133 l 450 697 b 553 757 488 740 518 757 b 617 642 596 757 617 726 l 617 133 l 781 133 l 781 697 b 885 757 818 738 850 757 b 949 642 928 757 949 726 l 949 133 l 1121 133 l 1121 668 b 939 931 1121 835 1063 931 b 754 824 861 931 807 883 b 604 931 724 893 681 931 b 433 838 531 931 482 889 l 428 838 l 411 913 l 275 913 z m 1179 -125 b 1350 528 1307 69 1350 276 b 1179 1181 1350 778 1307 986 l 1089 1158 b 1233 528 1204 967 1233 765 b 1089 -103 1232 290 1204 89 z "},"⒩":{"ha":0,"x_min":0,"x_max":0,"o":"m 210 -125 l 300 -103 b 156 528 185 89 157 290 b 300 1158 156 765 185 967 l 210 1181 b 39 528 82 986 39 778 b 210 -125 39 276 82 69 z m 368 133 l 575 133 l 575 675 b 725 757 628 728 665 757 b 825 599 794 757 825 715 l 825 133 l 1031 133 l 1031 625 b 800 931 1031 818 961 931 b 558 815 697 931 622 879 l 551 815 l 536 913 l 368 913 z m 1179 -125 b 1350 528 1307 69 1350 276 b 1179 1181 1350 778 1307 986 l 1089 1158 b 1233 528 1204 967 1233 765 b 1089 -103 1232 290 1204 89 z "},"⒪":{"ha":0,"x_min":0,"x_max":0,"o":"m 210 -125 l 300 -103 b 156 528 185 89 157 290 b 300 1158 156 765 185 967 l 210 1181 b 39 528 82 986 39 778 b 210 -125 39 276 82 69 z m 694 114 b 1058 522 885 114 1058 265 b 694 931 1058 782 885 931 b 331 522 504 931 331 782 b 694 114 331 265 504 114 z m 694 281 b 540 522 596 281 540 376 b 694 765 540 668 596 765 b 847 522 792 765 847 668 b 694 281 847 376 792 281 z m 1179 -125 b 1350 528 1307 69 1350 276 b 1179 1181 1350 778 1307 986 l 1089 1158 b 1233 528 1204 967 1233 765 b 1089 -103 1232 290 1204 89 z "},"⒫":{"ha":0,"x_min":0,"x_max":0,"o":"m 210 -125 l 300 -103 b 156 528 185 89 157 290 b 300 1158 156 765 185 967 l 210 1181 b 39 528 82 986 39 778 b 210 -125 39 276 82 69 z m 388 -11 l 593 -11 l 593 172 l 586 297 b 769 214 644 244 706 214 b 1090 636 935 214 1090 368 b 793 1031 1090 875 979 1031 b 576 932 715 1031 638 988 l 571 932 l 554 1013 l 388 1013 z m 724 383 b 593 442 683 383 639 400 l 593 783 b 736 863 646 835 686 863 b 878 633 835 863 878 781 b 724 383 878 463 811 383 z m 1179 -125 b 1350 528 1307 69 1350 276 b 1179 1181 1350 778 1307 986 l 1089 1158 b 1233 528 1204 967 1233 765 b 1089 -103 1232 290 1204 89 z "},"⒬":{"ha":0,"x_min":0,"x_max":0,"o":"m 210 -125 l 300 -103 b 156 528 185 89 157 290 b 300 1158 156 765 185 967 l 210 1181 b 39 528 82 986 39 778 b 210 -125 39 276 82 69 z m 797 -11 l 1001 -11 l 1001 1013 l 840 1013 l 824 936 l 818 936 b 615 1031 754 1001 699 1031 b 299 622 454 1031 299 876 b 608 214 299 367 421 214 b 803 306 681 214 751 254 l 797 182 z m 660 383 b 511 624 565 383 511 463 b 661 863 511 781 579 863 b 797 806 706 863 751 846 l 797 461 b 660 383 751 407 711 383 z m 1179 -125 b 1350 528 1307 69 1350 276 b 1179 1181 1350 778 1307 986 l 1089 1158 b 1233 528 1204 967 1233 765 b 1089 -103 1232 290 1204 89 z "},"⒭":{"ha":0,"x_min":0,"x_max":0,"o":"m 210 -125 l 300 -103 b 156 528 185 89 157 290 b 300 1158 156 765 185 967 l 210 1181 b 39 528 82 986 39 778 b 210 -125 39 276 82 69 z m 474 133 l 679 133 l 679 597 b 857 751 722 710 796 751 b 939 739 890 751 911 744 l 974 915 b 883 931 951 926 925 931 b 663 775 801 931 718 878 l 657 775 l 640 913 l 474 913 z m 1179 -125 b 1350 528 1307 69 1350 276 b 1179 1181 1350 778 1307 986 l 1089 1158 b 1233 528 1204 967 1233 765 b 1089 -103 1232 290 1204 89 z "},"⒮":{"ha":0,"x_min":0,"x_max":0,"o":"m 210 -125 l 300 -103 b 156 528 185 89 157 290 b 300 1158 156 765 185 967 l 210 1181 b 39 528 82 986 39 778 b 210 -125 39 276 82 69 z m 683 114 b 994 360 886 114 994 224 b 776 596 994 504 879 558 b 618 703 694 626 618 646 b 721 778 618 746 651 778 b 889 711 779 778 835 751 l 981 836 b 717 931 918 886 829 931 b 425 693 538 931 425 833 b 639 465 425 564 539 503 b 801 349 721 433 801 407 b 688 267 801 301 767 267 b 479 353 615 267 549 299 l 386 224 b 683 114 464 158 579 114 z m 1179 -125 b 1350 528 1307 69 1350 276 b 1179 1181 1350 778 1307 986 l 1089 1158 b 1233 528 1204 967 1233 765 b 1089 -103 1232 290 1204 89 z "},"⒯":{"ha":0,"x_min":0,"x_max":0,"o":"m 210 -125 l 300 -103 b 156 528 185 89 157 290 b 300 1158 156 765 185 967 l 210 1181 b 39 528 82 986 39 778 b 210 -125 39 276 82 69 z m 797 47 b 963 76 865 47 921 63 l 929 226 b 851 208 907 218 878 208 b 744 340 783 208 744 250 l 744 683 l 938 683 l 938 846 l 744 846 l 744 1057 l 575 1057 l 551 846 l 431 839 l 431 683 l 539 683 l 539 340 b 797 47 539 165 611 47 z m 1179 -125 b 1350 528 1307 69 1350 276 b 1179 1181 1350 778 1307 986 l 1089 1158 b 1233 528 1204 967 1233 765 b 1089 -103 1232 290 1204 89 z "},"⒰":{"ha":0,"x_min":0,"x_max":0,"o":"m 210 -125 l 300 -103 b 156 528 185 89 157 290 b 300 1158 156 765 185 967 l 210 1181 b 39 528 82 986 39 778 b 210 -125 39 276 82 69 z m 593 114 b 829 239 694 114 765 163 l 836 239 l 850 133 l 1018 133 l 1018 913 l 813 913 l 813 381 b 667 289 763 315 726 289 b 567 446 599 289 567 331 l 567 913 l 363 913 l 363 418 b 593 114 363 228 432 114 z m 1179 -125 b 1350 528 1307 69 1350 276 b 1179 1181 1350 778 1307 986 l 1089 1158 b 1233 528 1204 967 1233 765 b 1089 -103 1232 290 1204 89 z "},"⒱":{"ha":0,"x_min":0,"x_max":0,"o":"m 210 -125 l 300 -103 b 156 528 185 89 157 290 b 300 1158 156 765 185 967 l 210 1181 b 39 528 82 986 39 778 b 210 -125 39 276 82 69 z m 581 133 l 818 133 l 1078 913 l 879 913 l 767 525 b 703 288 746 449 724 367 l 697 288 b 633 525 675 367 654 449 l 519 913 l 313 913 z m 1179 -125 b 1350 528 1307 69 1350 276 b 1179 1181 1350 778 1307 986 l 1089 1158 b 1233 528 1204 967 1233 765 b 1089 -103 1232 290 1204 89 z "},"⒲":{"ha":0,"x_min":0,"x_max":0,"o":"m 210 -125 l 300 -103 b 156 528 185 89 157 290 b 300 1158 156 765 185 967 l 210 1181 b 39 528 82 986 39 778 b 210 -125 39 276 82 69 z m 367 133 l 604 133 l 658 471 b 690 699 671 543 679 617 l 697 699 b 729 474 707 617 717 546 l 789 133 l 1031 133 l 1160 913 l 989 913 l 938 529 b 908 300 928 453 919 376 l 903 300 b 864 529 886 376 878 453 l 790 913 l 608 913 l 538 529 b 501 300 525 454 515 378 l 496 300 b 467 529 485 376 476 453 l 413 913 l 229 913 z m 1179 -125 b 1350 528 1307 69 1350 276 b 1179 1181 1350 778 1307 986 l 1089 1158 b 1233 528 1204 967 1233 765 b 1089 -103 1232 290 1204 89 z "},"⒳":{"ha":0,"x_min":0,"x_max":0,"o":"m 210 -125 l 300 -103 b 156 528 185 89 157 290 b 300 1158 156 765 185 967 l 210 1181 b 39 528 82 986 39 778 b 210 -125 39 276 82 69 z m 325 133 l 538 133 l 610 275 b 675 413 632 321 653 367 l 682 413 b 757 275 708 367 732 319 l 844 133 l 1064 133 l 822 515 l 1050 913 l 836 913 l 772 775 b 715 642 754 732 733 686 l 710 642 b 639 775 686 686 663 732 l 561 913 l 340 913 l 569 539 z m 1179 -125 b 1350 528 1307 69 1350 276 b 1179 1181 1350 778 1307 986 l 1089 1158 b 1233 528 1204 967 1233 765 b 1089 -103 1232 290 1204 89 z "},"⒴":{"ha":0,"x_min":0,"x_max":0,"o":"m 210 -125 l 300 -103 b 156 528 185 89 157 290 b 300 1158 156 765 185 967 l 210 1181 b 39 528 82 986 39 778 b 210 -125 39 276 82 69 z m 497 -24 b 804 221 664 -24 749 60 l 1071 1013 l 875 1013 l 774 653 b 715 432 753 581 735 506 l 710 432 b 643 653 688 507 668 582 l 524 1013 l 317 1013 l 617 247 l 607 213 b 482 139 594 164 553 139 b 425 150 464 139 440 144 l 388 -8 b 497 -24 418 -18 450 -24 z m 1179 -125 b 1350 528 1307 69 1350 276 b 1179 1181 1350 778 1307 986 l 1089 1158 b 1233 528 1204 967 1233 765 b 1089 -103 1232 290 1204 89 z "},"⒵":{"ha":0,"x_min":0,"x_max":0,"o":"m 210 -125 l 300 -103 b 156 528 185 89 157 290 b 300 1158 156 765 185 967 l 210 1181 b 39 528 82 986 39 778 b 210 -125 39 276 82 69 z m 394 133 l 1011 133 l 1011 294 l 651 294 l 1001 801 l 1001 913 l 435 913 l 435 750 l 744 750 l 394 242 z m 1179 -125 b 1350 528 1307 69 1350 276 b 1179 1181 1350 778 1307 986 l 1089 1158 b 1233 528 1204 967 1233 765 b 1089 -103 1232 290 1204 89 z "},"ⓐ":{"ha":0,"x_min":0,"x_max":0,"o":"m 694 -128 b 1350 528 1053 -128 1350 164 b 694 1183 1350 889 1056 1183 b 39 528 333 1183 39 889 b 694 -128 39 167 333 -128 z m 694 -76 b 90 528 361 -76 90 194 b 694 1132 90 858 358 1132 b 1299 528 1028 1132 1299 861 b 694 -76 1299 194 1028 -76 z m 628 254 b 781 321 690 254 740 282 l 788 321 l 800 267 l 917 267 l 917 568 b 714 796 917 719 844 796 b 489 728 632 796 554 765 l 542 631 b 689 679 589 658 642 679 b 769 599 746 679 768 649 b 471 410 560 578 471 521 b 628 254 471 322 532 254 z m 678 367 b 613 421 636 367 613 385 b 769 513 613 464 651 500 l 769 413 b 678 367 739 382 713 367 z "},"ⓑ":{"ha":0,"x_min":0,"x_max":0,"o":"m 694 -128 b 1350 528 1053 -128 1350 164 b 694 1183 1350 889 1056 1183 b 39 528 333 1183 39 889 b 694 -128 39 167 333 -128 z m 694 -76 b 90 528 361 -76 90 194 b 694 1132 90 858 358 1132 b 1299 528 1028 1132 1299 861 b 694 -76 1299 194 1028 -76 z m 769 188 b 989 468 883 188 989 289 b 783 729 989 625 910 729 b 640 667 732 729 682 704 l 646 750 l 646 933 l 500 933 l 500 200 l 613 200 l 625 253 l 632 253 b 769 188 669 210 722 188 z m 738 304 b 646 339 708 304 678 315 l 646 561 b 743 611 678 596 710 611 b 839 464 808 611 839 563 b 738 304 839 356 793 304 z "},"ⓒ":{"ha":0,"x_min":0,"x_max":0,"o":"m 694 -128 b 1350 528 1053 -128 1350 164 b 694 1183 1350 889 1056 1183 b 39 528 333 1183 39 889 b 694 -128 39 167 333 -128 z m 694 -76 b 90 528 361 -76 90 194 b 694 1132 90 858 358 1132 b 1299 528 1028 1132 1299 861 b 694 -76 1299 194 1028 -76 z m 713 254 b 889 314 796 254 854 285 l 829 407 b 731 371 807 388 778 371 b 610 525 658 371 610 433 b 732 679 610 617 661 679 b 815 647 767 679 790 668 l 883 742 b 721 796 853 768 800 796 b 458 525 581 796 458 694 b 713 254 458 354 567 254 z "},"ⓓ":{"ha":0,"x_min":0,"x_max":0,"o":"m 694 -128 b 1350 528 1053 -128 1350 164 b 694 1183 1350 889 1056 1183 b 39 528 333 1183 39 889 b 694 -128 39 167 333 -128 z m 694 -76 b 90 528 361 -76 90 194 b 694 1132 90 858 358 1132 b 1299 528 1028 1132 1299 861 b 694 -76 1299 194 1028 -76 z m 643 188 b 781 251 697 188 744 215 l 785 251 l 797 200 l 915 200 l 915 933 l 769 933 l 769 760 l 778 675 b 644 729 742 707 700 729 b 428 468 539 729 428 631 b 643 188 428 290 511 188 z m 682 304 b 578 468 614 304 578 356 b 678 613 578 561 624 613 b 769 575 710 613 738 603 l 769 354 b 682 304 742 321 714 304 z "},"ⓔ":{"ha":0,"x_min":0,"x_max":0,"o":"m 694 -128 b 1350 528 1053 -128 1350 164 b 694 1183 1350 889 1056 1183 b 39 528 333 1183 39 889 b 694 -128 39 167 333 -128 z m 694 -76 b 90 528 361 -76 90 194 b 694 1132 90 858 358 1132 b 1299 528 1028 1132 1299 861 b 694 -76 1299 194 1028 -76 z m 725 254 b 913 313 790 254 858 276 l 863 400 b 744 367 825 378 786 367 b 604 489 671 367 615 404 l 924 489 b 931 550 928 511 931 524 b 710 796 931 674 867 796 b 463 525 578 796 463 692 b 725 254 463 354 579 254 z m 601 574 b 713 685 613 647 654 685 b 806 574 781 685 806 629 z "},"ⓕ":{"ha":0,"x_min":0,"x_max":0,"o":"m 586 717 l 517 713 l 517 603 l 586 603 l 586 200 l 733 200 l 733 603 l 831 603 l 831 717 l 733 717 l 733 754 b 794 840 733 813 756 840 b 849 832 817 840 835 838 l 878 938 b 774 956 850 947 817 956 b 586 747 638 956 586 860 z m 694 -76 b 90 528 361 -76 90 194 b 694 1132 90 858 358 1132 b 1299 528 1028 1132 1299 861 b 694 -76 1299 194 1028 -76 z m 694 1183 b 39 528 333 1183 39 889 b 694 -128 39 167 333 -128 b 1350 528 1053 -128 1350 164 b 694 1183 1350 889 1056 1183 z "},"ⓖ":{"ha":0,"x_min":0,"x_max":0,"o":"m 694 -128 b 1350 528 1053 -128 1350 164 b 694 1183 1350 889 1056 1183 b 39 528 333 1183 39 889 b 694 -128 39 167 333 -128 z m 694 -76 b 90 528 361 -76 90 194 b 694 1132 90 858 358 1132 b 1299 528 1028 1132 1299 861 b 694 -76 1299 194 1028 -76 z m 671 115 b 958 301 849 115 958 197 b 764 432 958 393 893 432 l 674 432 b 594 471 615 432 594 443 b 617 511 594 489 603 499 b 682 500 642 503 663 500 b 886 676 792 500 886 558 b 867 747 886 703 878 732 l 951 747 l 951 856 l 764 856 b 682 868 739 865 710 868 b 467 681 568 868 467 804 b 538 547 467 619 499 571 l 538 540 b 479 446 504 518 479 482 b 526 358 479 403 497 376 l 526 351 b 453 249 479 328 453 293 b 671 115 453 157 547 115 z m 682 590 b 604 681 635 590 604 624 b 682 769 604 739 635 769 b 758 681 725 769 758 739 b 682 590 758 624 725 590 z m 694 208 b 574 274 619 208 574 231 b 606 328 574 293 585 310 b 676 321 628 321 654 321 l 738 321 b 819 278 790 321 819 310 b 694 208 819 240 768 208 z "},"ⓗ":{"ha":0,"x_min":0,"x_max":0,"o":"m 694 -128 b 1350 528 1053 -128 1350 164 b 694 1183 1350 889 1056 1183 b 39 528 333 1183 39 889 b 694 -128 39 167 333 -128 z m 694 -76 b 90 528 361 -76 90 194 b 694 1132 90 858 358 1132 b 1299 528 1028 1132 1299 861 b 694 -76 1299 194 1028 -76 z m 481 200 l 626 200 l 626 551 b 726 607 664 588 692 607 b 799 501 788 607 799 569 l 799 200 l 944 200 l 944 519 b 782 729 944 647 901 729 b 618 653 713 729 657 690 l 626 750 l 626 933 l 481 933 z "},"ⓘ":{"ha":0,"x_min":0,"x_max":0,"o":"m 694 -128 b 1350 528 1053 -128 1350 164 b 694 1183 1350 889 1056 1183 b 39 528 333 1183 39 889 b 694 -128 39 167 333 -128 z m 694 -76 b 90 528 361 -76 90 194 b 694 1132 90 858 358 1132 b 1299 528 1028 1132 1299 861 b 694 -76 1299 194 1028 -76 z m 622 200 l 768 200 l 768 717 l 622 717 z m 694 796 b 783 872 747 796 783 826 b 694 950 783 918 747 950 b 610 872 644 950 610 918 b 694 796 610 826 644 796 z "},"ⓙ":{"ha":0,"x_min":0,"x_max":0,"o":"m 694 -128 b 1350 528 1053 -128 1350 164 b 694 1183 1350 889 1056 1183 b 39 528 333 1183 39 889 b 694 -128 39 167 333 -128 z m 694 -76 b 90 528 361 -76 90 194 b 694 1132 90 858 358 1132 b 1299 528 1028 1132 1299 861 b 694 -76 1299 194 1028 -76 z m 604 38 b 783 243 739 38 783 129 l 783 772 l 636 772 l 636 238 b 583 153 636 179 625 153 b 540 160 564 153 551 156 l 514 50 b 604 38 536 44 561 38 z m 711 851 b 799 928 761 851 799 882 b 711 1006 799 974 761 1006 b 625 928 660 1006 625 974 b 711 851 625 882 660 851 z "},"ⓚ":{"ha":0,"x_min":0,"x_max":0,"o":"m 694 -128 b 1350 528 1053 -128 1350 164 b 694 1183 1350 889 1056 1183 b 39 528 333 1183 39 889 b 694 -128 39 167 333 -128 z m 694 -76 b 90 528 361 -76 90 194 b 694 1132 90 858 358 1132 b 1299 528 1028 1132 1299 861 b 694 -76 1299 194 1028 -76 z m 492 200 l 638 200 l 638 326 l 701 406 l 826 200 l 985 200 l 783 500 l 969 717 l 810 717 l 644 501 l 638 501 l 638 933 l 492 933 z "},"ⓛ":{"ha":0,"x_min":0,"x_max":0,"o":"m 694 -128 b 1350 528 1053 -128 1350 164 b 694 1183 1350 889 1056 1183 b 39 528 333 1183 39 889 b 694 -128 39 167 333 -128 z m 694 -76 b 90 528 361 -76 90 194 b 694 1132 90 858 358 1132 b 1299 528 1028 1132 1299 861 b 694 -76 1299 194 1028 -76 z m 742 188 b 818 199 778 188 799 193 l 799 307 b 778 304 789 304 785 304 b 751 347 763 304 751 317 l 751 933 l 606 933 l 606 356 b 742 188 606 253 639 188 z "},"ⓜ":{"ha":0,"x_min":0,"x_max":0,"o":"m 694 -128 b 1350 528 1053 -128 1350 164 b 694 1183 1350 889 1056 1183 b 39 528 333 1183 39 889 b 694 -128 39 167 333 -128 z m 694 -76 b 90 528 361 -76 90 194 b 694 1132 90 858 358 1132 b 1299 528 1028 1132 1299 861 b 694 -76 1299 194 1028 -76 z m 314 267 l 460 267 l 460 618 b 551 672 494 656 525 672 b 625 568 608 672 625 636 l 625 267 l 771 267 l 771 618 b 864 672 808 656 836 672 b 936 568 921 672 936 636 l 936 267 l 1083 267 l 1083 586 b 917 796 1083 713 1033 796 b 751 707 846 796 796 753 b 607 796 724 764 676 796 b 447 715 535 796 490 758 l 443 715 l 432 783 l 314 783 z "},"ⓝ":{"ha":0,"x_min":0,"x_max":0,"o":"m 694 -128 b 1350 528 1053 -128 1350 164 b 694 1183 1350 889 1056 1183 b 39 528 333 1183 39 889 b 694 -128 39 167 333 -128 z m 694 -76 b 90 528 361 -76 90 194 b 694 1132 90 858 358 1132 b 1299 528 1028 1132 1299 861 b 694 -76 1299 194 1028 -76 z m 465 267 l 611 267 l 611 617 b 713 672 649 654 678 672 b 785 568 772 672 785 636 l 785 267 l 931 267 l 931 586 b 768 796 931 713 886 796 b 599 715 697 796 642 758 l 596 715 l 582 783 l 465 783 z "},"ⓞ":{"ha":0,"x_min":0,"x_max":0,"o":"m 694 -128 b 1350 528 1053 -128 1350 164 b 694 1183 1350 889 1056 1183 b 39 528 333 1183 39 889 b 694 -128 39 167 333 -128 z m 694 -76 b 90 528 361 -76 90 194 b 694 1132 90 858 358 1132 b 1299 528 1028 1132 1299 861 b 694 -76 1299 194 1028 -76 z m 694 254 b 946 524 828 254 946 354 b 694 796 946 696 828 796 b 442 524 561 796 442 696 b 694 254 442 354 561 254 z m 694 371 b 592 524 625 371 592 432 b 694 679 592 618 625 679 b 796 524 763 679 796 618 b 694 371 796 432 763 371 z "},"ⓟ":{"ha":0,"x_min":0,"x_max":0,"o":"m 694 -128 b 1350 528 1053 -128 1350 164 b 694 1183 1350 889 1056 1183 b 39 528 333 1183 39 889 b 694 -128 39 167 333 -128 z m 694 -76 b 90 528 361 -76 90 194 b 694 1132 90 858 358 1132 b 1299 528 1028 1132 1299 861 b 694 -76 1299 194 1028 -76 z m 481 149 l 626 149 l 626 279 l 621 382 b 750 326 658 346 706 326 b 969 607 865 326 969 428 b 765 868 969 764 892 868 b 614 801 710 868 651 838 l 610 801 l 597 856 l 481 856 z m 719 443 b 626 478 689 443 658 454 l 626 700 b 724 750 660 735 690 750 b 819 603 789 750 819 701 b 719 443 819 494 775 443 z "},"ⓠ":{"ha":0,"x_min":0,"x_max":0,"o":"m 694 -128 b 1350 528 1053 -128 1350 164 b 694 1183 1350 889 1056 1183 b 39 528 333 1183 39 889 b 694 -128 39 167 333 -128 z m 694 -76 b 90 528 361 -76 90 194 b 694 1132 90 858 358 1132 b 1299 528 1028 1132 1299 861 b 694 -76 1299 194 1028 -76 z m 774 149 l 921 149 l 921 856 l 808 856 l 794 801 l 792 801 b 654 868 751 846 706 868 b 432 597 543 868 432 767 b 650 326 432 429 515 326 b 781 385 697 326 749 350 l 774 297 z m 686 446 b 582 600 618 446 582 497 b 683 750 582 700 632 750 b 774 713 713 750 744 738 l 774 492 b 686 446 744 457 718 446 z "},"ⓡ":{"ha":0,"x_min":0,"x_max":0,"o":"m 694 -128 b 1350 528 1053 -128 1350 164 b 694 1183 1350 889 1056 1183 b 39 528 333 1183 39 889 b 694 -128 39 167 333 -128 z m 694 -76 b 90 528 361 -76 90 194 b 694 1132 90 858 358 1132 b 1299 528 1028 1132 1299 861 b 694 -76 1299 194 1028 -76 z m 553 267 l 699 267 l 699 569 b 817 667 729 640 775 667 b 872 658 836 667 858 661 l 897 786 b 833 796 885 792 863 796 b 688 693 779 796 726 763 l 682 693 l 669 783 l 553 783 z "},"ⓢ":{"ha":0,"x_min":0,"x_max":0,"o":"m 694 -128 b 1350 528 1053 -128 1350 164 b 694 1183 1350 889 1056 1183 b 39 528 333 1183 39 889 b 694 -128 39 167 333 -128 z m 694 -76 b 90 528 361 -76 90 194 b 694 1132 90 858 358 1132 b 1299 528 1028 1132 1299 861 b 694 -76 1299 194 1028 -76 z m 689 254 b 899 419 824 254 899 325 b 758 574 899 514 822 550 b 651 643 704 596 651 608 b 714 688 651 669 672 688 b 826 643 753 688 788 671 l 892 733 b 710 796 847 765 790 796 b 515 638 590 796 515 728 b 657 482 515 549 588 508 b 764 410 713 460 764 447 b 693 361 764 382 740 361 b 553 417 647 361 603 381 l 489 324 b 689 254 542 283 618 254 z "},"ⓣ":{"ha":0,"x_min":0,"x_max":0,"o":"m 694 -128 b 1350 528 1053 -128 1350 164 b 694 1183 1350 889 1056 1183 b 39 528 333 1183 39 889 b 694 -128 39 167 333 -128 z m 694 -76 b 90 528 361 -76 90 194 b 694 1132 90 858 358 1132 b 1299 528 1028 1132 1299 861 b 694 -76 1299 194 1028 -76 z m 754 221 b 871 240 803 221 842 231 l 846 344 b 794 336 828 339 813 336 b 726 422 751 336 726 363 l 726 636 l 854 636 l 854 751 l 726 751 l 726 888 l 604 888 l 586 751 l 507 746 l 507 636 l 579 636 l 579 419 b 754 221 579 301 628 221 z "},"ⓤ":{"ha":0,"x_min":0,"x_max":0,"o":"m 694 -128 b 1350 528 1053 -128 1350 164 b 694 1183 1350 889 1056 1183 b 39 528 333 1183 39 889 b 694 -128 39 167 333 -128 z m 694 -76 b 90 528 361 -76 90 194 b 694 1132 90 858 358 1132 b 1299 528 1028 1132 1299 861 b 694 -76 1299 194 1028 -76 z m 625 254 b 790 333 696 254 751 294 l 794 333 l 810 267 l 928 267 l 928 783 l 781 783 l 781 432 b 681 378 744 394 713 378 b 607 479 618 378 607 411 l 607 783 l 461 783 l 461 460 b 625 254 461 336 508 254 z "},"ⓥ":{"ha":0,"x_min":0,"x_max":0,"o":"m 694 -128 b 1350 528 1053 -128 1350 164 b 694 1183 1350 889 1056 1183 b 39 528 333 1183 39 889 b 694 -128 39 167 333 -128 z m 694 -76 b 90 528 361 -76 90 194 b 694 1132 90 858 358 1132 b 1299 528 1028 1132 1299 861 b 694 -76 1299 194 1028 -76 z m 611 267 l 781 267 l 957 783 l 815 783 l 744 533 l 700 375 l 696 375 l 651 533 l 579 783 l 435 783 z "},"ⓦ":{"ha":0,"x_min":0,"x_max":0,"o":"m 694 -128 b 1350 528 1053 -128 1350 164 b 694 1183 1350 889 1056 1183 b 39 528 333 1183 39 889 b 694 -128 39 167 333 -128 z m 694 -76 b 90 528 361 -76 90 194 b 694 1132 90 858 358 1132 b 1299 528 1028 1132 1299 861 b 694 -76 1299 194 1028 -76 z m 449 267 l 617 267 l 667 482 l 693 625 l 697 625 l 725 482 l 776 267 l 947 267 l 1076 783 l 940 783 l 888 536 l 861 383 l 857 383 l 825 536 l 757 783 l 638 783 l 574 536 l 543 383 l 538 383 l 514 536 l 461 783 l 314 783 z "},"ⓧ":{"ha":0,"x_min":0,"x_max":0,"o":"m 694 -128 b 1350 528 1053 -128 1350 164 b 694 1183 1350 889 1056 1183 b 39 528 333 1183 39 889 b 694 -128 39 167 333 -128 z m 694 -76 b 90 528 361 -76 90 194 b 694 1132 90 858 358 1132 b 1299 528 1028 1132 1299 861 b 694 -76 1299 194 1028 -76 z m 440 267 l 593 267 l 638 354 l 682 438 l 689 438 l 739 354 l 792 267 l 949 267 l 786 519 l 939 783 l 788 783 l 744 696 l 710 617 l 704 617 l 660 696 l 610 783 l 451 783 l 607 535 z "},"ⓨ":{"ha":0,"x_min":0,"x_max":0,"o":"m 694 -128 b 1350 528 1053 -128 1350 164 b 694 1183 1350 889 1056 1183 b 39 528 333 1183 39 889 b 694 -128 39 167 333 -128 z m 694 -76 b 90 528 361 -76 90 194 b 694 1132 90 858 358 1132 b 1299 528 1028 1132 1299 861 b 694 -76 1299 194 1028 -76 z m 561 140 b 788 332 683 140 740 207 l 968 856 l 828 856 l 764 626 b 724 479 750 576 735 531 l 718 479 b 676 626 703 532 692 576 l 597 856 l 450 856 l 653 353 l 646 326 b 549 251 632 285 600 251 b 514 260 539 251 531 253 l 486 150 b 561 140 511 143 531 140 z "},"ⓩ":{"ha":0,"x_min":0,"x_max":0,"o":"m 694 -128 b 1350 528 1053 -128 1350 164 b 694 1183 1350 889 1056 1183 b 39 528 333 1183 39 889 b 694 -128 39 167 333 -128 z m 694 -76 b 90 528 361 -76 90 194 b 694 1132 90 858 358 1132 b 1299 528 1028 1132 1299 861 b 694 -76 1299 194 1028 -76 z m 492 267 l 911 267 l 911 381 l 675 381 l 904 704 l 904 783 l 519 783 l 519 669 l 721 669 l 492 344 z "},"▒":{"ha":0,"x_min":0,"x_max":0,"o":"m 1389 875 l 1389 944 l 1111 1222 l 1042 1222 z m 1389 528 l 1389 597 l 764 1222 l 694 1222 z m 1389 181 l 1389 250 l 417 1222 l 347 1222 z m 1389 -167 l 1389 -97 l 69 1222 l 0 1222 z m 1042 -167 l 1111 -167 l 0 944 l 0 875 z m 694 -167 l 764 -167 l 0 597 l 0 528 z m 347 -167 l 417 -167 l 0 250 l 0 181 z m 0 -167 l 69 -167 l 0 -97 z "},"■":{"ha":0,"x_min":0,"x_max":0,"o":"m 139 1083 l 139 -28 l 1250 -28 l 1250 1083 z "},"□":{"ha":0,"x_min":0,"x_max":0,"o":"m 139 1083 l 139 -28 l 1250 -28 l 1250 1083 z m 200 1022 l 1189 1022 l 1189 33 l 200 33 z "},"▣":{"ha":0,"x_min":0,"x_max":0,"o":"m 139 1083 l 139 -28 l 1250 -28 l 1250 1083 z m 200 1022 l 1189 1022 l 1189 33 l 200 33 z m 443 276 l 946 276 l 946 779 l 443 779 z "},"▤":{"ha":0,"x_min":0,"x_max":0,"o":"m 200 33 l 200 235 l 1189 235 l 1189 33 z m 1189 497 l 1189 296 l 200 296 l 200 497 z m 200 558 l 200 760 l 1189 760 l 1189 558 z m 1189 1022 l 1189 821 l 200 821 l 200 1022 z m 139 1083 l 139 -28 l 1250 -28 l 1250 1083 z "},"▥":{"ha":0,"x_min":0,"x_max":0,"o":"m 1189 33 l 988 33 l 988 1022 l 1189 1022 z m 200 1022 l 401 1022 l 401 33 l 200 33 z m 664 33 l 463 33 l 463 1022 l 664 1022 z m 725 1022 l 926 1022 l 926 33 l 725 33 z m 139 1083 l 139 -28 l 1250 -28 l 1250 1083 z "},"▦":{"ha":0,"x_min":0,"x_max":0,"o":"m 988 33 l 988 235 l 1189 235 l 1189 33 z m 200 235 l 401 235 l 401 33 l 200 33 z m 401 1022 l 401 821 l 200 821 l 200 1022 z m 988 558 l 988 760 l 1189 760 l 1189 558 z m 988 497 l 1189 497 l 1189 296 l 988 296 z m 725 296 l 725 497 l 926 497 l 926 296 z m 725 235 l 926 235 l 926 33 l 725 33 z m 664 235 l 664 33 l 463 33 l 463 235 z m 463 497 l 664 497 l 664 296 l 463 296 z m 401 497 l 401 296 l 200 296 l 200 497 z m 401 558 l 200 558 l 200 760 l 401 760 z m 664 760 l 664 558 l 463 558 l 463 760 z m 664 821 l 463 821 l 463 1022 l 664 1022 z m 926 760 l 926 558 l 725 558 l 725 760 z m 725 821 l 725 1022 l 926 1022 l 926 821 z m 1189 821 l 988 821 l 988 1022 l 1189 1022 z m 139 1083 l 139 -28 l 1250 -28 l 1250 1083 z "},"▧":{"ha":0,"x_min":0,"x_max":0,"o":"m 200 188 l 354 33 l 200 33 z m 1189 867 l 1033 1022 l 1189 1022 z m 772 1022 l 944 1022 l 1189 778 l 1189 606 z m 1189 339 l 506 1022 l 683 1022 l 1189 518 z m 242 1022 l 421 1022 l 1189 256 l 1189 75 z m 200 799 l 200 979 l 1146 33 l 965 33 z m 200 533 l 200 713 l 879 33 l 701 33 z m 200 449 l 615 33 l 440 33 l 200 272 z m 139 1083 l 139 -28 l 1250 -28 l 1250 1083 z "},"▨":{"ha":0,"x_min":0,"x_max":0,"o":"m 1040 33 l 1189 181 l 1189 33 z m 361 1022 l 200 861 l 200 1022 z m 971 1022 l 1153 1022 l 200 71 l 200 250 z m 200 600 l 200 775 l 446 1022 l 622 1022 z m 707 1022 l 886 1022 l 200 336 l 200 514 z m 429 33 l 249 33 l 1189 975 l 1189 793 z m 1189 442 l 1189 269 l 951 33 l 779 33 z m 692 33 l 514 33 l 1189 708 l 1189 531 z m 139 1083 l 139 -28 l 1250 -28 l 1250 1083 z "},"▩":{"ha":0,"x_min":0,"x_max":0,"o":"m 1189 867 l 1135 921 l 1189 975 z m 1136 128 l 1189 181 l 1189 75 z m 1093 86 l 1146 33 l 1040 33 z m 829 83 l 879 33 l 779 33 z m 565 85 l 615 33 l 514 33 z m 301 86 l 354 33 l 249 33 z m 200 188 l 258 129 l 200 71 z m 260 921 l 200 861 l 200 979 z m 301 963 l 242 1022 l 361 1022 z m 564 964 l 506 1022 l 622 1022 z m 829 965 l 772 1022 l 886 1022 z m 1033 1022 l 1153 1022 l 1093 963 z m 963 832 l 872 922 l 958 1008 l 1049 918 z m 1096 700 l 1004 790 l 1090 876 l 1182 786 z m 1138 657 l 1189 708 l 1189 606 z m 1138 390 l 1189 442 l 1189 339 z m 1006 258 l 1096 349 l 1182 263 l 1092 172 z m 963 217 l 1049 131 l 958 40 l 872 126 z m 740 260 l 831 350 l 919 261 l 829 171 z m 697 217 l 786 128 l 696 38 l 607 126 z m 475 260 l 564 349 l 654 258 l 565 169 z m 432 217 l 522 126 l 435 39 l 344 129 z m 299 350 l 389 260 l 301 172 l 211 261 z m 200 449 l 257 393 l 200 336 z m 200 713 l 257 657 l 200 600 z m 390 790 l 300 700 l 211 788 l 301 878 z m 432 832 l 344 919 l 433 1010 l 522 922 z m 654 790 l 564 700 l 475 789 l 564 879 z m 696 832 l 607 921 l 696 1011 l 785 921 z m 829 699 l 739 789 l 828 879 l 918 788 z m 963 567 l 871 657 l 960 746 l 1051 656 z m 1004 524 l 1093 613 l 1182 524 l 1093 435 z m 963 482 l 1051 393 l 961 303 l 872 392 z m 739 525 l 829 615 l 919 524 l 831 435 z m 697 482 l 788 392 l 697 301 l 607 392 z m 607 657 l 696 747 l 788 657 l 697 567 z m 474 525 l 564 615 l 654 525 l 564 435 z m 431 482 l 521 392 l 432 303 l 342 392 z m 342 657 l 432 747 l 522 658 l 432 568 z m 389 525 l 299 435 l 210 524 l 299 614 z m 139 1083 l 139 -28 l 1250 -28 l 1250 1083 z "},"▲":{"ha":0,"x_min":0,"x_max":0,"o":"m 694 1147 l 42 17 l 1347 17 z "},"△":{"ha":0,"x_min":0,"x_max":0,"o":"m 694 1147 l 42 17 l 1347 17 z m 694 1025 l 1242 78 l 147 78 z "},"▶":{"ha":0,"x_min":0,"x_max":0,"o":"m 1300 524 l 169 1176 l 169 -129 z "},"▷":{"ha":0,"x_min":0,"x_max":0,"o":"m 1300 524 l 169 1176 l 169 -129 z m 1178 524 l 231 -24 l 231 1071 z "},"▼":{"ha":0,"x_min":0,"x_max":0,"o":"m 42 1039 l 694 -92 l 1347 1039 z "},"▽":{"ha":0,"x_min":0,"x_max":0,"o":"m 42 1039 l 694 -92 l 1347 1039 z m 1242 978 l 694 31 l 147 978 z "},"◀":{"ha":0,"x_min":0,"x_max":0,"o":"m 1219 1176 l 89 524 l 1219 -129 z "},"◁":{"ha":0,"x_min":0,"x_max":0,"o":"m 1219 1176 l 89 524 l 1219 -129 z m 1158 -24 l 211 524 l 1158 1071 z "},"◆":{"ha":0,"x_min":0,"x_max":0,"o":"m 694 1206 l 17 528 l 694 -150 l 1372 528 z "},"◇":{"ha":0,"x_min":0,"x_max":0,"o":"m 694 1206 l 17 528 l 694 -150 l 1372 528 z m 694 1119 l 1286 528 l 694 -64 l 104 528 z "},"◈":{"ha":0,"x_min":0,"x_max":0,"o":"m 694 1206 l 17 528 l 694 -150 l 1372 528 z m 694 1119 l 1286 528 l 694 -64 l 104 528 z m 236 528 l 694 69 l 1153 528 l 694 986 z "},"○":{"ha":0,"x_min":0,"x_max":0,"o":"m 694 -97 b 1319 528 1040 -97 1319 182 b 694 1153 1319 874 1040 1153 b 69 528 349 1153 69 874 b 694 -97 69 182 349 -97 z m 131 528 b 694 1092 131 839 383 1092 b 1258 528 1006 1092 1258 839 b 694 -36 1258 217 1006 -36 b 131 528 383 -36 131 217 z "},"◎":{"ha":0,"x_min":0,"x_max":0,"o":"m 69 528 b 694 -97 69 182 349 -97 b 1319 528 1040 -97 1319 182 b 694 1153 1319 874 1040 1153 b 69 528 349 1153 69 874 z m 1258 528 b 694 -36 1258 217 1006 -36 b 131 528 383 -36 131 217 b 694 1092 131 839 383 1092 b 1258 528 1006 1092 1258 839 z m 286 528 b 694 119 286 301 468 119 b 1103 528 921 119 1103 301 b 694 936 1103 754 921 936 b 286 528 468 936 286 754 z m 1051 528 b 694 171 1051 331 892 171 b 338 528 497 171 338 331 b 694 885 338 725 497 885 b 1051 528 892 885 1051 725 z "},"●":{"ha":0,"x_min":0,"x_max":0,"o":"m 694 -97 b 1319 528 1040 -97 1319 182 b 694 1153 1319 874 1040 1153 b 69 528 349 1153 69 874 b 694 -97 69 182 349 -97 z "},"◐":{"ha":0,"x_min":0,"x_max":0,"o":"m 1306 528 b 694 1139 1306 865 1032 1139 b 83 528 357 1139 83 865 b 694 -83 83 190 357 -83 b 1306 528 1032 -83 1306 190 z m 694 1093 b 1260 528 1007 1093 1260 840 b 694 -37 1260 215 1007 -37 z "},"◑":{"ha":0,"x_min":0,"x_max":0,"o":"m 1306 528 b 694 1139 1306 865 1032 1139 b 83 528 357 1139 83 865 b 694 -83 83 190 357 -83 b 1306 528 1032 -83 1306 190 z m 694 -37 b 129 528 382 -37 129 215 b 694 1093 129 840 382 1093 z "},"★":{"ha":0,"x_min":0,"x_max":0,"o":"m 851 675 l 699 1140 l 690 1140 l 538 675 l 53 675 l 53 667 l 444 382 l 290 -86 l 296 -89 l 694 200 l 1093 -89 l 1099 -86 l 944 382 l 1336 667 l 1336 675 z "},"☆":{"ha":0,"x_min":0,"x_max":0,"o":"m 538 675 l 54 675 l 50 661 l 444 382 l 288 -83 l 297 -92 l 694 200 l 1092 -92 l 1101 -83 l 944 382 l 1339 661 l 1335 675 l 851 675 l 701 1140 l 688 1140 z m 582 614 l 651 828 l 693 983 l 696 983 l 736 828 l 807 614 l 1025 614 l 1188 624 l 1188 621 l 1050 532 l 872 406 l 942 203 l 1006 42 l 1003 39 l 865 151 l 694 276 l 524 151 l 386 39 l 383 42 l 447 203 l 517 406 l 339 532 l 201 621 l 201 624 l 364 614 z "},"☎":{"ha":0,"x_min":0,"x_max":0,"o":"m 457 792 l 457 703 b 292 433 457 606 394 533 b 164 103 196 340 164 225 b 228 38 164 58 181 38 l 1161 38 b 1225 103 1208 38 1225 58 b 1097 433 1225 225 1193 340 b 932 703 994 533 932 606 l 932 792 l 1081 792 l 1024 644 b 1042 593 1015 622 1013 597 l 1294 550 b 1333 589 1319 547 1333 561 b 1258 835 1333 650 1325 783 b 694 974 1142 925 989 974 b 131 835 400 974 247 925 b 56 589 64 783 56 650 b 94 550 56 561 69 547 l 347 593 b 365 644 376 599 374 622 l 308 792 z m 813 792 l 813 658 l 576 658 l 576 792 z m 461 347 b 694 581 461 476 565 581 b 928 347 824 581 928 476 b 694 114 928 218 824 114 b 461 347 565 114 461 218 z "},"☏":{"ha":0,"x_min":0,"x_max":0,"o":"m 947 347 b 694 600 947 485 832 600 b 442 347 557 600 442 485 b 694 94 442 210 557 94 b 947 347 832 94 947 210 z m 481 347 b 694 561 481 465 576 561 b 908 347 813 561 908 465 b 694 133 908 229 813 133 b 481 347 576 133 481 229 z m 557 639 l 832 639 l 832 811 l 557 811 z m 793 772 l 793 678 l 596 678 l 596 772 z m 347 638 l 347 636 b 343 613 354 621 353 614 l 92 569 b 75 589 79 568 75 572 b 143 819 75 650 83 774 b 694 954 257 907 403 954 b 1246 819 986 954 1132 907 b 1314 589 1306 774 1314 650 b 1297 569 1314 572 1310 568 l 1044 613 b 1042 636 1036 614 1035 621 l 1042 638 l 1108 811 l 913 811 l 913 703 b 1083 419 913 599 981 519 b 1206 103 1176 331 1206 222 b 1161 57 1206 68 1196 57 l 228 57 b 183 103 193 57 183 68 b 306 419 183 222 213 331 b 476 703 408 519 476 599 l 476 811 l 281 811 z m 438 772 l 438 703 b 278 447 438 613 381 547 b 144 103 179 350 144 228 b 228 18 144 51 171 18 l 1161 18 b 1244 103 1218 18 1244 51 b 1111 447 1244 228 1210 350 b 951 703 1008 547 951 613 l 951 772 l 1053 772 l 1006 651 l 1006 653 b 1038 574 994 626 994 583 l 1292 531 b 1353 589 1326 526 1353 553 b 1271 850 1353 650 1344 793 b 694 993 1151 943 992 993 b 118 850 397 993 238 943 b 36 589 44 793 36 650 b 97 531 36 553 63 526 l 350 574 b 383 653 394 583 394 626 l 383 651 l 336 772 z "},"☜":{"ha":0,"x_min":0,"x_max":0,"o":"m 374 631 b 160 629 304 629 201 626 b 76 679 88 635 76 657 b 164 738 76 692 76 721 b 579 779 233 751 428 769 b 583 775 582 779 583 778 b 583 753 585 768 585 760 b 581 749 582 751 582 750 b 482 664 554 725 510 693 b 431 636 469 650 449 640 b 374 631 417 633 397 631 z m 418 450 b 357 485 396 454 367 463 b 364 554 347 504 344 536 b 429 594 382 572 406 586 b 451 588 436 597 447 597 b 515 536 467 554 485 542 b 601 542 540 531 568 535 b 697 568 632 550 671 561 b 718 558 708 571 715 567 b 706 515 721 544 721 529 b 640 478 690 501 667 489 b 508 447 600 461 557 453 b 418 450 493 444 456 443 z m 544 322 b 451 339 510 322 476 325 b 414 404 425 354 417 381 b 421 411 414 408 417 411 b 467 408 438 408 453 408 b 651 444 538 408 600 422 b 733 485 678 456 708 472 b 763 483 744 492 756 489 b 775 449 771 474 775 463 b 714 378 775 424 756 404 b 544 322 663 343 588 322 z m 593 210 b 525 228 581 210 550 211 b 489 283 506 240 494 260 b 494 288 489 286 492 288 b 544 285 510 286 528 285 b 747 354 594 285 689 315 b 794 344 764 365 785 371 b 781 292 799 335 800 313 b 593 210 735 242 650 210 z m 1289 669 b 1303 658 1296 669 1303 665 l 1303 310 b 1286 296 1303 301 1294 296 l 1199 307 b 1181 304 1193 307 1186 307 b 869 204 1071 253 971 221 b 713 197 814 196 761 194 b 713 201 711 197 710 201 b 818 275 750 219 790 242 b 846 379 836 299 846 338 b 926 458 846 421 869 464 b 1096 467 996 451 1044 453 b 1119 489 1108 469 1119 479 b 1096 504 1119 499 1106 504 b 915 553 1040 504 975 522 b 804 635 856 583 818 615 b 782 640 800 642 789 644 b 590 578 767 633 669 601 b 489 593 542 564 501 568 b 514 646 483 603 489 618 b 629 740 546 682 603 722 b 783 782 676 771 714 782 b 1196 663 864 782 1032 733 b 1214 660 1201 660 1208 660 z m 1319 254 b 1338 264 1326 254 1333 257 b 1340 274 1339 267 1340 271 l 1340 692 b 1319 711 1340 703 1333 713 l 1217 699 b 1204 700 1213 697 1208 699 b 742 824 1018 779 854 824 b 157 775 619 824 261 794 b 39 679 106 765 39 744 b 157 592 39 639 64 599 b 339 592 194 589 272 590 b 343 585 343 592 346 588 b 338 581 340 583 339 582 b 324 468 310 553 304 506 b 369 425 332 450 347 436 b 375 415 374 424 375 419 b 432 306 378 364 397 326 b 447 299 438 303 442 301 b 450 294 449 299 450 296 b 504 197 453 251 472 218 b 593 172 538 175 574 172 b 619 174 601 172 610 174 b 624 174 621 175 622 174 b 754 158 644 165 710 158 b 875 168 792 158 832 161 b 1181 263 975 183 1078 215 b 1210 267 1190 267 1200 268 z "},"☞":{"ha":0,"x_min":0,"x_max":0,"o":"m 644 824 b 182 700 532 824 368 779 b 169 699 178 699 174 697 l 67 711 b 46 692 53 713 46 703 l 46 274 b 49 264 46 271 47 267 b 67 254 53 257 60 254 l 176 267 b 206 263 186 268 196 267 b 511 168 308 215 411 183 b 632 158 554 161 594 158 b 763 174 676 158 742 165 b 767 174 764 174 765 175 b 793 172 776 174 785 172 b 882 197 813 172 849 175 b 936 294 914 218 933 251 b 939 299 936 296 938 299 b 954 306 944 301 949 303 b 1011 415 989 326 1008 364 b 1017 425 1011 419 1013 424 b 1063 468 1039 436 1054 450 b 1049 581 1082 506 1076 553 b 1043 585 1047 582 1046 583 b 1047 592 1040 588 1043 592 b 1229 592 1114 590 1192 589 b 1347 679 1322 599 1347 639 b 1229 775 1347 744 1281 765 b 644 824 1125 794 767 824 z m 206 304 b 188 307 200 307 193 307 l 100 296 b 83 310 92 296 83 301 l 83 658 b 97 669 83 665 90 669 l 172 660 b 190 663 178 660 185 660 b 603 782 354 733 522 782 b 757 740 672 782 710 771 b 872 646 783 722 840 682 b 897 593 897 618 903 603 b 796 578 885 568 844 564 b 604 640 717 601 619 633 b 582 635 597 644 586 642 b 471 553 568 615 531 583 b 290 504 411 522 346 504 b 267 489 281 504 267 499 b 290 467 267 479 278 469 b 460 458 342 453 390 451 b 540 379 517 464 540 421 b 568 275 540 338 550 299 b 674 201 596 242 636 219 b 674 197 676 201 675 197 b 517 204 625 194 572 196 b 206 304 415 221 315 253 z m 793 210 b 606 292 736 210 651 242 b 592 344 586 313 588 335 b 639 354 601 371 622 365 b 842 285 697 315 792 285 b 892 288 858 285 876 286 b 897 283 894 288 897 286 b 861 228 892 260 881 240 b 793 210 836 211 806 210 z m 842 322 b 672 378 799 322 724 343 b 611 449 631 404 611 424 b 624 483 611 463 615 474 b 653 485 631 489 642 492 b 735 444 678 472 708 456 b 919 408 786 422 849 408 b 965 411 933 408 949 408 b 972 404 969 411 972 408 b 935 339 969 381 961 354 b 842 322 910 325 876 322 z m 968 450 b 878 447 931 443 893 444 b 746 478 829 453 786 461 b 681 515 719 489 696 501 b 668 558 665 529 665 544 b 689 568 671 567 678 571 b 785 542 715 561 754 550 b 871 536 818 535 846 531 b 935 588 901 542 919 554 b 957 594 939 597 950 597 b 1022 554 981 586 1004 572 b 1029 485 1042 536 1039 504 b 968 450 1019 463 990 454 z m 1013 631 b 956 636 989 631 969 633 b 904 664 938 640 917 650 b 806 749 876 693 832 725 b 803 753 804 750 804 751 b 803 775 801 760 801 768 b 807 779 803 778 804 779 b 1222 738 958 769 1153 751 b 1310 679 1310 721 1310 692 b 1226 629 1310 657 1299 635 b 1013 631 1185 626 1082 629 z "},"♀":{"ha":0,"x_min":0,"x_max":0,"o":"m 374 818 b 624 506 374 665 479 538 l 624 392 l 244 392 l 244 250 l 624 250 l 624 -83 l 765 -83 l 765 250 l 1144 250 l 1144 392 l 765 392 l 765 506 b 1015 818 910 538 1015 665 b 694 1139 1015 996 872 1139 b 374 818 517 1139 374 996 z m 875 818 b 694 638 875 718 794 638 b 514 818 596 638 514 718 b 694 997 514 917 596 997 b 875 818 794 997 875 917 z "},"♂":{"ha":0,"x_min":0,"x_max":0,"o":"m 797 310 b 744 485 797 374 778 433 l 1079 818 l 1079 510 l 1219 510 l 1219 1053 l 676 1053 l 676 913 l 975 913 l 644 582 b 476 631 594 614 538 631 b 156 310 299 631 156 488 b 476 -11 156 132 299 -11 b 797 310 654 -11 797 132 z m 296 310 b 476 490 296 408 376 490 b 657 310 575 490 657 408 b 476 129 657 210 575 129 b 296 310 376 129 296 210 z "},"♠":{"ha":0,"x_min":0,"x_max":0,"o":"m 1010 832 b 697 1183 886 950 747 1104 b 692 1183 696 1186 693 1186 b 379 832 642 1104 503 950 b 115 394 278 736 115 593 b 393 92 115 233 228 92 b 622 226 499 92 588 147 b 644 257 632 247 633 257 b 653 232 654 257 653 235 b 515 -54 644 88 593 11 b 515 -82 499 -68 510 -82 l 874 -82 b 874 -54 879 -82 889 -68 b 736 232 796 11 744 88 b 744 257 736 235 735 257 b 767 226 756 257 757 247 b 996 92 801 147 890 92 b 1274 394 1163 92 1274 233 b 1010 832 1274 593 1111 736 z "},"♡":{"ha":0,"x_min":0,"x_max":0,"o":"m 699 910 b 693 910 697 906 694 906 b 399 1111 621 1071 499 1111 b 106 774 239 1111 106 964 b 378 315 106 567 272 417 b 693 -57 504 194 642 28 b 699 -57 694 -60 697 -60 b 1014 315 750 28 888 194 b 1286 774 1119 417 1286 565 b 993 1111 1286 964 1153 1111 b 699 910 893 1111 769 1069 z m 1225 774 b 971 360 1225 597 1068 453 b 699 47 853 249 750 126 b 693 47 697 44 694 44 b 421 358 642 126 540 247 b 167 774 325 451 167 599 b 399 1050 167 933 275 1050 b 653 857 515 1050 589 993 b 696 815 663 833 676 815 b 739 857 715 815 729 833 b 993 1050 803 993 876 1050 b 1225 774 1117 1050 1225 933 z "},"♣":{"ha":0,"x_min":0,"x_max":0,"o":"m 644 257 b 653 232 654 257 653 235 b 515 -54 644 88 593 11 b 517 -82 500 -68 510 -82 l 874 -82 b 874 -54 879 -82 890 -68 b 736 232 796 11 746 88 b 744 257 736 235 735 257 b 767 226 756 257 754 246 b 1021 82 824 138 917 82 b 1300 364 1178 82 1300 199 b 1018 647 1300 522 1183 647 b 900 615 979 647 932 632 b 890 618 900 615 893 613 b 894 631 886 625 894 631 b 981 832 943 676 981 749 b 694 1119 981 990 853 1119 b 408 831 535 1119 408 989 b 494 631 408 747 446 676 b 499 618 494 631 503 625 b 489 615 496 613 489 615 b 369 647 457 632 411 647 b 89 364 208 647 89 522 b 368 82 89 199 211 82 b 622 226 478 82 571 146 b 644 257 635 246 633 257 z "},"♤":{"ha":0,"x_min":0,"x_max":0,"o":"m 900 -87 b 900 -57 906 -87 917 -71 b 782 151 835 10 804 58 b 774 201 776 175 772 201 b 783 186 774 201 778 196 b 1000 85 828 121 915 85 b 1282 392 1168 85 1282 228 b 1015 836 1282 594 1118 739 b 697 1193 889 957 749 1113 b 692 1193 696 1196 693 1196 b 374 836 640 1113 500 957 b 107 392 271 739 107 594 b 389 85 107 228 219 85 b 606 186 474 85 561 121 b 615 201 611 196 615 201 b 607 151 617 201 613 175 b 489 -57 585 58 554 10 b 489 -87 474 -71 483 -87 z m 601 -26 b 615 -1 596 -26 606 -17 b 675 211 646 44 675 117 b 639 297 675 250 669 297 b 582 249 618 297 604 276 b 386 146 533 189 474 146 b 168 393 254 146 168 257 b 414 792 168 568 324 707 b 693 1094 525 897 647 1025 b 699 1094 694 1097 697 1097 b 976 792 744 1025 865 897 b 1221 393 1065 707 1221 568 b 1003 146 1221 257 1135 146 b 807 249 915 146 856 189 b 750 297 785 276 771 297 b 714 211 719 297 714 250 b 774 -1 714 117 743 44 b 788 -26 783 -17 793 -26 z "},"♥":{"ha":0,"x_min":0,"x_max":0,"o":"m 701 883 b 694 874 700 879 699 874 b 688 883 690 874 689 879 b 400 1106 646 1038 531 1106 b 110 771 242 1106 110 960 b 379 318 110 567 275 418 b 692 -51 506 197 640 32 b 697 -51 693 -54 696 -54 b 1010 318 749 32 883 197 b 1279 771 1114 418 1279 565 b 989 1106 1279 960 1147 1106 b 701 883 858 1106 742 1038 z "},"♧":{"ha":0,"x_min":0,"x_max":0,"o":"m 478 572 b 551 579 514 560 539 560 b 522 669 571 608 544 638 b 464 836 499 701 464 756 b 694 1065 464 961 569 1065 b 925 836 819 1065 925 961 b 867 669 925 756 890 701 b 838 579 844 638 818 608 b 911 572 850 560 875 560 b 1024 594 939 582 976 594 b 1246 367 1160 594 1246 494 b 1025 139 1246 236 1143 139 b 813 247 935 139 864 181 b 757 297 796 269 781 297 b 715 211 728 297 715 257 b 774 -3 715 117 732 61 b 788 -26 785 -18 793 -26 l 601 -26 b 615 -3 596 -26 604 -18 b 674 211 657 61 674 117 b 632 297 674 257 661 297 b 581 253 608 297 593 271 b 364 139 525 182 454 139 b 143 367 246 139 143 236 b 365 594 143 494 229 594 b 478 572 413 594 450 582 z m 82 367 b 364 78 82 200 204 78 b 603 190 456 78 547 117 b 614 207 611 200 614 207 b 610 151 615 207 614 172 b 489 -57 589 56 549 7 b 489 -87 472 -72 483 -87 l 900 -87 b 900 -57 906 -87 915 -72 b 779 151 840 7 800 56 b 775 207 775 172 774 207 b 786 190 775 207 778 200 b 1025 78 842 117 933 78 b 1307 367 1185 78 1307 200 b 1024 656 1307 528 1192 656 b 914 633 978 656 933 642 b 913 636 911 632 910 633 b 986 836 946 674 986 744 b 694 1126 986 996 856 1126 b 403 836 533 1126 403 996 b 476 636 403 744 443 672 b 475 633 479 633 478 632 b 365 656 456 642 411 656 b 82 367 197 656 82 528 z "},"♨":{"ha":0,"x_min":0,"x_max":0,"o":"m 635 635 b 697 426 676 561 697 489 b 608 236 697 363 668 294 l 667 213 b 800 481 764 283 800 376 b 740 685 800 535 782 613 b 678 893 699 758 678 831 b 767 1083 678 957 707 1025 l 708 1107 b 575 839 611 1036 575 943 b 635 635 575 785 593 707 z m 394 638 b 457 453 435 574 457 506 b 378 288 457 400 439 342 l 435 264 b 556 501 531 331 556 417 b 499 682 556 549 540 618 b 436 867 457 747 436 814 b 514 1032 436 919 453 978 l 458 1056 b 338 818 361 989 338 901 b 394 638 338 771 353 701 z m 881 638 b 943 453 922 574 943 506 b 865 288 943 400 926 342 l 922 264 b 1042 501 1018 331 1042 417 b 985 682 1042 549 1026 618 b 922 867 944 747 922 814 b 1001 1032 922 919 940 978 l 944 1056 b 824 818 849 989 824 901 b 881 638 824 771 840 701 z m 1288 318 b 1085 543 1288 435 1208 515 l 1051 503 b 1178 356 1131 479 1178 429 b 694 118 1178 224 971 118 b 211 356 418 118 211 224 b 338 503 211 429 258 479 l 304 543 b 101 318 181 515 101 435 b 694 -28 101 119 361 -28 b 1288 318 1028 -28 1288 119 z "},"♩":{"ha":0,"x_min":0,"x_max":0,"o":"m 719 1167 l 719 165 b 632 183 699 176 664 183 b 392 -8 518 183 392 90 b 521 -111 392 -76 457 -111 b 775 125 653 -111 775 -19 l 775 1167 z "},"♪":{"ha":0,"x_min":0,"x_max":0,"o":"m 675 1167 l 675 165 b 588 183 654 176 619 183 b 347 -8 474 183 347 90 b 476 -111 347 -76 413 -111 b 731 125 608 -111 731 -19 l 731 822 b 985 501 875 790 985 663 b 897 210 985 390 928 274 l 933 210 b 1050 549 1000 317 1050 432 b 871 861 1050 679 956 788 b 710 1167 786 935 710 1033 z "},"♬":{"ha":0,"x_min":0,"x_max":0,"o":"m 361 1010 l 361 144 b 274 163 340 156 306 163 b 33 -29 160 163 33 69 b 163 -132 33 -97 99 -132 b 417 104 294 -132 417 -40 l 417 644 l 1118 797 l 1118 322 b 1031 340 1097 333 1063 340 b 790 149 917 340 790 247 b 919 46 790 81 856 46 b 1174 282 1051 46 1174 138 l 1174 1188 z m 1118 936 l 417 783 l 417 883 l 1118 1036 z "},"♭":{"ha":0,"x_min":0,"x_max":0,"o":"m 833 647 b 533 454 706 647 597 568 l 533 1151 l 478 1151 l 478 -94 l 490 -94 b 1038 464 682 128 1038 183 b 833 647 1038 567 954 647 z m 533 3 l 533 382 b 746 553 601 496 682 553 b 843 436 803 553 843 521 b 533 3 843 249 661 151 z "},"、":{"ha":0,"x_min":0,"x_max":0,"o":"m 503 32 b 200 336 432 118 299 256 l 56 211 b 354 -96 153 128 269 8 z "},"。":{"ha":0,"x_min":0,"x_max":0,"o":"m 268 344 b 44 119 146 344 44 243 b 268 -106 44 -4 146 -106 b 493 119 393 -106 493 -4 b 268 344 493 243 393 344 z m 268 -4 b 144 119 201 -4 144 50 b 268 244 144 189 201 244 b 393 119 338 244 393 189 b 268 -4 393 50 338 -4 z "},"〃":{"ha":0,"x_min":0,"x_max":0,"o":"m 497 860 l 268 204 l 374 157 l 689 775 z m 926 860 l 699 204 l 804 157 l 1119 775 z "},"〈":{"ha":0,"x_min":0,"x_max":0,"o":"m 951 528 l 1314 1124 l 1176 1183 l 778 528 l 1176 -128 l 1314 -68 z "},"〉":{"ha":0,"x_min":0,"x_max":0,"o":"m 213 -128 l 611 528 l 213 1183 l 75 1124 l 438 528 l 75 -68 z "},"《":{"ha":0,"x_min":0,"x_max":0,"o":"m 849 528 l 1111 1147 l 996 1183 l 719 528 l 996 -128 l 1111 -92 z m 1088 528 l 1351 1147 l 1235 1183 l 960 528 l 1235 -128 l 1351 -92 z "},"》":{"ha":0,"x_min":0,"x_max":0,"o":"m 393 -128 l 669 528 l 393 1183 l 278 1147 l 540 528 l 278 -92 z m 154 -128 l 429 528 l 154 1183 l 38 1147 l 301 528 l 38 -92 z "},"「":{"ha":0,"x_min":0,"x_max":0,"o":"m 890 296 l 1054 296 l 1054 1033 l 1350 1033 l 1350 1183 l 890 1183 z "},"」":{"ha":0,"x_min":0,"x_max":0,"o":"m 500 760 l 335 760 l 335 22 l 39 22 l 39 -128 l 500 -128 z "},"『":{"ha":0,"x_min":0,"x_max":0,"o":"m 1350 936 l 1350 1183 l 833 1183 l 833 265 l 1100 265 l 1100 936 z m 1289 1122 l 1289 997 l 1040 997 l 1040 326 l 894 326 l 894 1122 z "},"』":{"ha":0,"x_min":0,"x_max":0,"o":"m 39 119 l 39 -128 l 556 -128 l 556 790 l 289 790 l 289 119 z m 100 -67 l 100 58 l 349 58 l 349 729 l 494 729 l 494 -67 z "},"【":{"ha":0,"x_min":0,"x_max":0,"o":"m 917 1183 l 917 -128 l 1350 -128 l 1350 -121 b 1075 528 1199 10 1075 243 b 1350 1176 1075 813 1199 1046 l 1350 1183 z "},"】":{"ha":0,"x_min":0,"x_max":0,"o":"m 472 1183 l 39 1183 l 39 1176 b 314 528 190 1046 314 813 b 39 -121 314 243 190 10 l 39 -128 l 472 -128 z "},"〓":{"ha":0,"x_min":0,"x_max":0,"o":"m 1250 1083 l 139 1083 l 139 667 l 1250 667 z m 1250 389 l 139 389 l 139 -28 l 1250 -28 z "},"〔":{"ha":0,"x_min":0,"x_max":0,"o":"m 1288 -144 l 1354 -35 l 1115 118 l 1115 938 l 1354 1090 l 1288 1200 l 963 992 l 963 64 z "},"〕":{"ha":0,"x_min":0,"x_max":0,"o":"m 426 64 l 426 992 l 101 1200 l 35 1090 l 274 938 l 274 118 l 35 -35 l 101 -144 z "},"ㄱ":{"ha":583,"x_min":0,"x_max":0,"o":"m 235 871 l 235 725 l 863 725 l 863 182 l 1043 182 l 1043 871 z "},"ㄲ":{"ha":583,"x_min":0,"x_max":0,"o":"m 151 871 l 151 725 l 442 725 l 442 182 l 622 182 l 622 871 z m 682 872 l 682 725 l 949 725 l 949 183 l 1129 183 l 1129 872 z "},"ㄳ":{"ha":583,"x_min":0,"x_max":0,"o":"m 961 879 l 789 879 l 789 651 b 589 311 789 510 738 378 l 589 867 l 157 867 l 157 721 l 408 721 l 408 182 l 589 182 l 589 263 l 656 169 b 875 381 764 211 833 286 b 1094 169 917 286 986 211 l 1188 300 b 961 651 1019 361 961 501 z "},"ㄴ":{"ha":583,"x_min":0,"x_max":0,"o":"m 419 339 l 419 861 l 235 861 l 235 193 l 1057 193 l 1057 339 z "},"ㄵ":{"ha":583,"x_min":0,"x_max":0,"o":"m 928 736 l 1101 736 l 1101 883 l 582 883 l 582 736 l 754 736 l 754 703 b 575 324 754 547 711 400 l 571 353 b 353 326 499 336 431 329 l 353 885 l 169 885 l 169 179 l 242 179 b 588 207 379 179 478 182 l 583 242 l 636 172 b 842 396 738 219 803 299 b 1053 171 882 299 950 218 l 1151 304 b 928 703 981 375 928 533 z "},"ㄶ":{"ha":583,"x_min":0,"x_max":0,"o":"m 347 867 l 167 867 l 167 189 l 239 189 b 588 217 378 189 476 192 l 569 363 b 347 336 496 346 426 339 z m 840 294 b 761 385 794 294 761 326 b 840 474 761 443 794 474 b 919 385 886 474 919 443 b 840 294 919 326 886 294 z m 840 614 b 607 385 710 614 607 518 b 840 154 607 251 710 154 b 1074 385 971 154 1074 251 b 840 614 1074 518 971 614 z m 935 793 l 935 903 l 758 903 l 758 793 l 563 793 l 563 647 l 1111 647 l 1111 793 z "},"ㄷ":{"ha":583,"x_min":0,"x_max":0,"o":"m 424 329 l 424 729 l 1036 729 l 1036 875 l 240 875 l 240 182 l 1047 182 l 1047 329 z "},"ㄸ":{"ha":583,"x_min":0,"x_max":0,"o":"m 365 719 l 604 719 l 604 865 l 185 865 l 185 189 l 260 189 b 626 217 404 189 507 192 l 610 367 b 365 340 526 349 453 342 z m 857 335 l 857 719 l 1092 719 l 1092 865 l 676 865 l 676 189 l 1099 189 l 1099 335 z "},"ㄹ":{"ha":583,"x_min":0,"x_max":0,"o":"m 401 324 l 401 461 l 1039 461 l 1039 881 l 226 881 l 226 736 l 865 736 l 865 606 l 228 606 l 228 175 l 1058 175 l 1058 324 z "},"ㄺ":{"ha":583,"x_min":0,"x_max":0,"o":"m 350 461 l 608 461 l 608 881 l 167 881 l 167 735 l 428 735 l 428 608 l 169 608 l 169 182 l 254 182 b 686 213 429 182 549 185 l 671 358 b 350 328 564 338 469 331 z m 653 881 l 653 735 l 919 735 l 919 185 l 1099 185 l 1099 881 z "},"ㄻ":{"ha":583,"x_min":0,"x_max":0,"o":"m 346 461 l 601 461 l 601 881 l 163 881 l 163 733 l 422 733 l 422 608 l 165 608 l 165 182 l 244 182 b 638 210 400 182 510 185 l 622 356 b 346 329 528 338 444 331 z m 971 331 l 828 331 l 828 736 l 971 736 z m 668 882 l 668 185 l 1129 185 l 1129 882 z "},"ㄼ":{"ha":583,"x_min":0,"x_max":0,"o":"m 346 461 l 601 461 l 601 881 l 163 881 l 163 733 l 422 733 l 422 608 l 165 608 l 165 181 l 243 181 b 638 210 400 181 508 183 l 621 356 b 346 328 529 338 446 329 z m 958 329 l 831 329 l 831 532 l 958 532 z m 958 882 l 958 681 l 831 681 l 831 882 l 661 882 l 661 181 l 1128 181 l 1128 882 z "},"ㄽ":{"ha":583,"x_min":0,"x_max":0,"o":"m 971 886 l 799 886 l 799 660 b 624 326 799 524 753 396 l 621 358 b 343 329 528 339 444 331 l 343 461 l 599 461 l 599 881 l 160 881 l 160 733 l 418 733 l 418 608 l 163 608 l 163 182 l 242 182 b 638 213 400 182 511 186 l 635 238 l 678 178 b 885 385 779 219 846 293 b 1090 178 924 293 990 219 l 1185 307 b 971 660 1026 369 971 510 z "},"ㄾ":{"ha":583,"x_min":0,"x_max":0,"o":"m 346 461 l 603 461 l 603 881 l 164 881 l 164 733 l 422 733 l 422 608 l 165 608 l 165 183 l 244 183 b 642 214 404 183 515 186 l 624 358 b 346 331 533 339 449 332 z m 850 328 l 850 460 l 1096 460 l 1096 607 l 850 607 l 850 735 l 1110 735 l 1110 881 l 671 881 l 671 182 l 1121 182 l 1121 328 z "},"ㄿ":{"ha":583,"x_min":0,"x_max":0,"o":"m 346 461 l 590 461 l 590 881 l 164 881 l 164 733 l 410 733 l 410 608 l 165 608 l 165 206 l 167 206 l 167 182 l 244 182 b 632 211 400 182 508 186 l 615 358 b 346 329 525 339 444 331 z m 861 733 l 931 733 l 931 328 l 861 328 z m 1089 328 l 1089 733 l 1150 733 l 1150 879 l 643 879 l 643 733 l 703 733 l 703 328 l 642 328 l 642 182 l 1153 182 l 1153 328 z "},"ㅀ":{"ha":583,"x_min":0,"x_max":0,"o":"m 356 458 l 578 458 l 578 865 l 174 865 l 174 726 l 397 726 l 397 597 l 176 597 l 176 167 l 253 167 b 633 196 406 167 511 169 l 617 340 b 356 314 529 324 450 315 z m 899 294 b 818 382 853 294 818 324 b 899 469 818 440 853 469 b 978 382 944 469 978 440 b 899 294 978 324 944 294 z m 899 610 b 665 382 768 610 665 514 b 899 154 665 250 768 154 b 1132 382 1029 154 1132 250 b 899 610 1132 514 1029 610 z m 994 789 l 994 901 l 818 901 l 818 789 l 635 789 l 635 643 l 1163 643 l 1163 789 z "},"ㅁ":{"ha":583,"x_min":0,"x_max":0,"o":"m 238 868 l 238 192 l 1047 192 l 1047 868 z m 865 721 l 865 338 l 418 338 l 418 721 z "},"ㅂ":{"ha":583,"x_min":0,"x_max":0,"o":"m 238 881 l 238 174 l 1044 174 l 1044 881 l 864 881 l 864 681 l 419 681 l 419 881 z m 419 519 l 864 519 l 864 333 l 419 333 z "},"ㅃ":{"ha":583,"x_min":0,"x_max":0,"o":"m 189 878 l 189 183 l 629 183 l 629 878 l 461 878 l 461 678 l 356 678 l 356 878 z m 356 529 l 461 529 l 461 332 l 356 332 z m 669 878 l 669 185 l 1108 185 l 1108 878 l 942 878 l 942 679 l 835 679 l 835 878 z m 835 531 l 942 531 l 942 333 l 835 333 z "},"ㅄ":{"ha":583,"x_min":0,"x_max":0,"o":"m 461 332 l 356 332 l 356 531 l 461 531 z m 983 881 l 811 881 l 811 653 b 629 319 811 515 764 389 l 629 879 l 461 879 l 461 679 l 356 679 l 356 879 l 189 879 l 189 183 l 629 183 l 629 239 l 678 169 b 897 381 786 211 856 286 b 1117 169 939 286 1008 211 l 1210 301 b 983 653 1042 361 983 503 z "},"ㅅ":{"ha":583,"x_min":0,"x_max":0,"o":"m 733 894 l 550 894 l 550 704 b 176 306 550 519 438 360 l 263 161 b 642 428 444 204 572 299 b 1021 161 710 299 838 204 l 1107 306 b 733 704 846 360 733 519 z "},"ㅆ":{"ha":583,"x_min":0,"x_max":0,"o":"m 981 854 l 796 854 l 796 763 b 656 393 796 633 760 492 b 515 763 550 492 515 636 l 515 854 l 332 854 l 332 764 b 94 346 332 600 275 426 l 196 214 b 426 479 313 267 385 363 b 654 197 465 360 536 257 b 885 478 772 256 844 358 b 1117 214 926 361 1000 267 l 1217 347 b 981 764 1036 425 981 594 z "},"ㅇ":{"ha":583,"x_min":0,"x_max":0,"o":"m 640 893 b 233 531 417 893 233 740 b 640 167 233 321 417 167 b 1047 531 864 167 1047 321 b 640 893 1047 740 864 893 z m 640 738 b 872 531 769 738 872 657 b 640 322 872 403 769 322 b 407 531 510 322 407 403 b 640 738 407 657 510 738 z "},"ㅈ":{"ha":583,"x_min":0,"x_max":0,"o":"m 735 742 l 1054 742 l 1054 888 l 239 888 l 239 742 l 551 742 l 551 708 b 196 306 551 522 443 361 l 281 167 b 643 447 458 213 578 313 b 1006 167 707 313 828 213 l 1090 306 b 735 708 843 361 735 522 z "},"ㅉ":{"ha":583,"x_min":0,"x_max":0,"o":"m 1161 746 l 1161 892 l 681 892 l 681 746 l 814 746 b 656 356 810 568 772 429 b 497 746 538 429 501 568 l 628 746 l 628 892 l 149 892 l 149 746 l 317 746 b 76 318 311 568 253 400 l 183 176 b 397 401 286 225 354 303 b 656 157 443 288 522 206 b 913 400 789 204 867 288 b 1125 176 956 303 1024 225 l 1232 318 b 993 746 1057 400 999 569 z "},"ㅊ":{"ha":583,"x_min":0,"x_max":0,"o":"m 749 599 l 1053 599 l 1053 749 l 732 749 l 732 939 l 549 939 l 549 749 l 228 749 l 228 599 l 529 599 l 529 586 b 183 260 529 433 432 303 l 264 117 b 639 375 454 156 578 246 b 1014 117 700 246 824 156 l 1096 260 b 749 586 847 303 749 433 z "},"ㅋ":{"ha":583,"x_min":0,"x_max":0,"o":"m 257 889 l 257 743 l 872 743 l 872 578 l 222 551 l 243 394 l 872 438 l 872 172 l 1056 172 l 1056 889 z "},"ㅌ":{"ha":583,"x_min":0,"x_max":0,"o":"m 417 326 l 417 461 l 1032 461 l 1032 607 l 417 607 l 417 732 l 1043 732 l 1043 878 l 233 878 l 233 181 l 1054 181 l 1054 326 z "},"ㅍ":{"ha":583,"x_min":0,"x_max":0,"o":"m 535 732 l 751 732 l 751 317 l 535 317 z m 935 317 l 935 732 l 1057 732 l 1057 878 l 228 878 l 228 732 l 351 732 l 351 317 l 208 317 l 208 171 l 1076 171 l 1076 317 z "},"ㅎ":{"ha":583,"x_min":0,"x_max":0,"o":"m 644 246 b 496 342 560 246 496 278 b 644 438 496 406 560 438 b 793 342 728 438 793 406 b 644 246 793 278 728 246 z m 644 592 b 308 342 451 592 308 488 b 644 92 308 196 451 92 b 979 342 838 92 979 196 b 644 592 979 488 838 592 z m 736 806 l 736 964 l 553 964 l 553 806 l 221 806 l 221 657 l 1064 657 l 1064 806 z "},"ㅏ":{"ha":583,"x_min":0,"x_max":0,"o":"m 953 676 l 692 676 l 692 1161 l 507 1161 l 507 -104 l 692 -104 l 692 525 l 953 525 z "},"ㅐ":{"ha":583,"x_min":0,"x_max":0,"o":"m 732 1161 l 732 683 l 567 683 l 567 1142 l 397 1142 l 397 -57 l 567 -57 l 567 533 l 732 533 l 732 -104 l 906 -104 l 906 1161 z "},"ㅑ":{"ha":583,"x_min":0,"x_max":0,"o":"m 915 689 l 915 840 l 660 840 l 660 1161 l 476 1161 l 476 -104 l 660 -104 l 660 328 l 915 328 l 915 479 l 660 479 l 660 689 z "},"ㅒ":{"ha":583,"x_min":0,"x_max":0,"o":"m 568 501 l 568 717 l 722 717 l 722 501 z m 722 1161 l 722 867 l 568 867 l 568 1144 l 397 1144 l 397 -60 l 568 -60 l 568 350 l 722 350 l 722 -106 l 896 -106 l 896 1161 z "},"ㅓ":{"ha":583,"x_min":0,"x_max":0,"o":"m 674 1163 l 674 688 l 406 688 l 406 536 l 674 536 l 674 -106 l 857 -106 l 857 1163 z "},"ㅔ":{"ha":583,"x_min":0,"x_max":0,"o":"m 501 685 l 317 685 l 317 533 l 501 533 l 501 -65 l 672 -65 l 672 1138 l 501 1138 z m 774 1161 l 774 -106 l 949 -106 l 949 1161 z "},"ㅕ":{"ha":583,"x_min":0,"x_max":0,"o":"m 678 1161 l 678 857 l 403 857 l 403 706 l 678 706 l 678 494 l 403 494 l 403 343 l 678 343 l 678 -106 l 861 -106 l 861 1161 z "},"ㅖ":{"ha":583,"x_min":0,"x_max":0,"o":"m 503 847 l 306 847 l 306 697 l 503 697 l 503 497 l 300 497 l 300 349 l 503 349 l 503 -65 l 674 -65 l 674 1139 l 503 1139 z m 768 1161 l 768 -106 l 942 -106 l 942 1161 z "},"ㅗ":{"ha":583,"x_min":0,"x_max":0,"o":"m 729 363 l 729 853 l 546 853 l 546 363 l 61 363 l 61 214 l 1217 214 l 1217 363 z "},"ㅘ":{"ha":583,"x_min":0,"x_max":0,"o":"m 539 769 l 358 769 l 358 339 b 53 335 249 336 144 335 l 71 186 b 842 238 292 186 585 193 l 826 369 b 539 346 735 358 638 351 z m 1232 669 l 1069 669 l 1069 1161 l 886 1161 l 886 -106 l 1069 -106 l 1069 518 l 1232 518 z "},"ㅙ":{"ha":583,"x_min":0,"x_max":0,"o":"m 483 765 l 317 765 l 317 372 b 68 369 225 371 138 369 l 86 221 b 713 265 253 221 514 228 l 699 397 b 483 379 633 389 560 385 z m 1018 1161 l 1018 656 l 925 656 l 925 1143 l 754 1143 l 754 -60 l 925 -60 l 925 506 l 1018 506 l 1018 -104 l 1192 -104 l 1192 1161 z "},"ㅚ":{"ha":583,"x_min":0,"x_max":0,"o":"m 613 754 l 432 754 l 432 365 b 113 363 319 363 210 363 l 136 214 b 915 264 360 214 650 218 l 900 397 b 613 372 810 385 711 378 z m 965 1161 l 965 -106 l 1149 -106 l 1149 1161 z "},"ㅛ":{"ha":583,"x_min":0,"x_max":0,"o":"m 960 344 l 960 861 l 779 861 l 779 344 l 506 344 l 506 861 l 325 861 l 325 344 l 65 344 l 65 196 l 1219 196 l 1219 344 z "},"ㅜ":{"ha":583,"x_min":0,"x_max":0,"o":"m 1219 863 l 64 863 l 64 715 l 550 715 l 550 194 l 733 194 l 733 715 l 1219 715 z "},"ㅝ":{"ha":583,"x_min":0,"x_max":0,"o":"m 906 658 b 78 622 633 626 322 624 l 101 475 b 397 481 193 475 292 476 l 397 -14 l 581 -14 l 581 490 b 918 528 693 499 807 510 z m 996 1161 l 996 375 l 736 375 l 736 233 l 996 233 l 996 -106 l 1179 -106 l 1179 1161 z "},"ㅞ":{"ha":583,"x_min":0,"x_max":0,"o":"m 715 636 b 71 604 519 611 247 604 l 88 465 b 321 472 156 465 236 468 l 321 -17 l 494 -17 l 494 483 b 728 513 575 490 657 500 z m 775 378 l 583 378 l 583 235 l 775 235 l 775 -65 l 946 -65 l 946 1136 l 775 1136 z m 1026 1161 l 1026 -104 l 1200 -104 l 1200 1161 z "},"ㅟ":{"ha":583,"x_min":0,"x_max":0,"o":"m 924 628 b 104 594 656 599 350 594 l 126 449 b 433 454 222 449 325 450 l 433 -11 l 618 -11 l 618 464 b 933 497 724 471 831 482 z m 986 1160 l 986 -104 l 1169 -104 l 1169 1160 z "},"ㅠ":{"ha":583,"x_min":0,"x_max":0,"o":"m 1217 864 l 61 864 l 61 715 l 326 715 l 326 192 l 510 192 l 510 715 l 760 715 l 760 192 l 943 192 l 943 715 l 1217 715 z "},"ㅡ":{"ha":583,"x_min":0,"x_max":0,"o":"m 61 603 l 61 454 l 1217 454 l 1217 603 z "},"ㅢ":{"ha":583,"x_min":0,"x_max":0,"o":"m 976 1161 l 976 -106 l 1160 -106 l 1160 1161 z m 114 272 b 913 319 351 272 640 276 l 903 451 b 94 419 639 421 338 419 z "},"ㅣ":{"ha":583,"x_min":0,"x_max":0,"o":"m 551 1161 l 551 -104 l 736 -104 l 736 1161 z "},"㈀":{"ha":0,"x_min":0,"x_max":0,"o":"m 306 849 l 306 711 l 867 711 l 867 142 l 1040 142 l 1040 849 z m 210 -125 l 300 -103 b 156 528 185 89 154 290 b 300 1158 156 765 185 967 l 210 1181 b 39 528 82 986 39 778 b 210 -125 39 276 82 69 z m 1179 -125 b 1350 528 1307 69 1350 276 b 1179 1181 1350 778 1307 986 l 1089 1158 b 1233 528 1204 967 1233 765 b 1089 -103 1233 314 1204 89 z "},"㈁":{"ha":0,"x_min":0,"x_max":0,"o":"m 210 1181 b 39 528 82 986 39 778 b 210 -125 39 276 82 69 l 300 -103 b 156 528 185 89 154 290 b 300 1158 156 765 185 967 z m 535 899 l 361 899 l 361 203 l 1081 203 l 1081 340 l 535 340 z m 1089 1158 b 1233 528 1204 967 1233 765 b 1089 -103 1233 314 1204 89 l 1179 -125 b 1350 528 1307 69 1350 276 b 1179 1181 1350 778 1307 986 z "},"㈂":{"ha":0,"x_min":0,"x_max":0,"o":"m 210 1181 b 39 528 82 986 39 778 b 210 -125 39 276 82 69 l 300 -103 b 156 528 185 89 154 290 b 300 1158 156 765 185 967 z m 519 751 l 1044 751 l 1044 889 l 347 889 l 347 189 l 1058 189 l 1058 325 l 519 325 z m 1089 1158 b 1233 528 1204 967 1233 765 b 1089 -103 1233 314 1204 89 l 1179 -125 b 1350 528 1307 69 1350 276 b 1179 1181 1350 778 1307 986 z "},"㈃":{"ha":0,"x_min":0,"x_max":0,"o":"m 210 1181 b 39 528 82 986 39 778 b 210 -125 39 276 82 69 l 300 -103 b 156 528 185 89 154 290 b 300 1158 156 765 185 967 z m 507 472 l 1043 472 l 1043 906 l 343 906 l 343 776 l 882 776 l 882 601 l 344 601 l 344 149 l 1069 149 l 1069 290 l 507 290 z m 1089 1158 b 1233 528 1204 967 1233 765 b 1089 -103 1233 314 1204 89 l 1179 -125 b 1350 528 1307 69 1350 276 b 1179 1181 1350 778 1307 986 z "},"㈄":{"ha":0,"x_min":0,"x_max":0,"o":"m 350 861 l 350 190 l 1053 190 l 1053 861 z m 882 724 l 882 328 l 521 328 l 521 724 z m 210 -125 l 300 -103 b 156 528 185 89 154 290 b 300 1158 156 765 185 967 l 210 1181 b 39 528 82 986 39 778 b 210 -125 39 276 82 69 z m 1179 -125 b 1350 528 1307 69 1350 276 b 1179 1181 1350 778 1307 986 l 1089 1158 b 1233 528 1204 967 1233 765 b 1089 -103 1233 314 1204 89 z "},"㈅":{"ha":0,"x_min":0,"x_max":0,"o":"m 344 901 l 344 165 l 1047 165 l 1047 901 l 876 901 l 876 675 l 515 675 l 515 901 z m 515 524 l 876 524 l 876 318 l 515 318 z m 210 -125 l 300 -103 b 156 528 185 89 154 290 b 300 1158 156 765 185 967 l 210 1181 b 39 528 82 986 39 778 b 210 -125 39 276 82 69 z m 1179 -125 b 1350 528 1307 69 1350 276 b 1179 1181 1350 778 1307 986 l 1089 1158 b 1233 528 1204 967 1233 765 b 1089 -103 1233 314 1204 89 z "},"㈆":{"ha":0,"x_min":0,"x_max":0,"o":"m 210 1181 b 39 528 82 986 39 778 b 210 -125 39 276 82 69 l 300 -103 b 156 528 185 89 154 290 b 300 1158 156 765 185 967 z m 783 917 l 632 917 l 632 725 b 276 313 632 554 521 376 l 360 176 b 708 443 525 221 640 318 b 1056 179 775 319 892 224 l 1135 317 b 783 725 893 379 783 554 z m 1089 1158 b 1233 528 1204 967 1233 765 b 1089 -103 1233 314 1204 89 l 1179 -125 b 1350 528 1307 69 1350 276 b 1179 1181 1350 778 1307 986 z "},"㈇":{"ha":0,"x_min":0,"x_max":0,"o":"m 697 878 b 319 535 485 878 319 733 b 697 189 319 335 485 189 b 1075 535 908 189 1075 335 b 697 878 1075 733 908 878 z m 697 743 b 924 535 829 743 924 658 b 697 325 924 410 829 325 b 471 535 565 325 471 410 b 697 743 471 658 565 743 z m 210 -125 l 300 -103 b 156 528 185 89 154 290 b 300 1158 156 765 185 967 l 210 1181 b 39 528 82 986 39 778 b 210 -125 39 276 82 69 z m 1179 -125 b 1350 528 1307 69 1350 276 b 1179 1181 1350 778 1307 986 l 1089 1158 b 1233 528 1204 967 1233 765 b 1089 -103 1233 314 1204 89 z "},"㈈":{"ha":0,"x_min":0,"x_max":0,"o":"m 210 1181 b 39 528 82 986 39 778 b 210 -125 39 276 82 69 l 300 -103 b 156 528 185 89 154 290 b 300 1158 156 765 185 967 z m 776 724 l 1071 724 l 1071 861 l 333 861 l 333 724 l 626 724 l 626 688 b 278 313 626 529 514 369 l 356 182 b 701 435 518 224 635 315 b 1053 182 768 315 888 224 l 1129 313 b 776 688 892 368 776 528 z m 1089 1158 b 1233 528 1204 967 1233 765 b 1089 -103 1233 314 1204 89 l 1179 -125 b 1350 528 1307 69 1350 276 b 1179 1181 1350 778 1307 986 z "},"㈉":{"ha":0,"x_min":0,"x_max":0,"o":"m 210 1181 b 39 528 82 986 39 778 b 210 -125 39 276 82 69 l 300 -103 b 156 528 185 89 154 290 b 300 1158 156 765 185 967 z m 790 639 l 1067 639 l 1067 779 l 790 779 l 790 965 l 617 965 l 617 779 l 331 779 l 331 639 l 617 639 l 617 607 b 289 286 617 463 518 332 l 363 158 b 703 393 529 197 643 281 b 1033 160 761 281 872 199 l 1108 286 b 790 607 886 332 790 463 z m 1089 1158 b 1233 528 1204 967 1233 765 b 1089 -103 1233 314 1204 89 l 1179 -125 b 1350 528 1307 69 1350 276 b 1179 1181 1350 778 1307 986 z "},"㈊":{"ha":0,"x_min":0,"x_max":0,"o":"m 210 1181 b 39 528 82 986 39 778 b 210 -125 39 276 82 69 l 300 -103 b 156 528 185 89 154 290 b 300 1158 156 765 185 967 z m 340 738 l 881 738 l 881 585 l 303 561 l 322 415 l 881 453 l 881 157 l 1053 157 l 1053 875 l 340 875 z m 1089 1158 b 1233 528 1204 967 1233 765 b 1089 -103 1233 314 1204 89 l 1179 -125 b 1350 528 1307 69 1350 276 b 1179 1181 1350 778 1307 986 z "},"㈋":{"ha":0,"x_min":0,"x_max":0,"o":"m 210 1181 b 39 528 82 986 39 778 b 210 -125 39 276 82 69 l 300 -103 b 156 528 185 89 154 290 b 300 1158 156 765 185 967 z m 513 464 l 1040 464 l 1040 601 l 513 601 l 513 731 l 1049 731 l 1049 868 l 356 868 l 356 190 l 1067 190 l 1067 328 l 513 328 z m 1089 1158 b 1233 528 1204 967 1233 765 b 1089 -103 1233 314 1204 89 l 1179 -125 b 1350 528 1307 69 1350 276 b 1179 1181 1350 778 1307 986 z "},"㈌":{"ha":0,"x_min":0,"x_max":0,"o":"m 792 361 l 624 361 l 624 711 l 792 711 z m 451 361 l 286 361 l 286 224 l 1113 224 l 1113 361 l 964 361 l 964 711 l 1082 711 l 1082 849 l 318 849 l 318 711 l 451 711 z m 210 1181 b 39 528 82 986 39 778 b 210 -125 39 276 82 69 l 300 -103 b 156 528 185 89 154 290 b 300 1158 156 765 185 967 z m 1089 1158 b 1233 528 1204 967 1233 765 b 1089 -103 1233 314 1204 89 l 1179 -125 b 1350 528 1307 69 1350 276 b 1179 1181 1350 778 1307 986 z "},"㈍":{"ha":0,"x_min":0,"x_max":0,"o":"m 210 1181 b 39 528 82 986 39 778 b 210 -125 39 276 82 69 l 300 -103 b 156 528 185 89 154 290 b 300 1158 156 765 185 967 z m 696 239 b 563 356 617 239 563 283 b 696 469 563 428 617 469 b 829 356 776 469 829 428 b 696 239 829 283 776 239 z m 696 608 b 403 356 528 608 403 503 b 696 101 403 207 528 101 b 990 356 864 101 990 207 b 696 608 990 503 864 608 z m 779 967 l 610 967 l 610 818 l 325 818 l 325 675 l 1064 675 l 1064 818 l 779 818 z m 1089 1158 b 1233 528 1204 967 1233 765 b 1089 -103 1233 314 1204 89 l 1179 -125 b 1350 528 1307 69 1350 276 b 1179 1181 1350 778 1307 986 z "},"㈎":{"ha":0,"x_min":0,"x_max":0,"o":"m 210 1181 b 39 528 82 986 39 778 b 210 -125 39 276 82 69 l 289 -103 b 144 528 174 89 143 289 b 289 1158 146 765 174 967 z m 267 974 l 267 828 l 571 828 b 224 261 549 586 444 410 l 335 140 b 749 974 643 347 749 625 z m 1199 499 l 1199 644 l 1047 644 l 1047 1093 l 865 1093 l 865 -51 l 1047 -51 l 1047 499 z m 1100 1158 b 1244 528 1215 967 1244 765 b 1100 -103 1244 314 1215 89 l 1179 -125 b 1350 528 1307 69 1350 276 b 1179 1181 1350 778 1307 986 z "},"㈏":{"ha":0,"x_min":0,"x_max":0,"o":"m 210 1181 b 39 528 82 986 39 778 b 210 -125 39 276 82 69 l 289 -103 b 144 528 174 89 143 290 b 289 1158 146 765 174 967 z m 425 982 l 251 982 l 251 239 l 344 239 b 829 285 492 239 653 247 l 811 438 b 425 394 674 410 544 397 z m 1214 504 l 1214 650 l 1063 650 l 1063 1093 l 881 1093 l 881 -51 l 1063 -51 l 1063 504 z m 1100 1158 b 1244 528 1215 967 1244 765 b 1100 -103 1244 314 1215 89 l 1179 -125 b 1350 528 1307 69 1350 276 b 1179 1181 1350 778 1307 986 z "},"㈐":{"ha":0,"x_min":0,"x_max":0,"o":"m 210 1181 b 39 528 82 986 39 778 b 210 -125 39 276 82 69 l 289 -103 b 144 528 174 89 143 290 b 289 1158 146 765 174 967 z m 438 843 l 744 843 l 744 989 l 263 989 l 263 208 l 357 208 b 838 243 532 208 675 214 l 819 400 b 438 365 688 375 571 368 z m 1214 503 l 1214 649 l 1075 649 l 1075 1096 l 894 1096 l 894 -50 l 1075 -50 l 1075 503 z m 1100 1158 b 1244 528 1215 967 1244 765 b 1100 -103 1244 314 1215 89 l 1179 -125 b 1350 528 1307 69 1350 276 b 1179 1181 1350 778 1307 986 z "},"㈑":{"ha":0,"x_min":0,"x_max":0,"o":"m 210 1181 b 39 528 82 986 39 778 b 210 -125 39 276 82 69 l 289 -103 b 144 528 174 89 143 290 b 289 1158 146 765 174 967 z m 449 546 l 726 546 l 726 988 l 267 988 l 267 846 l 546 846 l 546 688 l 269 688 l 269 217 l 358 217 b 817 251 525 217 660 222 l 800 404 b 449 372 678 382 571 375 z m 1196 501 l 1196 647 l 1051 647 l 1051 1093 l 871 1093 l 871 -51 l 1051 -51 l 1051 501 z m 1100 1158 b 1244 528 1215 967 1244 765 b 1100 -103 1244 314 1215 89 l 1179 -125 b 1350 528 1307 69 1350 276 b 1179 1181 1350 778 1307 986 z "},"㈒":{"ha":0,"x_min":0,"x_max":0,"o":"m 210 1181 b 39 528 82 986 39 778 b 210 -125 39 276 82 69 l 289 -103 b 144 528 174 89 143 290 b 289 1158 146 765 174 967 z m 421 840 l 557 840 l 557 381 l 421 381 z m 247 235 l 731 235 l 731 986 l 247 986 z m 1199 500 l 1199 646 l 1050 646 l 1050 1093 l 868 1093 l 868 -51 l 1050 -51 l 1050 500 z m 1100 1158 b 1244 528 1215 967 1244 765 b 1100 -103 1244 314 1215 89 l 1179 -125 b 1350 528 1307 69 1350 276 b 1179 1181 1350 778 1307 986 z "},"㈓":{"ha":0,"x_min":0,"x_max":0,"o":"m 210 1181 b 39 528 82 986 39 778 b 210 -125 39 276 82 69 l 289 -103 b 144 528 174 89 143 290 b 289 1158 146 765 174 967 z m 592 364 l 435 364 l 435 600 l 592 600 z m 592 753 l 435 753 l 435 1001 l 263 1001 l 263 211 l 764 211 l 764 1001 l 592 1001 z m 1203 508 l 1203 654 l 1061 654 l 1061 1093 l 879 1093 l 879 -51 l 1061 -51 l 1061 508 z m 1100 1158 b 1244 528 1215 967 1244 765 b 1100 -103 1244 314 1215 89 l 1179 -125 b 1350 528 1307 69 1350 276 b 1179 1181 1350 778 1307 986 z "},"㈔":{"ha":0,"x_min":0,"x_max":0,"o":"m 210 1181 b 39 528 82 986 39 778 b 210 -125 39 276 82 69 l 289 -103 b 144 528 174 89 143 290 b 289 1158 146 765 174 967 z m 610 1010 l 419 1010 l 419 844 b 182 310 419 614 364 407 l 297 176 b 515 479 407 240 476 346 b 732 176 554 346 622 240 l 847 310 b 610 844 667 407 610 614 z m 1197 501 l 1197 647 l 1054 647 l 1054 1093 l 872 1093 l 872 -51 l 1054 -51 l 1054 501 z m 1100 1158 b 1244 528 1215 967 1244 765 b 1100 -103 1244 314 1215 89 l 1179 -125 b 1350 528 1307 69 1350 276 b 1179 1181 1350 778 1307 986 z "},"㈕":{"ha":0,"x_min":0,"x_max":0,"o":"m 210 1181 b 39 528 82 986 39 778 b 210 -125 39 276 82 69 l 289 -103 b 144 528 174 89 143 290 b 289 1158 146 765 174 967 z m 497 357 b 388 599 429 357 388 439 b 497 839 388 757 429 839 b 608 599 567 839 608 757 b 497 357 608 439 567 357 z m 497 994 b 219 599 328 994 219 843 b 497 201 219 354 328 201 b 775 599 667 201 775 354 b 497 994 775 843 667 994 z m 1199 499 l 1199 644 l 1057 644 l 1057 1093 l 876 1093 l 876 -51 l 1057 -51 l 1057 499 z m 1100 1158 b 1244 528 1215 967 1244 765 b 1100 -103 1244 314 1215 89 l 1179 -125 b 1350 528 1307 69 1350 276 b 1179 1181 1350 778 1307 986 z "},"㈖":{"ha":0,"x_min":0,"x_max":0,"o":"m 210 1181 b 39 528 82 986 39 778 b 210 -125 39 276 82 69 l 289 -103 b 144 528 174 89 143 289 b 289 1158 146 765 174 967 z m 613 846 l 782 846 l 782 993 l 253 993 l 253 846 l 422 846 l 422 833 b 193 293 422 604 369 392 l 303 164 b 518 485 414 232 481 344 b 732 164 554 344 621 232 l 842 293 b 613 833 665 392 613 604 z m 1201 500 l 1201 646 l 1060 646 l 1060 1093 l 879 1093 l 879 -51 l 1060 -51 l 1060 500 z m 1100 1158 b 1244 528 1215 967 1244 765 b 1100 -103 1244 314 1215 89 l 1179 -125 b 1350 528 1307 69 1350 276 b 1179 1181 1350 778 1307 986 z "},"㈗":{"ha":0,"x_min":0,"x_max":0,"o":"m 210 1181 b 39 528 82 986 39 778 b 210 -125 39 276 82 69 l 289 -103 b 144 528 174 89 143 289 b 289 1158 146 765 174 967 z m 606 697 l 800 697 l 800 843 l 603 843 l 603 1021 l 424 1021 l 424 843 l 229 843 l 229 697 l 425 697 l 425 694 b 189 285 425 517 360 356 l 289 153 b 515 399 400 203 472 289 b 740 153 557 289 629 203 l 840 285 b 606 694 669 356 606 515 z m 1201 494 l 1201 640 l 1063 640 l 1063 1093 l 881 1093 l 881 -51 l 1063 -51 l 1063 494 z m 1100 1158 b 1244 528 1215 967 1244 765 b 1100 -103 1244 314 1215 89 l 1179 -125 b 1350 528 1307 69 1350 276 b 1179 1181 1350 778 1307 986 z "},"㈘":{"ha":0,"x_min":0,"x_max":0,"o":"m 210 1181 b 39 528 82 986 39 778 b 210 -125 39 276 82 69 l 289 -103 b 144 528 174 89 143 290 b 289 1158 146 765 174 967 z m 281 978 l 281 832 l 582 832 b 567 706 579 788 574 746 l 246 688 l 267 542 l 526 567 b 247 236 476 442 390 335 l 360 115 b 757 978 681 339 757 621 z m 1196 497 l 1196 643 l 1054 643 l 1054 1093 l 874 1093 l 874 -51 l 1054 -51 l 1054 497 z m 1100 1158 b 1244 528 1215 967 1244 765 b 1100 -103 1244 314 1215 89 l 1179 -125 b 1350 528 1307 69 1350 276 b 1179 1181 1350 778 1307 986 z "},"㈙":{"ha":0,"x_min":0,"x_max":0,"o":"m 210 1181 b 39 528 82 986 39 778 b 210 -125 39 276 82 69 l 289 -103 b 144 528 174 89 143 290 b 289 1158 146 765 174 967 z m 444 539 l 733 539 l 733 686 l 444 686 l 444 838 l 749 838 l 749 985 l 264 985 l 264 211 l 354 211 b 817 240 522 211 657 214 l 800 394 b 444 365 675 374 567 368 z m 1206 497 l 1206 643 l 1057 643 l 1057 1093 l 875 1093 l 875 -51 l 1057 -51 l 1057 497 z m 1100 1158 b 1244 528 1215 967 1244 765 b 1100 -103 1244 314 1215 89 l 1179 -125 b 1350 528 1307 69 1350 276 b 1179 1181 1350 778 1307 986 z "},"㈚":{"ha":0,"x_min":0,"x_max":0,"o":"m 210 1181 b 39 528 82 986 39 778 b 210 -125 39 276 82 69 l 289 -103 b 144 528 174 89 143 289 b 289 1158 146 765 174 967 z m 482 842 l 581 842 l 581 340 b 482 336 547 339 514 338 z m 746 842 l 815 842 l 815 989 l 239 989 l 239 842 l 317 842 l 317 333 l 218 333 l 236 190 b 849 233 396 190 656 196 l 839 361 b 746 351 810 357 778 354 z m 1201 499 l 1201 644 l 1076 644 l 1076 1093 l 896 1093 l 896 -51 l 1076 -51 l 1076 499 z m 1100 1158 b 1244 528 1215 967 1244 765 b 1100 -103 1244 314 1215 89 l 1179 -125 b 1350 528 1307 69 1350 276 b 1179 1181 1350 778 1307 986 z "},"㈛":{"ha":0,"x_min":0,"x_max":0,"o":"m 210 1181 b 39 528 82 986 39 778 b 210 -125 39 276 82 69 l 289 -103 b 144 528 174 89 143 289 b 289 1158 146 765 174 967 z m 518 317 b 408 431 453 317 408 360 b 518 546 408 504 453 546 b 628 431 582 546 628 504 b 518 317 628 360 582 317 z m 518 688 b 246 431 363 688 246 581 b 518 176 246 282 363 176 b 790 431 672 176 790 282 b 518 688 790 581 672 688 z m 607 1043 l 425 1043 l 425 894 l 213 894 l 213 749 l 824 749 l 824 894 l 607 894 z m 1206 506 l 1206 644 l 1074 644 l 1074 1093 l 892 1093 l 892 -51 l 1074 -51 l 1074 506 z m 1100 1158 b 1244 528 1215 967 1244 765 b 1100 -103 1244 314 1215 89 l 1179 -125 b 1350 528 1307 69 1350 276 b 1179 1181 1350 778 1307 986 z "},"㈜":{"ha":0,"x_min":0,"x_max":0,"o":"m 317 525 b 696 736 499 553 628 631 b 1076 525 765 631 894 553 l 1149 667 b 799 885 943 694 825 785 l 1076 885 l 1076 1033 l 315 1033 l 315 885 l 594 885 b 244 665 567 785 449 694 z m 210 1181 b 39 528 82 986 39 778 b 210 -125 39 276 82 69 l 289 -103 b 144 528 174 89 143 290 b 289 1158 146 765 174 967 z m 1161 318 l 1161 468 l 229 468 l 229 318 l 606 318 l 606 -58 l 785 -58 l 785 318 z m 1100 1158 b 1244 528 1215 967 1244 765 b 1100 -103 1244 314 1215 89 l 1179 -125 b 1350 528 1307 69 1350 276 b 1179 1181 1350 778 1307 986 z "},"㉠":{"ha":0,"x_min":0,"x_max":0,"o":"m 338 811 l 338 675 l 832 675 l 832 165 l 1006 165 l 1006 811 z m 1350 528 b 694 1183 1350 889 1056 1183 b 39 528 333 1183 39 889 b 694 -128 39 167 333 -128 b 1350 528 1056 -128 1350 167 z m 694 1132 b 1299 528 1028 1132 1299 861 b 694 -76 1299 194 1028 -76 b 90 528 361 -76 90 194 b 694 1132 90 861 361 1132 z "},"㉡":{"ha":0,"x_min":0,"x_max":0,"o":"m 576 858 l 403 858 l 403 235 l 1058 235 l 1058 372 l 576 372 z m 694 -76 b 90 528 361 -76 90 194 b 694 1132 90 861 361 1132 b 1299 528 1028 1132 1299 861 b 694 -76 1299 194 1028 -76 z m 694 1183 b 39 528 333 1183 39 889 b 694 -128 39 167 333 -128 b 1350 528 1056 -128 1350 167 b 694 1183 1350 889 1056 1183 z "},"㉢":{"ha":0,"x_min":0,"x_max":0,"o":"m 550 699 l 1011 699 l 1011 835 l 378 835 l 378 190 l 1024 190 l 1024 328 l 550 328 z m 694 -76 b 90 528 361 -76 90 194 b 694 1132 90 861 361 1132 b 1299 528 1028 1132 1299 861 b 694 -76 1299 194 1028 -76 z m 694 1183 b 39 528 333 1183 39 889 b 694 -128 39 167 333 -128 b 1350 528 1056 -128 1350 167 b 694 1183 1350 889 1056 1183 z "},"㉣":{"ha":0,"x_min":0,"x_max":0,"o":"m 539 467 l 1018 467 l 1018 874 l 375 874 l 375 754 l 857 754 l 857 596 l 376 596 l 376 172 l 1039 172 l 1039 313 l 539 313 z m 694 -76 b 90 528 361 -76 90 194 b 694 1132 90 861 361 1132 b 1299 528 1028 1132 1299 861 b 694 -76 1299 194 1028 -76 z m 694 1183 b 39 528 333 1183 39 889 b 694 -128 39 167 333 -128 b 1350 528 1056 -128 1350 167 b 694 1183 1350 889 1056 1183 z "},"㉤":{"ha":0,"x_min":0,"x_max":0,"o":"m 374 803 l 374 196 l 1013 196 l 1013 803 z m 842 665 l 842 333 l 544 333 l 544 665 z m 1350 528 b 694 1183 1350 889 1056 1183 b 39 528 333 1183 39 889 b 694 -128 39 167 333 -128 b 1350 528 1056 -128 1350 167 z m 694 1132 b 1299 528 1028 1132 1299 861 b 694 -76 1299 194 1028 -76 b 90 528 361 -76 90 194 b 694 1132 90 861 361 1132 z "},"㉥":{"ha":0,"x_min":0,"x_max":0,"o":"m 372 839 l 372 171 l 1013 171 l 1013 839 l 842 839 l 842 635 l 543 635 l 543 839 z m 543 506 l 842 506 l 842 300 l 543 300 z m 1350 528 b 694 1183 1350 889 1056 1183 b 39 528 333 1183 39 889 b 694 -128 39 167 333 -128 b 1350 528 1056 -128 1350 167 z m 694 1132 b 1299 528 1028 1132 1299 861 b 694 -76 1299 194 1028 -76 b 90 528 361 -76 90 194 b 694 1132 90 861 361 1132 z "},"㉦":{"ha":0,"x_min":0,"x_max":0,"o":"m 763 872 l 622 872 l 622 715 b 294 331 622 561 518 392 l 376 203 b 692 454 525 247 631 339 b 1013 206 754 340 863 249 l 1093 331 b 763 714 869 393 763 560 z m 694 -76 b 90 528 361 -76 90 194 b 694 1132 90 861 361 1132 b 1299 528 1028 1132 1299 861 b 694 -76 1299 194 1028 -76 z m 694 1183 b 39 528 333 1183 39 889 b 694 -128 39 167 333 -128 b 1350 528 1056 -128 1350 167 b 694 1183 1350 889 1056 1183 z "},"㉧":{"ha":0,"x_min":0,"x_max":0,"o":"m 694 818 b 351 504 499 818 351 688 b 694 192 351 322 499 192 b 1036 504 889 192 1036 322 b 694 818 1036 688 889 818 z m 694 696 b 897 504 815 696 897 618 b 694 315 897 392 815 315 b 490 504 572 315 490 392 b 694 696 490 618 572 696 z m 1350 528 b 694 1183 1350 889 1056 1183 b 39 528 333 1183 39 889 b 694 -128 39 167 333 -128 b 1350 528 1056 -128 1350 167 z m 694 1132 b 1299 528 1028 1132 1299 861 b 694 -76 1299 194 1028 -76 b 90 528 361 -76 90 194 b 694 1132 90 861 361 1132 z "},"㉨":{"ha":0,"x_min":0,"x_max":0,"o":"m 1025 675 l 1025 813 l 358 813 l 358 675 l 624 675 b 307 350 618 531 521 399 l 381 226 b 693 446 529 265 633 343 b 1004 226 753 343 857 265 l 1079 350 b 761 675 865 399 767 531 z m 694 -76 b 90 528 361 -76 90 194 b 694 1132 90 861 361 1132 b 1299 528 1028 1132 1299 861 b 694 -76 1299 194 1028 -76 z m 694 1183 b 39 528 333 1183 39 889 b 694 -128 39 167 333 -128 b 1350 528 1056 -128 1350 167 b 694 1183 1350 889 1056 1183 z "},"㉩":{"ha":0,"x_min":0,"x_max":0,"o":"m 1039 592 l 1039 729 l 783 729 l 783 892 l 619 892 l 619 729 l 367 729 l 367 592 l 621 592 b 325 332 615 475 525 369 l 396 207 b 703 404 544 240 646 310 b 1008 207 758 310 860 240 l 1079 332 b 783 592 879 369 789 475 z m 694 -76 b 90 528 361 -76 90 194 b 694 1132 90 861 361 1132 b 1299 528 1028 1132 1299 861 b 694 -76 1299 194 1028 -76 z m 694 1183 b 39 528 333 1183 39 889 b 694 -128 39 167 333 -128 b 1350 528 1056 -128 1350 167 b 694 1183 1350 889 1056 1183 z "},"㉪":{"ha":0,"x_min":0,"x_max":0,"o":"m 364 686 l 854 686 l 854 561 l 343 540 l 363 397 l 854 432 l 854 163 l 1011 163 l 1011 814 l 364 814 z m 694 -76 b 90 528 361 -76 90 194 b 694 1132 90 861 361 1132 b 1299 528 1028 1132 1299 861 b 694 -76 1299 194 1028 -76 z m 694 1183 b 39 528 333 1183 39 889 b 694 -128 39 167 333 -128 b 1350 528 1056 -128 1350 167 b 694 1183 1350 889 1056 1183 z "},"㉫":{"ha":0,"x_min":0,"x_max":0,"o":"m 539 438 l 1006 438 l 1006 575 l 539 575 l 539 676 l 1017 676 l 1017 814 l 365 814 l 365 200 l 1028 200 l 1028 336 l 539 336 z m 694 -76 b 90 528 361 -76 90 194 b 694 1132 90 861 361 1132 b 1299 528 1028 1132 1299 861 b 694 -76 1299 194 1028 -76 z m 694 1183 b 39 528 333 1183 39 889 b 694 -128 39 167 333 -128 b 1350 528 1056 -128 1350 167 b 694 1183 1350 889 1056 1183 z "},"㉬":{"ha":0,"x_min":0,"x_max":0,"o":"m 604 653 l 789 653 l 789 361 l 604 361 z m 946 653 l 1042 653 l 1042 790 l 343 790 l 343 653 l 447 653 l 447 361 l 317 361 l 317 224 l 1069 224 l 1069 361 l 946 361 z m 694 -76 b 90 528 361 -76 90 194 b 694 1132 90 861 361 1132 b 1299 528 1028 1132 1299 861 b 694 -76 1299 194 1028 -76 z m 694 1183 b 39 528 333 1183 39 889 b 694 -128 39 167 333 -128 b 1350 528 1056 -128 1350 167 b 694 1183 1350 889 1056 1183 z "},"㉭":{"ha":0,"x_min":0,"x_max":0,"o":"m 692 229 b 572 343 621 229 572 274 b 692 456 572 411 621 456 b 813 343 764 456 813 411 b 692 229 813 274 764 229 z m 692 575 b 426 343 540 575 426 478 b 692 110 426 207 540 110 b 958 343 843 110 958 207 b 692 575 958 478 843 575 z m 775 879 l 608 879 l 608 753 l 338 753 l 338 621 l 1043 621 l 1043 753 l 775 753 z m 694 -76 b 90 528 361 -76 90 194 b 694 1132 90 861 361 1132 b 1299 528 1028 1132 1299 861 b 694 -76 1299 194 1028 -76 z m 694 1183 b 39 528 333 1183 39 889 b 694 -128 39 167 333 -128 b 1350 528 1056 -128 1350 167 b 694 1183 1350 889 1056 1183 z "},"㉮":{"ha":0,"x_min":0,"x_max":0,"o":"m 272 907 l 272 761 l 532 761 b 200 322 507 571 406 433 l 304 199 b 711 907 593 361 711 589 z m 1007 644 l 1007 1026 l 826 1026 l 826 33 l 1007 33 l 1007 499 l 1161 499 l 1161 644 z m 694 -76 b 90 528 361 -76 90 194 b 694 1132 90 861 361 1132 b 1299 528 1028 1132 1299 861 b 694 -76 1299 194 1028 -76 z m 694 1183 b 39 528 333 1183 39 889 b 694 -128 39 167 333 -128 b 1350 528 1056 -128 1350 167 b 694 1183 1350 889 1056 1183 z "},"㉯":{"ha":0,"x_min":0,"x_max":0,"o":"m 413 894 l 238 894 l 238 239 l 328 239 b 788 283 465 239 618 247 l 769 436 b 413 396 640 410 522 399 z m 1021 644 l 1021 1026 l 840 1026 l 840 33 l 1021 33 l 1021 499 l 1172 499 l 1172 644 z m 694 -76 b 90 528 361 -76 90 194 b 694 1132 90 861 361 1132 b 1299 528 1028 1132 1299 861 b 694 -76 1299 194 1028 -76 z m 694 1183 b 39 528 333 1183 39 889 b 694 -128 39 167 333 -128 b 1350 528 1056 -128 1350 167 b 694 1183 1350 889 1056 1183 z "},"㉰":{"ha":0,"x_min":0,"x_max":0,"o":"m 429 771 l 708 771 l 708 917 l 254 917 l 254 240 l 342 240 b 782 272 501 240 631 243 l 765 428 b 429 397 649 407 544 400 z m 1015 635 l 1015 1026 l 836 1026 l 836 33 l 1015 33 l 1015 489 l 1161 489 l 1161 635 z m 694 -76 b 90 528 361 -76 90 194 b 694 1132 90 861 361 1132 b 1299 528 1028 1132 1299 861 b 694 -76 1299 194 1028 -76 z m 694 1183 b 39 528 333 1183 39 889 b 694 -128 39 167 333 -128 b 1350 528 1056 -128 1350 167 b 694 1183 1350 889 1056 1183 z "},"㉱":{"ha":0,"x_min":0,"x_max":0,"o":"m 421 517 l 692 517 l 692 910 l 239 910 l 239 775 l 511 775 l 511 651 l 242 651 l 242 226 l 329 226 b 779 260 493 226 626 231 l 764 410 b 421 378 644 388 539 381 z m 1017 644 l 1017 1026 l 838 1026 l 838 33 l 1017 33 l 1017 499 l 1161 499 l 1161 644 z m 694 -76 b 90 528 361 -76 90 194 b 694 1132 90 861 361 1132 b 1299 528 1028 1132 1299 861 b 694 -76 1299 194 1028 -76 z m 694 1183 b 39 528 333 1183 39 889 b 694 -128 39 167 333 -128 b 1350 528 1056 -128 1350 167 b 694 1183 1350 889 1056 1183 z "},"㉲":{"ha":0,"x_min":0,"x_max":0,"o":"m 414 778 l 553 778 l 553 397 l 414 397 z m 247 260 l 719 260 l 719 917 l 247 917 z m 1017 644 l 1017 1026 l 838 1026 l 838 33 l 1017 33 l 1017 499 l 1168 499 l 1168 644 z m 694 -76 b 90 528 361 -76 90 194 b 694 1132 90 861 361 1132 b 1299 528 1028 1132 1299 861 b 694 -76 1299 194 1028 -76 z m 694 1183 b 39 528 333 1183 39 889 b 694 -128 39 167 333 -128 b 1350 528 1056 -128 1350 167 b 694 1183 1350 889 1056 1183 z "},"㉳":{"ha":0,"x_min":0,"x_max":0,"o":"m 560 390 l 419 390 l 419 582 l 560 582 z m 560 735 l 419 735 l 419 935 l 254 935 l 254 236 l 725 236 l 725 935 l 560 935 z m 1018 644 l 1018 1026 l 839 1026 l 839 33 l 1018 33 l 1018 499 l 1161 499 l 1161 644 z m 694 -76 b 90 528 361 -76 90 194 b 694 1132 90 861 361 1132 b 1299 528 1028 1132 1299 861 b 694 -76 1299 194 1028 -76 z m 694 1183 b 39 528 333 1183 39 889 b 694 -128 39 167 333 -128 b 1350 528 1056 -128 1350 167 b 694 1183 1350 889 1056 1183 z "},"㉴":{"ha":0,"x_min":0,"x_max":0,"o":"m 560 960 l 382 960 l 382 897 b 147 363 382 669 328 460 l 260 233 b 471 525 365 296 432 397 b 682 233 510 397 576 296 l 794 363 b 560 897 614 460 560 669 z m 1007 644 l 1007 1026 l 826 1026 l 826 33 l 1007 33 l 1007 499 l 1161 499 l 1161 644 z m 694 -76 b 90 528 361 -76 90 194 b 694 1132 90 861 361 1132 b 1299 528 1028 1132 1299 861 b 694 -76 1299 194 1028 -76 z m 694 1183 b 39 528 333 1183 39 889 b 694 -128 39 167 333 -128 b 1350 528 1056 -128 1350 167 b 694 1183 1350 889 1056 1183 z "},"㉵":{"ha":0,"x_min":0,"x_max":0,"o":"m 471 371 b 376 579 410 371 376 440 b 471 788 376 717 410 788 b 564 579 531 788 564 717 b 471 371 564 440 531 371 z m 471 940 b 215 579 313 940 215 803 b 471 218 215 356 313 218 b 726 579 628 218 726 356 b 471 940 726 803 628 940 z m 1006 654 l 1006 1026 l 826 1026 l 826 33 l 1006 33 l 1006 508 l 1158 508 l 1158 654 z m 694 -76 b 90 528 361 -76 90 194 b 694 1132 90 861 361 1132 b 1299 528 1028 1132 1299 861 b 694 -76 1299 194 1028 -76 z m 694 1183 b 39 528 333 1183 39 889 b 694 -128 39 167 333 -128 b 1350 528 1056 -128 1350 167 b 694 1183 1350 889 1056 1183 z "},"㉶":{"ha":0,"x_min":0,"x_max":0,"o":"m 578 760 l 742 760 l 742 907 l 243 907 l 243 760 l 406 760 l 406 740 b 186 372 406 583 346 436 l 279 246 b 492 474 385 292 453 372 b 704 246 531 372 599 292 l 797 372 b 578 740 638 436 578 583 z m 1013 644 l 1013 1026 l 833 1026 l 833 33 l 1013 33 l 1013 499 l 1161 499 l 1161 644 z m 694 -76 b 90 528 361 -76 90 194 b 694 1132 90 861 361 1132 b 1299 528 1028 1132 1299 861 b 694 -76 1299 194 1028 -76 z m 694 1183 b 39 528 333 1183 39 889 b 694 -128 39 167 333 -128 b 1350 528 1056 -128 1350 167 b 694 1183 1350 889 1056 1183 z "},"㉷":{"ha":0,"x_min":0,"x_max":0,"o":"m 747 683 l 747 829 l 581 829 l 581 967 l 399 967 l 399 829 l 224 829 l 224 683 l 400 683 b 181 356 397 540 336 411 l 274 224 b 490 436 381 267 450 342 b 706 224 529 342 599 267 l 799 356 b 579 683 643 411 582 540 z m 1019 644 l 1019 1026 l 840 1026 l 840 33 l 1019 33 l 1019 499 l 1164 499 l 1164 644 z m 694 -76 b 90 528 361 -76 90 194 b 694 1132 90 861 361 1132 b 1299 528 1028 1132 1299 861 b 694 -76 1299 194 1028 -76 z m 694 1183 b 39 528 333 1183 39 889 b 694 -128 39 167 333 -128 b 1350 528 1056 -128 1350 167 b 694 1183 1350 889 1056 1183 z "},"㉸":{"ha":0,"x_min":0,"x_max":0,"o":"m 272 911 l 272 765 l 549 765 b 532 664 544 729 539 696 l 207 646 l 229 500 l 478 524 b 203 282 424 432 338 353 l 314 168 b 725 911 632 344 725 582 z m 1017 626 l 1017 1026 l 838 1026 l 838 33 l 1017 33 l 1017 481 l 1164 481 l 1164 626 z m 694 -76 b 90 528 361 -76 90 194 b 694 1132 90 861 361 1132 b 1299 528 1028 1132 1299 861 b 694 -76 1299 194 1028 -76 z m 694 1183 b 39 528 333 1183 39 889 b 694 -128 39 167 333 -128 b 1350 528 1056 -128 1350 167 b 694 1183 1350 889 1056 1183 z "},"㉹":{"ha":0,"x_min":0,"x_max":0,"o":"m 426 524 l 685 524 l 685 667 l 426 667 l 426 781 l 713 781 l 713 928 l 246 928 l 246 239 l 335 239 b 778 268 494 239 624 242 l 761 421 b 426 393 643 401 540 396 z m 1017 644 l 1017 1026 l 838 1026 l 838 33 l 1017 33 l 1017 499 l 1161 499 l 1161 644 z m 694 -76 b 90 528 361 -76 90 194 b 694 1132 90 861 361 1132 b 1299 528 1028 1132 1299 861 b 694 -76 1299 194 1028 -76 z m 694 1183 b 39 528 333 1183 39 889 b 694 -128 39 167 333 -128 b 1350 528 1056 -128 1350 167 b 694 1183 1350 889 1056 1183 z "},"㉺":{"ha":0,"x_min":0,"x_max":0,"o":"m 1026 644 l 1026 1026 l 847 1026 l 847 33 l 1026 33 l 1026 499 l 1164 499 l 1164 644 z m 454 765 l 542 765 l 542 379 b 454 375 513 378 483 376 z m 224 765 l 297 765 l 297 372 b 190 372 258 372 222 372 l 207 228 b 804 272 361 229 617 235 l 794 399 b 699 389 765 394 732 392 l 699 765 l 772 765 l 772 911 l 228 911 b 694 1132 339 1046 507 1132 b 1299 528 1028 1132 1299 861 b 694 -76 1299 194 1028 -76 b 90 528 361 -76 90 194 b 224 906 90 671 140 803 z m 694 1183 b 39 528 333 1183 39 889 b 694 -128 39 167 333 -128 b 1350 528 1056 -128 1350 167 b 694 1183 1350 889 1056 1183 z "},"㉻":{"ha":0,"x_min":0,"x_max":0,"o":"m 483 322 b 388 418 428 322 388 357 b 483 514 388 479 428 514 b 578 418 538 514 578 479 b 483 322 578 357 538 322 z m 483 649 b 232 418 340 649 232 553 b 483 188 232 285 340 188 b 735 418 625 188 735 285 b 483 649 735 553 625 649 z m 572 976 l 393 976 l 393 840 l 194 840 l 194 693 l 772 693 l 772 840 l 572 840 z m 1021 644 l 1021 1026 l 840 1026 l 840 33 l 1021 33 l 1021 499 l 1164 499 l 1164 644 z m 694 -76 b 90 528 361 -76 90 194 b 694 1132 90 861 361 1132 b 1299 528 1028 1132 1299 861 b 694 -76 1299 194 1028 -76 z m 694 1183 b 39 528 333 1183 39 889 b 694 -128 39 167 333 -128 b 1350 528 1056 -128 1350 167 b 694 1183 1350 889 1056 1183 z "},"㉾":{"ha":0,"x_min":0,"x_max":0,"o":"m 694 863 b 888 764 817 863 888 829 b 694 664 888 699 817 664 b 501 764 572 664 501 699 b 694 863 501 829 572 863 z m 694 526 b 1065 764 919 526 1065 618 b 694 1000 1065 910 919 1000 b 324 764 469 1000 324 910 b 694 526 324 618 469 526 z m 233 464 l 233 318 l 604 318 l 604 15 l 783 15 l 783 318 l 1153 318 l 1153 464 z m 694 -76 b 90 528 361 -76 90 194 b 694 1132 90 861 361 1132 b 1299 528 1028 1132 1299 861 b 694 -76 1299 194 1028 -76 z m 694 1183 b 39 528 333 1183 39 889 b 694 -128 39 167 333 -128 b 1350 528 1056 -128 1350 167 b 694 1183 1350 889 1056 1183 z "},"㉿":{"ha":0,"x_min":0,"x_max":0,"o":"m 39 500 l 313 500 l 313 556 l 90 556 b 694 1132 106 874 368 1132 b 1288 633 992 1132 1239 917 l 1340 633 b 694 1183 1290 944 1019 1183 b 39 528 333 1183 39 889 z m 407 169 l 588 169 l 588 382 l 678 482 l 863 169 l 1054 169 l 782 606 l 1015 899 l 821 899 l 592 611 l 588 611 l 588 899 l 407 899 z m 694 -128 b 1350 528 1053 -128 1350 164 l 1350 556 l 986 556 l 986 501 l 1297 501 b 694 -76 1282 181 1018 -76 b 100 424 397 -76 149 139 l 47 424 b 694 -128 97 111 368 -128 z "},"㎀":{"ha":0,"x_min":0,"x_max":0,"o":"m 274 551 b 356 632 301 606 326 632 b 439 399 408 632 439 558 b 344 149 439 218 393 149 b 274 196 321 149 297 158 z m 253 699 l 235 781 l 71 781 l 71 -274 l 274 -274 l 274 -72 l 268 53 b 400 -19 307 3 356 -19 b 650 403 532 -19 650 113 b 415 797 650 663 561 797 b 257 699 349 797 301 757 z m 967 425 l 985 538 b 1036 875 1003 644 1022 763 l 1042 875 b 1094 538 1060 763 1075 644 l 1113 425 z m 1181 0 l 1379 0 l 1183 1032 l 900 1032 l 704 0 l 900 0 l 942 264 l 1139 264 z "},"㎁":{"ha":0,"x_min":0,"x_max":0,"o":"m 244 686 l 231 781 l 65 781 l 65 0 l 271 0 l 271 543 b 365 625 299 596 329 625 b 432 510 415 625 432 593 l 432 0 l 639 0 l 639 528 b 453 797 639 700 583 797 b 250 686 363 797 297 747 z m 967 425 l 985 538 b 1036 875 1003 644 1022 763 l 1042 875 b 1094 538 1060 763 1075 644 l 1113 425 z m 1181 0 l 1379 0 l 1183 1032 l 900 1032 l 704 0 l 900 0 l 942 264 l 1139 264 z "},"㎂":{"ha":0,"x_min":0,"x_max":0,"o":"m 408 781 l 408 231 b 336 156 390 174 364 156 b 272 260 296 156 272 185 l 272 781 l 60 781 l 60 -307 l 278 -307 b 250 32 258 -190 253 -100 b 338 -12 267 -1 301 -12 b 449 88 390 -12 426 15 l 453 88 b 597 -19 472 11 524 -19 b 681 3 635 -19 661 -10 l 660 151 b 640 147 651 147 647 147 b 610 211 625 147 610 161 b 624 781 610 357 614 590 z m 967 425 l 985 538 b 1036 875 1003 644 1022 763 l 1042 875 b 1094 538 1060 763 1075 644 l 1113 425 z m 1181 0 l 1379 0 l 1183 1032 l 900 1032 l 704 0 l 900 0 l 942 264 l 1139 264 z "},"㎃":{"ha":0,"x_min":0,"x_max":0,"o":"m 174 683 l 158 781 l 24 781 l 24 0 l 193 0 l 193 550 b 244 625 201 599 217 625 b 282 551 271 625 282 601 l 282 0 l 418 0 l 418 550 b 468 625 426 599 440 625 b 508 551 494 625 508 603 l 508 0 l 678 0 l 678 588 b 546 797 678 721 629 797 b 419 672 481 797 433 744 b 314 797 410 751 371 797 b 179 683 239 797 200 750 z m 967 425 l 985 538 b 1036 875 1003 644 1022 763 l 1042 875 b 1094 538 1060 763 1075 644 l 1113 425 z m 1181 0 l 1379 0 l 1183 1032 l 900 1032 l 704 0 l 900 0 l 942 264 l 1139 264 z "},"㎄":{"ha":0,"x_min":0,"x_max":0,"o":"m 671 781 l 460 781 l 271 458 l 265 458 l 265 1072 l 67 1072 l 67 0 l 265 0 l 265 193 l 343 318 l 475 0 l 679 0 l 467 458 z m 967 425 l 985 538 b 1036 875 1003 644 1022 763 l 1042 875 b 1094 538 1060 763 1075 644 l 1113 425 z m 1181 0 l 1379 0 l 1183 1032 l 900 1032 l 704 0 l 900 0 l 942 264 l 1139 264 z "},"㎈":{"ha":0,"x_min":0,"x_max":0,"o":"m 667 -17 b 804 75 722 -17 768 14 l 808 75 l 821 0 l 949 0 l 949 476 b 750 797 949 689 864 797 b 525 706 676 797 607 763 l 594 571 b 717 636 644 614 682 636 b 790 499 768 636 790 582 b 529 201 638 463 529 374 b 667 -17 529 68 575 -17 z m 729 140 b 679 224 699 140 679 163 b 790 375 679 301 713 347 l 790 197 b 729 140 779 165 757 140 z m 1243 -17 b 1340 4 1286 -17 1306 -11 l 1304 157 b 1275 149 1294 150 1285 149 b 1238 206 1253 149 1238 165 l 1238 1072 l 976 1072 l 976 911 l 1075 911 l 1075 217 b 1243 -17 1075 69 1131 -17 z m 304 -19 b 460 58 357 -19 411 3 l 397 192 b 322 147 375 164 354 147 b 206 390 253 147 206 243 b 314 635 206 536 247 635 b 378 600 339 635 354 622 l 451 731 b 306 799 414 772 368 799 b 46 390 168 799 46 650 b 304 -19 46 132 153 -19 z "},"㎉":{"ha":0,"x_min":0,"x_max":0,"o":"m 24 0 l 144 0 l 144 192 l 175 317 l 239 0 l 363 0 l 261 449 l 368 781 l 233 781 l 147 465 l 144 465 l 144 1072 l 24 1072 z m 568 -19 b 704 57 615 -19 664 4 l 644 167 b 588 125 625 142 610 125 b 507 390 546 125 507 214 b 586 657 507 553 540 657 b 629 625 606 657 615 646 l 699 732 b 579 799 665 772 633 799 b 382 390 478 799 382 653 b 568 -19 382 129 468 -19 z m 844 -17 b 939 75 885 -17 919 15 l 942 75 l 951 0 l 1050 0 l 1050 488 b 896 797 1050 707 983 797 b 740 722 846 797 796 769 l 797 615 b 871 663 826 642 850 663 b 928 499 910 663 928 600 b 726 188 824 461 726 368 b 844 -17 726 63 769 -17 z m 888 119 b 844 210 861 119 844 143 b 928 375 844 293 874 344 l 928 175 b 888 119 918 138 903 119 z m 1261 -17 b 1360 8 1303 -17 1326 -8 l 1332 139 b 1301 128 1321 129 1310 128 b 1258 203 1278 128 1258 149 l 1258 1072 l 1060 1072 l 1060 932 l 1135 932 l 1135 213 b 1261 -17 1135 68 1178 -17 z "},"㎊":{"ha":0,"x_min":0,"x_max":0,"o":"m 71 -274 l 274 -274 l 274 -72 l 268 53 b 400 -19 307 3 356 -19 b 650 403 532 -19 650 113 b 415 797 650 663 561 797 b 257 699 349 797 301 757 l 253 699 l 235 781 l 71 781 z m 344 149 b 274 196 321 149 297 158 l 274 551 b 356 632 301 606 326 632 b 439 399 408 632 439 558 b 344 149 439 218 393 149 z m 801 0 l 1008 0 l 1008 418 l 1276 418 l 1276 592 l 1008 592 l 1008 860 l 1319 860 l 1319 1032 l 801 1032 z "},"㎋":{"ha":0,"x_min":0,"x_max":0,"o":"m 65 0 l 271 0 l 271 543 b 365 625 299 596 329 625 b 432 510 415 625 432 593 l 432 0 l 639 0 l 639 528 b 453 797 639 700 583 797 b 250 686 363 797 297 747 l 244 686 l 231 781 l 65 781 z m 801 0 l 1008 0 l 1008 418 l 1276 418 l 1276 592 l 1008 592 l 1008 860 l 1319 860 l 1319 1032 l 801 1032 z "},"㎌":{"ha":0,"x_min":0,"x_max":0,"o":"m 60 -307 l 278 -307 b 250 32 258 -190 253 -100 b 338 -12 267 -1 301 -12 b 449 88 390 -12 426 15 l 453 88 b 597 -19 472 11 524 -19 b 681 3 635 -19 661 -10 l 660 151 b 640 147 651 147 647 147 b 610 211 625 147 610 161 b 624 781 610 357 614 590 l 408 781 l 408 231 b 336 156 390 174 364 156 b 272 260 296 156 272 185 l 272 781 l 60 781 z m 801 0 l 1008 0 l 1008 418 l 1276 418 l 1276 592 l 1008 592 l 1008 860 l 1319 860 l 1319 1032 l 801 1032 z "},"㎍":{"ha":0,"x_min":0,"x_max":0,"o":"m 60 -307 l 278 -307 b 250 32 258 -190 253 -100 b 338 -12 267 -1 301 -12 b 449 88 390 -12 426 15 l 453 88 b 597 -19 472 11 524 -19 b 681 3 635 -19 661 -10 l 660 151 b 640 147 651 147 647 147 b 610 211 625 147 610 161 b 624 781 610 357 614 590 l 408 781 l 408 231 b 336 156 390 174 364 156 b 272 260 296 156 272 185 l 272 781 l 60 781 z m 1013 -317 b 1361 -51 1228 -317 1361 -201 b 1122 144 1361 86 1278 144 l 1029 144 b 929 210 951 144 929 167 b 950 274 929 240 938 254 b 1033 258 981 261 1008 258 b 1269 514 1156 258 1269 342 b 1239 629 1269 564 1256 603 l 1358 629 l 1358 781 l 1108 781 b 1021 797 1083 792 1049 797 b 757 524 889 797 757 715 b 847 324 757 429 794 364 l 847 318 b 767 172 800 285 767 231 b 832 40 767 108 793 68 l 832 35 b 739 -126 768 -8 739 -61 b 1013 -317 739 -257 867 -317 z m 1021 382 b 949 524 979 382 949 421 b 1021 663 949 625 978 663 b 1092 524 1063 663 1092 624 b 1021 382 1092 421 1063 382 z m 1033 -187 b 908 -96 956 -187 908 -153 b 943 -4 908 -62 918 -33 b 1032 -14 968 -12 994 -14 l 1060 -14 b 1167 -86 1129 -14 1167 -29 b 1033 -187 1167 -139 1113 -187 z "},"㎎":{"ha":0,"x_min":0,"x_max":0,"o":"m 24 0 l 193 0 l 193 550 b 244 625 201 599 217 625 b 282 551 271 625 282 601 l 282 0 l 418 0 l 418 550 b 468 625 426 599 440 625 b 508 551 494 625 508 603 l 508 0 l 678 0 l 678 588 b 546 797 678 721 629 797 b 419 672 481 797 433 744 b 314 797 410 751 371 797 b 179 683 239 797 200 750 l 174 683 l 158 781 l 24 781 z m 1013 -317 b 1361 -51 1228 -317 1361 -201 b 1122 144 1361 86 1278 144 l 1029 144 b 929 210 951 144 929 167 b 950 274 929 240 938 254 b 1033 258 981 261 1008 258 b 1269 514 1156 258 1269 342 b 1239 629 1269 564 1256 603 l 1358 629 l 1358 781 l 1108 781 b 1021 797 1083 792 1049 797 b 757 524 889 797 757 715 b 847 324 757 429 794 364 l 847 318 b 767 172 800 285 767 231 b 832 40 767 108 793 68 l 832 35 b 739 -126 768 -8 739 -61 b 1013 -317 739 -257 867 -317 z m 1021 382 b 949 524 979 382 949 421 b 1021 663 949 625 978 663 b 1092 524 1063 663 1092 624 b 1021 382 1092 421 1063 382 z m 1033 -187 b 908 -96 956 -187 908 -153 b 943 -4 908 -62 918 -33 b 1032 -14 968 -12 994 -14 l 1060 -14 b 1167 -86 1129 -14 1167 -29 b 1033 -187 1167 -139 1113 -187 z "},"㎏":{"ha":0,"x_min":0,"x_max":0,"o":"m 67 0 l 265 0 l 265 193 l 343 318 l 475 0 l 679 0 l 467 458 l 671 781 l 460 781 l 271 458 l 265 458 l 265 1072 l 67 1072 z m 1013 -317 b 1361 -51 1228 -317 1361 -201 b 1122 144 1361 86 1278 144 l 1029 144 b 929 210 951 144 929 167 b 950 274 929 240 938 254 b 1033 258 981 261 1008 258 b 1269 514 1156 258 1269 342 b 1239 629 1269 564 1256 603 l 1358 629 l 1358 781 l 1108 781 b 1021 797 1083 792 1049 797 b 757 524 889 797 757 715 b 847 324 757 429 794 364 l 847 318 b 767 172 800 285 767 231 b 832 40 767 108 793 68 l 832 35 b 739 -126 768 -8 739 -61 b 1013 -317 739 -257 867 -317 z m 1021 382 b 949 524 979 382 949 421 b 1021 663 949 625 978 663 b 1092 524 1063 663 1092 624 b 1021 382 1092 421 1063 382 z m 1033 -187 b 908 -96 956 -187 908 -153 b 943 -4 908 -62 918 -33 b 1032 -14 968 -12 994 -14 l 1060 -14 b 1167 -86 1129 -14 1167 -29 b 1033 -187 1167 -139 1113 -187 z "},"㎐":{"ha":0,"x_min":0,"x_max":0,"o":"m 63 0 l 269 0 l 269 447 l 426 447 l 426 0 l 632 0 l 632 1032 l 426 1032 l 426 624 l 269 624 l 269 1032 l 63 1032 z m 774 0 l 1325 0 l 1325 161 l 1011 161 l 1319 671 l 1319 781 l 806 781 l 806 619 l 1085 619 l 774 107 z "},"㎑":{"ha":0,"x_min":0,"x_max":0,"o":"m 67 0 l 222 0 l 222 189 l 278 317 l 353 0 l 508 0 l 376 463 l 506 781 l 331 781 l 228 474 l 222 474 l 222 1072 l 67 1072 z m 549 0 l 711 0 l 711 447 l 818 447 l 818 0 l 979 0 l 979 1032 l 818 1032 l 818 624 l 711 624 l 711 1032 l 549 1032 z m 1033 0 l 1368 0 l 1368 161 l 1206 161 l 1365 671 l 1365 781 l 1056 781 l 1056 619 l 1190 619 l 1033 107 z "},"㎒":{"ha":0,"x_min":0,"x_max":0,"o":"m 49 0 l 181 0 l 181 343 b 144 821 181 449 154 718 l 150 821 l 207 565 l 263 326 l 329 326 l 385 565 l 440 821 l 446 821 b 413 343 438 718 413 449 l 413 0 l 547 0 l 547 1032 l 400 1032 l 332 713 l 301 554 l 296 554 l 267 713 l 197 1032 l 49 1032 z m 626 0 l 767 0 l 767 447 l 871 447 l 871 0 l 1008 0 l 1008 1032 l 871 1032 l 871 624 l 767 624 l 767 1032 l 626 1032 z m 1061 0 l 1379 0 l 1379 161 l 1217 161 l 1376 671 l 1376 781 l 1083 781 l 1083 619 l 1218 619 l 1061 107 z "},"㎓":{"ha":0,"x_min":0,"x_max":0,"o":"m 322 -17 b 508 63 404 -17 464 15 l 508 569 l 279 569 l 279 400 l 346 400 l 346 174 b 308 158 338 165 324 158 b 211 518 249 158 211 260 b 338 872 211 771 261 872 b 407 828 371 872 383 851 l 510 960 b 339 1049 468 1007 419 1049 b 43 510 171 1049 43 875 b 322 -17 43 146 168 -17 z m 564 0 l 726 0 l 726 447 l 833 447 l 833 0 l 994 0 l 994 1032 l 833 1032 l 833 624 l 726 624 l 726 1032 l 564 1032 z m 1044 0 l 1379 0 l 1379 161 l 1217 161 l 1376 671 l 1376 781 l 1065 781 l 1065 619 l 1201 619 l 1044 107 z "},"㎔":{"ha":0,"x_min":0,"x_max":0,"o":"m 175 0 l 339 0 l 339 881 l 485 881 l 485 1032 l 28 1032 l 28 881 l 175 881 z m 538 0 l 700 0 l 700 447 l 808 447 l 808 0 l 969 0 l 969 1032 l 808 1032 l 808 624 l 700 624 l 700 1032 l 538 1032 z m 1022 0 l 1357 0 l 1357 161 l 1196 161 l 1354 671 l 1354 781 l 1044 781 l 1044 619 l 1179 619 l 1022 107 z "},"㎕":{"ha":0,"x_min":0,"x_max":0,"o":"m 408 781 l 408 231 b 336 156 390 174 364 156 b 272 260 296 156 272 185 l 272 781 l 60 781 l 60 -307 l 278 -307 b 250 32 258 -190 253 -100 b 338 -12 267 -1 301 -12 b 449 88 390 -12 426 15 l 453 88 b 597 -19 472 11 524 -19 b 681 3 635 -19 661 -10 l 660 151 b 640 147 651 147 647 147 b 610 211 625 147 610 161 b 624 781 610 357 614 590 z m 1079 789 b 1125 982 1079 928 1101 982 b 1156 872 1143 982 1156 947 b 1079 604 1156 772 1132 686 z m 1271 219 b 1163 149 1244 186 1206 149 b 1079 314 1117 149 1079 194 l 1079 361 b 1328 872 1264 525 1328 678 b 1117 1132 1328 1036 1243 1132 b 869 758 972 1132 869 1017 l 869 389 b 747 300 832 360 792 331 l 829 175 b 876 207 846 186 861 196 b 1126 -19 904 57 1010 -19 b 1349 96 1218 -19 1290 38 z "},"㎖":{"ha":0,"x_min":0,"x_max":0,"o":"m 174 683 l 158 781 l 24 781 l 24 0 l 193 0 l 193 550 b 244 625 201 599 217 625 b 282 551 271 625 282 601 l 282 0 l 418 0 l 418 550 b 468 625 426 599 440 625 b 508 551 494 625 508 603 l 508 0 l 678 0 l 678 588 b 546 797 678 721 629 797 b 419 672 481 797 433 744 b 314 797 410 751 371 797 b 179 683 239 797 200 750 z m 1079 789 b 1125 982 1079 928 1101 982 b 1156 872 1143 982 1156 947 b 1079 604 1156 772 1132 686 z m 1271 219 b 1163 149 1244 186 1206 149 b 1079 314 1117 149 1079 194 l 1079 361 b 1328 872 1264 525 1328 678 b 1117 1132 1328 1036 1243 1132 b 869 758 972 1132 869 1017 l 869 389 b 747 300 832 360 792 331 l 829 175 b 876 207 846 186 861 196 b 1126 -19 904 57 1010 -19 b 1349 96 1218 -19 1290 38 z "},"㎗":{"ha":0,"x_min":0,"x_max":0,"o":"m 421 226 b 344 149 397 169 374 149 b 253 390 290 149 253 218 b 346 632 253 560 300 632 b 421 583 374 632 399 618 z m 421 849 l 425 725 b 289 797 389 772 346 797 b 44 390 160 797 44 664 b 289 -19 44 113 143 -19 b 438 81 354 -19 399 21 l 440 81 l 457 0 l 624 0 l 624 1072 l 421 1072 z m 1079 789 b 1125 982 1079 928 1101 982 b 1156 872 1143 982 1156 947 b 1079 604 1156 772 1132 686 z m 1271 219 b 1163 149 1244 186 1206 149 b 1079 314 1117 149 1079 194 l 1079 361 b 1328 872 1264 525 1328 678 b 1117 1132 1328 1036 1243 1132 b 869 758 972 1132 869 1017 l 869 389 b 747 300 832 360 792 331 l 829 175 b 876 207 846 186 861 196 b 1126 -19 904 57 1010 -19 b 1349 96 1218 -19 1290 38 z "},"㎘":{"ha":0,"x_min":0,"x_max":0,"o":"m 671 781 l 460 781 l 271 458 l 265 458 l 265 1072 l 67 1072 l 67 0 l 265 0 l 265 193 l 343 318 l 475 0 l 679 0 l 467 458 z m 1079 789 b 1125 982 1079 928 1101 982 b 1156 872 1143 982 1156 947 b 1079 604 1156 772 1132 686 z m 1271 219 b 1163 149 1244 186 1206 149 b 1079 314 1117 149 1079 194 l 1079 361 b 1328 872 1264 525 1328 678 b 1117 1132 1328 1036 1243 1132 b 869 758 972 1132 869 1017 l 869 389 b 747 300 832 360 792 331 l 829 175 b 876 207 846 186 861 196 b 1126 -19 904 57 1010 -19 b 1349 96 1218 -19 1290 38 z "},"㎙":{"ha":0,"x_min":0,"x_max":0,"o":"m 228 781 l 81 772 l 81 619 l 228 619 l 228 0 l 433 0 l 433 619 l 614 619 l 614 781 l 433 781 l 433 807 b 540 929 433 889 474 929 b 642 906 572 929 608 922 l 681 1056 b 511 1090 642 1074 581 1090 b 228 807 310 1090 228 968 z m 868 683 l 853 781 l 718 781 l 718 0 l 888 0 l 888 550 b 939 625 896 599 911 625 b 976 551 965 625 976 601 l 976 0 l 1113 0 l 1113 550 b 1163 625 1121 599 1135 625 b 1203 551 1189 625 1203 603 l 1203 0 l 1372 0 l 1372 588 b 1240 797 1372 721 1324 797 b 1114 672 1175 797 1128 744 b 1008 797 1104 751 1065 797 b 874 683 933 797 894 750 z "},"㎚":{"ha":0,"x_min":0,"x_max":0,"o":"m 65 0 l 271 0 l 271 543 b 365 625 299 596 329 625 b 432 510 415 625 432 593 l 432 0 l 639 0 l 639 528 b 453 797 639 700 583 797 b 250 686 363 797 297 747 l 244 686 l 231 781 l 65 781 z m 718 0 l 888 0 l 888 550 b 939 625 896 599 911 625 b 976 551 965 625 976 601 l 976 0 l 1113 0 l 1113 550 b 1163 625 1121 599 1135 625 b 1203 551 1189 625 1203 603 l 1203 0 l 1372 0 l 1372 588 b 1240 797 1372 721 1324 797 b 1114 672 1175 797 1128 744 b 1008 797 1104 751 1065 797 b 874 683 933 797 894 750 l 868 683 l 853 781 l 718 781 z "},"㎛":{"ha":0,"x_min":0,"x_max":0,"o":"m 60 -307 l 278 -307 b 250 32 258 -190 253 -100 b 338 -12 267 -1 301 -12 b 449 88 390 -12 426 15 l 453 88 b 597 -19 472 11 524 -19 b 681 3 635 -19 661 -10 l 660 151 b 640 147 651 147 647 147 b 610 211 625 147 610 161 b 624 781 610 357 614 590 l 408 781 l 408 231 b 336 156 390 174 364 156 b 272 260 296 156 272 185 l 272 781 l 60 781 z m 718 0 l 888 0 l 888 550 b 939 625 896 599 911 625 b 976 551 965 625 976 601 l 976 0 l 1113 0 l 1113 550 b 1163 625 1121 599 1135 625 b 1203 551 1189 625 1203 603 l 1203 0 l 1372 0 l 1372 588 b 1240 797 1372 721 1324 797 b 1114 672 1175 797 1128 744 b 1008 797 1104 751 1065 797 b 874 683 933 797 894 750 l 868 683 l 853 781 l 718 781 z "},"㎜":{"ha":0,"x_min":0,"x_max":0,"o":"m 44 0 l 193 0 l 193 550 b 244 625 201 599 217 625 b 282 551 271 625 282 601 l 282 0 l 418 0 l 418 550 b 468 625 426 599 440 625 b 508 551 494 625 508 603 l 508 0 l 656 0 l 656 588 b 536 797 656 721 611 797 b 419 672 475 797 432 744 b 314 797 410 751 371 797 b 179 683 239 797 200 750 l 174 683 l 158 781 l 44 781 z m 739 0 l 888 0 l 888 550 b 939 625 896 599 911 625 b 976 551 965 625 976 601 l 976 0 l 1113 0 l 1113 550 b 1163 625 1121 599 1135 625 b 1203 551 1189 625 1203 603 l 1203 0 l 1350 0 l 1350 588 b 1231 797 1350 721 1306 797 b 1114 672 1169 797 1126 744 b 1008 797 1104 751 1065 797 b 874 683 933 797 894 750 l 868 683 l 853 781 l 739 781 z "},"㎝":{"ha":0,"x_min":0,"x_max":0,"o":"m 411 -19 b 642 72 490 -19 576 7 l 561 206 b 433 147 526 169 482 147 b 274 390 343 147 274 243 b 439 635 274 536 339 635 b 532 586 475 635 501 619 l 629 717 b 426 799 578 767 515 799 b 64 390 235 799 64 650 b 411 -19 64 132 217 -19 z m 718 0 l 888 0 l 888 550 b 939 625 896 599 911 625 b 976 551 965 625 976 601 l 976 0 l 1113 0 l 1113 550 b 1163 625 1121 599 1135 625 b 1203 551 1189 625 1203 603 l 1203 0 l 1372 0 l 1372 588 b 1240 797 1372 721 1324 797 b 1114 672 1175 797 1128 744 b 1008 797 1104 751 1065 797 b 874 683 933 797 894 750 l 868 683 l 853 781 l 718 781 z "},"㎞":{"ha":0,"x_min":0,"x_max":0,"o":"m 67 0 l 265 0 l 265 193 l 343 318 l 475 0 l 679 0 l 467 458 l 671 781 l 460 781 l 271 458 l 265 458 l 265 1072 l 67 1072 z m 718 0 l 888 0 l 888 550 b 939 625 896 599 911 625 b 976 551 965 625 976 601 l 976 0 l 1113 0 l 1113 550 b 1163 625 1121 599 1135 625 b 1203 551 1189 625 1203 603 l 1203 0 l 1372 0 l 1372 588 b 1240 797 1372 721 1324 797 b 1114 672 1175 797 1128 744 b 1008 797 1104 751 1065 797 b 874 683 933 797 894 750 l 868 683 l 853 781 l 718 781 z "},"㎟":{"ha":0,"x_min":0,"x_max":0,"o":"m 44 0 l 193 0 l 193 550 b 244 625 201 599 217 625 b 282 551 271 625 282 601 l 282 0 l 418 0 l 418 550 b 468 625 426 599 440 625 b 508 551 494 625 508 603 l 508 0 l 656 0 l 656 588 b 536 797 656 721 611 797 b 419 672 475 797 432 744 b 314 797 410 751 371 797 b 179 683 239 797 200 750 l 174 683 l 158 781 l 44 781 z m 739 0 l 888 0 l 888 417 b 939 492 896 467 911 492 b 976 419 965 492 976 468 l 976 0 l 1113 0 l 1113 417 b 1163 492 1121 467 1135 492 b 1203 419 1189 492 1203 471 l 1203 0 l 1350 0 l 1350 454 b 1231 664 1350 588 1306 664 b 1114 539 1169 664 1126 611 b 1008 664 1104 619 1065 664 b 874 550 933 664 894 617 l 868 550 l 853 647 l 739 647 z m 996 736 l 1369 736 l 1369 858 l 1224 858 b 1358 1064 1283 910 1358 981 b 1168 1217 1358 1153 1288 1217 b 981 1124 1092 1217 1038 1182 l 1061 1042 b 1143 1097 1089 1079 1118 1097 b 1211 1038 1190 1097 1211 1078 b 996 815 1211 971 1110 900 z "},"㎠":{"ha":0,"x_min":0,"x_max":0,"o":"m 411 -19 b 642 72 490 -19 576 7 l 561 206 b 433 147 526 169 482 147 b 274 390 343 147 274 243 b 439 635 274 536 339 635 b 532 586 475 635 501 619 l 629 717 b 426 799 578 767 515 799 b 64 390 235 799 64 650 b 411 -19 64 132 217 -19 z m 718 0 l 888 0 l 888 417 b 939 492 896 467 911 492 b 976 419 965 492 976 468 l 976 0 l 1113 0 l 1113 417 b 1163 492 1121 467 1135 492 b 1203 419 1189 492 1203 471 l 1203 0 l 1372 0 l 1372 454 b 1240 664 1372 588 1324 664 b 1114 539 1175 664 1128 611 b 1008 664 1104 619 1065 664 b 874 550 933 664 894 617 l 868 550 l 853 647 l 718 647 z m 996 736 l 1369 736 l 1369 858 l 1224 858 b 1358 1064 1283 910 1358 981 b 1168 1217 1358 1153 1288 1217 b 981 1124 1092 1217 1038 1182 l 1061 1042 b 1143 1097 1089 1079 1118 1097 b 1211 1038 1190 1097 1211 1078 b 996 815 1211 971 1110 900 z "},"㎡":{"ha":0,"x_min":0,"x_max":0,"o":"m 132 0 l 336 0 l 336 404 b 486 492 392 463 440 492 b 596 326 563 492 596 449 l 596 0 l 799 0 l 799 404 b 950 492 856 463 904 492 b 1060 326 1024 492 1060 449 l 1060 0 l 1263 0 l 1263 354 b 1019 664 1263 550 1186 664 b 772 529 919 664 846 606 b 557 664 736 617 669 664 b 319 544 457 664 383 610 l 314 544 l 297 647 l 132 647 z m 986 736 l 1360 736 l 1360 858 l 1214 858 b 1349 1064 1274 910 1349 981 b 1158 1217 1349 1153 1279 1217 b 971 1124 1082 1217 1029 1182 l 1051 1042 b 1135 1097 1079 1079 1108 1097 b 1201 1038 1181 1097 1201 1078 b 986 815 1201 971 1101 900 z "},"㎢":{"ha":0,"x_min":0,"x_max":0,"o":"m 67 0 l 265 0 l 265 193 l 343 318 l 475 0 l 679 0 l 467 458 l 671 781 l 460 781 l 271 458 l 265 458 l 265 1072 l 67 1072 z m 718 0 l 888 0 l 888 417 b 939 492 896 467 911 492 b 976 419 965 492 976 468 l 976 0 l 1113 0 l 1113 417 b 1163 492 1121 467 1135 492 b 1203 419 1189 492 1203 471 l 1203 0 l 1372 0 l 1372 454 b 1240 664 1372 588 1324 664 b 1114 539 1175 664 1128 611 b 1008 664 1104 619 1065 664 b 874 550 933 664 894 617 l 868 550 l 853 647 l 718 647 z m 996 736 l 1369 736 l 1369 858 l 1224 858 b 1358 1064 1283 910 1358 981 b 1168 1217 1358 1153 1288 1217 b 981 1124 1092 1217 1038 1182 l 1061 1042 b 1143 1097 1089 1079 1118 1097 b 1211 1038 1190 1097 1211 1078 b 996 815 1211 971 1110 900 z "},"㎣":{"ha":0,"x_min":0,"x_max":0,"o":"m 44 0 l 193 0 l 193 550 b 244 625 201 599 217 625 b 282 551 271 625 282 601 l 282 0 l 418 0 l 418 550 b 468 625 426 599 440 625 b 508 551 494 625 508 603 l 508 0 l 656 0 l 656 588 b 536 797 656 721 611 797 b 419 672 475 797 432 744 b 314 797 410 751 371 797 b 179 683 239 797 200 750 l 174 683 l 158 781 l 44 781 z m 739 0 l 888 0 l 888 417 b 939 492 896 467 911 492 b 976 419 965 492 976 468 l 976 0 l 1113 0 l 1113 417 b 1163 492 1121 467 1135 492 b 1203 419 1189 492 1203 471 l 1203 0 l 1350 0 l 1350 454 b 1231 664 1350 588 1306 664 b 1114 539 1169 664 1126 611 b 1008 664 1104 619 1065 664 b 874 550 933 664 894 617 l 868 550 l 853 647 l 739 647 z m 1183 717 b 1372 867 1285 717 1372 775 b 1269 981 1372 919 1350 960 b 1363 1085 1340 1003 1363 1033 b 1186 1217 1363 1165 1279 1217 b 993 1149 1106 1217 1038 1189 l 1049 1063 b 1151 1106 1078 1086 1115 1106 b 1210 1065 1189 1106 1210 1089 b 1118 1011 1210 1028 1169 1011 l 1118 931 b 1225 876 1193 931 1225 910 b 1164 828 1225 843 1204 828 b 1043 881 1118 828 1078 849 l 990 789 b 1183 717 1063 735 1129 717 z "},"㎤":{"ha":0,"x_min":0,"x_max":0,"o":"m 411 -19 b 642 72 490 -19 576 7 l 561 206 b 433 147 526 169 482 147 b 274 390 343 147 274 243 b 439 635 274 536 339 635 b 532 586 475 635 501 619 l 629 717 b 426 799 578 767 515 799 b 64 390 235 799 64 650 b 411 -19 64 132 217 -19 z m 718 0 l 888 0 l 888 417 b 939 492 896 467 911 492 b 976 419 965 492 976 468 l 976 0 l 1113 0 l 1113 417 b 1163 492 1121 467 1135 492 b 1203 419 1189 492 1203 471 l 1203 0 l 1372 0 l 1372 454 b 1240 664 1372 588 1324 664 b 1114 539 1175 664 1128 611 b 1008 664 1104 619 1065 664 b 874 550 933 664 894 617 l 868 550 l 853 647 l 718 647 z m 1183 717 b 1372 867 1285 717 1372 775 b 1269 981 1372 919 1350 960 b 1363 1085 1340 1003 1363 1033 b 1186 1217 1363 1165 1279 1217 b 993 1149 1106 1217 1038 1189 l 1049 1063 b 1151 1106 1078 1086 1115 1106 b 1210 1065 1189 1106 1210 1089 b 1118 1011 1210 1028 1169 1011 l 1118 931 b 1225 876 1193 931 1225 910 b 1164 828 1225 843 1204 828 b 1043 881 1118 828 1078 849 l 990 789 b 1183 717 1063 735 1129 717 z "},"㎥":{"ha":0,"x_min":0,"x_max":0,"o":"m 132 0 l 336 0 l 336 404 b 486 492 392 463 440 492 b 596 326 563 492 596 449 l 596 0 l 799 0 l 799 404 b 950 492 856 463 904 492 b 1060 326 1024 492 1060 449 l 1060 0 l 1263 0 l 1263 354 b 1019 664 1263 550 1186 664 b 772 529 919 664 846 606 b 557 664 736 617 669 664 b 319 544 457 664 383 610 l 314 544 l 297 647 l 132 647 z m 1171 717 b 1360 867 1272 717 1360 775 b 1257 981 1360 919 1338 960 b 1350 1085 1329 1003 1350 1033 b 1174 1217 1350 1165 1268 1217 b 981 1149 1093 1217 1026 1189 l 1038 1063 b 1139 1106 1065 1086 1103 1106 b 1199 1065 1176 1106 1199 1089 b 1106 1011 1199 1028 1157 1011 l 1106 931 b 1213 876 1182 931 1213 910 b 1151 828 1213 843 1192 828 b 1031 881 1106 828 1065 849 l 978 789 b 1171 717 1051 735 1117 717 z "},"㎦":{"ha":0,"x_min":0,"x_max":0,"o":"m 67 0 l 265 0 l 265 193 l 343 318 l 475 0 l 679 0 l 467 458 l 671 781 l 460 781 l 271 458 l 265 458 l 265 1072 l 67 1072 z m 718 0 l 888 0 l 888 417 b 939 492 896 467 911 492 b 976 419 965 492 976 468 l 976 0 l 1113 0 l 1113 417 b 1163 492 1121 467 1135 492 b 1203 419 1189 492 1203 471 l 1203 0 l 1372 0 l 1372 454 b 1240 664 1372 588 1324 664 b 1114 539 1175 664 1128 611 b 1008 664 1104 619 1065 664 b 874 550 933 664 894 617 l 868 550 l 853 647 l 718 647 z m 1183 717 b 1372 867 1285 717 1372 775 b 1269 981 1372 919 1350 960 b 1363 1085 1340 1003 1363 1033 b 1186 1217 1363 1165 1279 1217 b 993 1149 1106 1217 1038 1189 l 1049 1063 b 1151 1106 1078 1086 1115 1106 b 1210 1065 1189 1106 1210 1089 b 1118 1011 1210 1028 1169 1011 l 1118 931 b 1225 876 1193 931 1225 910 b 1164 828 1225 843 1204 828 b 1043 881 1118 828 1078 849 l 990 789 b 1183 717 1063 735 1129 717 z "},"㎧":{"ha":0,"x_min":0,"x_max":0,"o":"m 50 0 l 197 0 l 197 550 b 251 625 206 599 224 625 b 293 551 283 625 293 601 l 293 0 l 408 0 l 408 550 b 461 625 417 599 431 625 b 504 551 489 625 504 603 l 504 0 l 651 0 l 651 610 b 538 797 651 729 614 797 b 410 672 475 797 424 744 b 313 797 401 763 367 797 b 185 683 243 797 204 750 l 179 683 l 163 781 l 50 781 z m 678 -253 l 783 -253 l 978 1122 l 872 1122 z m 1133 -19 b 1343 213 1269 -19 1343 85 b 1113 579 1343 460 1113 446 b 1169 647 1113 617 1133 647 b 1257 601 1201 647 1225 633 l 1338 719 b 1160 799 1292 763 1246 799 b 965 576 1042 799 965 707 b 1196 201 965 347 1196 344 b 1136 132 1196 163 1175 132 b 1018 197 1092 132 1065 146 l 938 75 b 1133 -19 994 11 1061 -19 z "},"㎨":{"ha":0,"x_min":0,"x_max":0,"o":"m 50 0 l 197 0 l 197 550 b 251 625 206 599 224 625 b 293 551 283 625 293 601 l 293 0 l 408 0 l 408 550 b 461 625 417 599 431 625 b 504 551 489 625 504 603 l 504 0 l 651 0 l 651 610 b 538 797 651 729 614 797 b 410 672 475 797 424 744 b 313 797 401 763 367 797 b 185 683 243 797 204 750 l 179 683 l 163 781 l 50 781 z m 656 -253 l 761 -253 l 956 1122 l 850 1122 z m 996 736 l 1369 736 l 1369 858 l 1224 858 b 1358 1064 1283 910 1358 981 b 1168 1217 1358 1153 1288 1217 b 981 1124 1092 1217 1038 1182 l 1061 1042 b 1143 1097 1089 1079 1118 1097 b 1211 1038 1190 1097 1211 1078 b 996 815 1211 971 1110 900 z m 1156 -19 b 1365 175 1292 -19 1365 68 b 1122 463 1365 368 1122 385 b 1179 514 1122 492 1143 514 b 1278 469 1218 514 1243 501 l 1360 586 b 1160 665 1307 629 1257 665 b 965 482 1042 665 965 590 b 1207 185 965 299 1207 265 b 1147 132 1207 154 1185 132 b 1018 197 1097 132 1063 156 l 938 75 b 1156 -19 1001 11 1074 -19 z "},"㎩":{"ha":0,"x_min":0,"x_max":0,"o":"m 67 0 l 272 0 l 272 367 l 331 367 b 678 710 536 367 678 474 b 331 1032 678 953 536 1032 l 67 1032 z m 272 531 l 272 868 l 317 868 b 476 710 428 868 476 828 b 317 531 476 592 428 531 z m 940 -17 b 1138 89 1017 -17 1083 19 l 1143 89 l 1160 0 l 1324 0 l 1324 476 b 1053 797 1324 689 1215 797 b 763 706 953 797 858 763 l 838 571 b 1014 636 913 614 960 636 b 1121 499 1076 636 1119 582 b 742 201 882 463 742 374 b 940 -17 742 68 817 -17 z m 1010 140 b 938 224 968 140 938 163 b 1121 375 938 301 982 347 l 1121 211 b 1010 140 1092 171 1051 140 z "},"㎪":{"ha":0,"x_min":0,"x_max":0,"o":"m 39 0 l 194 0 l 194 189 l 250 317 l 325 0 l 481 0 l 347 463 l 478 781 l 303 781 l 200 474 l 194 474 l 194 1072 l 39 1072 z m 526 0 l 686 0 l 686 367 l 701 367 b 942 710 833 367 942 474 b 701 1032 942 953 833 1032 l 526 1032 z m 686 517 l 686 882 l 704 882 b 786 710 761 882 786 836 b 704 517 786 585 761 517 z m 1078 -17 b 1204 86 1132 -17 1175 18 l 1208 86 l 1219 0 l 1349 0 l 1349 488 b 1160 797 1349 707 1268 797 b 974 719 1100 797 1038 763 l 1032 586 b 1125 636 1064 610 1094 636 b 1190 499 1169 636 1190 592 b 935 201 1033 450 935 371 b 1078 -17 935 68 986 -17 z m 1132 140 b 1079 224 1104 140 1079 163 b 1190 375 1079 299 1111 335 l 1190 199 b 1132 140 1176 163 1157 140 z "},"㎫":{"ha":0,"x_min":0,"x_max":0,"o":"m 43 0 l 174 0 l 174 386 b 143 821 174 492 151 718 l 149 821 l 194 544 l 239 306 l 306 306 l 350 544 l 397 821 l 400 821 b 374 386 393 718 374 492 l 374 0 l 506 0 l 506 1032 l 343 1032 l 293 690 l 276 543 l 272 543 l 258 690 l 206 1032 l 43 1032 z m 569 0 l 718 0 l 718 367 l 735 367 b 964 710 860 367 964 474 b 735 1032 964 953 860 1032 l 569 1032 z m 718 517 l 718 882 l 736 882 b 818 710 794 882 818 836 b 736 517 818 585 794 517 z m 1089 -17 b 1215 86 1143 -17 1185 18 l 1218 86 l 1231 0 l 1349 0 l 1349 499 b 1171 797 1349 717 1274 797 b 996 719 1114 797 1054 763 l 1054 586 b 1136 636 1082 610 1108 636 b 1201 499 1181 636 1201 592 b 957 201 1051 450 957 371 b 1089 -17 957 68 1006 -17 z m 1143 140 b 1090 224 1115 140 1090 163 b 1201 375 1090 299 1122 335 l 1201 199 b 1143 140 1188 163 1168 140 z "},"㎬":{"ha":0,"x_min":0,"x_max":0,"o":"m 297 -17 b 482 63 378 -17 439 15 l 482 569 l 264 569 l 264 400 l 319 400 l 319 163 b 282 146 314 153 299 146 b 197 518 229 146 197 240 b 311 885 197 790 242 885 b 381 840 344 885 358 867 l 483 960 b 313 1049 442 1007 393 1049 b 28 510 151 1049 28 875 b 297 -17 28 146 147 -17 z m 546 0 l 706 0 l 706 367 l 721 367 b 950 710 847 367 950 474 b 710 1032 950 953 842 1032 l 546 1032 z m 706 517 l 706 882 l 718 882 b 794 710 776 882 794 836 b 718 517 794 585 776 517 z m 1078 -17 b 1204 86 1132 -17 1175 18 l 1208 86 l 1219 0 l 1349 0 l 1349 488 b 1160 797 1349 707 1268 797 b 974 719 1100 797 1038 763 l 1032 586 b 1125 636 1064 610 1094 636 b 1190 499 1169 636 1190 592 b 935 201 1033 450 935 371 b 1078 -17 935 68 986 -17 z m 1132 140 b 1079 224 1104 140 1079 163 b 1190 375 1079 299 1111 335 l 1190 199 b 1132 140 1176 163 1157 140 z "}}}
